<?xml version="1.0" encoding="utf-8"?>
<!-- Generator: Adobe Illustrator 16.0.0, SVG Export Plug-In . SVG Version: 6.00 Build 0)  -->
<!DOCTYPE svg PUBLIC "-//W3C//DTD SVG 1.1//EN" "http://www.w3.org/Graphics/SVG/1.1/DTD/svg11.dtd">
<svg version="1.1" id="圖層_1" xmlns="http://www.w3.org/2000/svg" xmlns:xlink="http://www.w3.org/1999/xlink" x="0px" y="0px"
	 width="595.275px" height="841.89px" viewBox="0 0 595.275 841.89" enable-background="new 0 0 595.275 841.89"
	 xml:space="preserve">
<g>
	<g>
		<path fill-rule="evenodd" clip-rule="evenodd" fill="#A6CE38" d="M203.056,655.975v-5.911c4.004,0,7.246-1.335,9.916-4.005
			c2.86-2.86,4.195-6.102,4.195-10.105c0-4.005-1.335-7.246-4.195-9.916c-2.669-2.86-5.911-4.195-9.916-4.195v-5.911
			c5.53,0,10.297,2.098,14.111,5.911c3.814,3.813,5.911,8.581,5.911,14.111c0,5.529-2.097,10.297-5.911,14.11
			C213.354,654.068,208.586,655.975,203.056,655.975L203.056,655.975z M253.207,664.938h-5.911v-23.265l-18.497-25.742h7.627
			l13.729,19.26l13.729-19.26h7.627l-18.306,25.742V664.938z M203.056,615.931v5.911l0,0h-14.111v28.222h14.111l0,0v5.911l0,0
			h-14.111v8.963h-5.911v-49.007H203.056L203.056,615.931L203.056,615.931z M155.003,655.975v-5.911l0,0
			c4.004,0,7.246-1.335,10.106-4.005c2.669-2.86,4.195-6.102,4.195-10.105c0-4.005-1.525-7.246-4.195-9.916
			c-2.86-2.86-6.102-4.195-10.106-4.195l0,0v-5.911l0,0c5.53,0,10.297,2.098,14.301,5.911c3.814,3.813,5.721,8.581,5.721,14.111
			c0,5.529-1.907,10.297-5.721,14.11C165.3,654.068,160.533,655.975,155.003,655.975L155.003,655.975z M155.003,615.931v5.911
			h-14.111v28.222h14.111v5.911h-14.111v8.963h-5.721v-49.007H155.003L155.003,615.931z M107.141,650.063v-5.911h14.111v-8.199
			c0-3.814-1.335-7.246-4.195-9.916c-2.669-2.86-5.911-4.195-9.916-4.195v-5.911c5.53,0,10.297,2.098,14.111,5.911
			c4.004,3.813,5.911,8.581,5.911,14.111v28.984h-5.911v-14.874H107.141z M79.301,664.938H73.39v-28.222H45.168v28.222h-5.912
			v-49.007h5.912v14.874H73.39v-14.874h5.911V664.938L79.301,664.938z M107.141,615.931v5.911l0,0c-4.004,0-7.246,1.335-9.916,4.195
			c-2.86,2.67-4.195,5.911-4.195,9.916v8.199h14.111v5.911H93.03v14.874h-5.911v-28.984c0-5.53,2.098-10.298,5.911-14.111
			C96.844,618.028,101.611,615.931,107.141,615.931L107.141,615.931z"/>
		<path fill-rule="evenodd" clip-rule="evenodd" fill="#ED1B23" d="M357.321,722.906v-5.912h14.11v-8.199
			c0-3.813-1.335-7.056-4.194-9.916c-2.67-2.86-6.103-4.194-9.916-4.194l0,0v-5.722l0,0c5.53,0,10.297,1.907,14.11,5.722
			c3.814,4.004,5.912,8.771,5.912,14.11v28.984h-5.912v-14.873H357.321L357.321,722.906z M445.8,737.779h-5.721v-28.984
			c0-3.813-1.525-7.056-4.195-9.916c-2.86-2.86-6.102-4.194-9.915-4.194c-4.005,0-7.247,1.334-10.106,4.194
			c-2.67,2.86-4.195,6.103-4.195,9.916v28.984h-5.721v-28.984c0-5.34,1.907-10.106,5.721-14.11
			c4.004-3.814,8.771-5.722,14.302-5.722c5.339,0,10.105,1.907,14.11,5.722c3.813,4.004,5.721,8.58,5.721,14.11V737.779
			L445.8,737.779z M496.713,737.779h-5.911v-23.264l-18.497-25.553h7.628l13.729,19.069l13.729-19.069h7.627l-18.306,25.553V737.779
			z M357.321,688.963v5.722c-4.005,0-7.246,1.334-10.106,4.194c-2.67,2.86-4.004,6.103-4.004,9.916v8.199h14.11v5.912h-14.11v14.873
			h-5.912v-28.984c0-5.34,1.907-10.106,5.912-14.11C347.024,690.87,351.791,688.963,357.321,688.963L357.321,688.963z
			 M288.674,728.817v-5.911c4.004,0,7.246-1.336,10.106-4.005c2.67-2.86,4.005-6.103,4.005-10.106c0-3.813-1.335-7.056-4.005-9.916
			c-2.86-2.86-6.102-4.194-10.106-4.194v-5.722c5.53,0,10.297,1.907,14.111,5.722c4.004,3.813,5.911,8.58,5.911,14.11
			s-1.907,10.297-5.911,14.301C298.971,726.91,294.204,728.817,288.674,728.817z M288.674,688.963v5.722l0,0h-14.111v28.222h14.111
			l0,0v5.911l0,0h-14.111v8.962h-5.911v-48.816H288.674L288.674,688.963L288.674,688.963z M136.697,737.779v-5.911l0,0
			c5.149,0,9.535-1.717,13.157-5.34c3.624-3.813,5.339-8.009,5.339-13.157s-1.716-9.534-5.339-13.157
			c-3.623-3.623-8.008-5.529-13.157-5.529l0,0v-5.722l0,0c6.674,0,12.585,2.289,17.353,7.056c4.767,4.768,7.055,10.488,7.055,17.353
			c0,6.674-2.288,12.395-7.055,17.162C149.283,735.3,143.372,737.779,136.697,737.779L136.697,737.779L136.697,737.779z
			 M240.049,737.779h-5.721v-34.896c0-2.288-0.954-4.195-2.479-5.721c-1.525-1.716-3.432-2.479-5.72-2.479
			c-2.289,0-4.195,0.763-5.911,2.479c-1.526,1.525-2.289,3.433-2.289,5.721v34.896h-5.912v-34.896c0-2.288-0.763-4.195-2.479-5.721
			c-1.525-1.716-3.433-2.479-5.721-2.479s-4.195,0.763-5.72,2.479c-1.716,1.525-2.479,3.433-2.479,5.721v34.896h-5.911v-34.896
			c0-3.813,1.525-7.246,4.195-9.916c2.67-2.67,6.102-4.005,9.916-4.005s7.246,1.335,9.916,4.005
			c0.382,0.382,0.763,0.954,1.145,1.335c0.381-0.381,0.763-0.953,1.144-1.335c2.86-2.67,6.102-4.005,10.106-4.005
			c3.813,0,7.055,1.335,9.916,4.005c2.669,2.67,4.004,6.103,4.004,9.916V737.779z M63.665,737.779
			c-6.674,0-12.585-2.479-17.353-7.246c-4.576-4.768-7.055-10.488-7.055-17.162c0-6.864,2.479-12.585,7.055-17.353
			c4.768-4.767,10.679-7.056,17.353-7.056c6.674,0,12.585,2.289,17.353,7.056c0.763,0.763,1.525,1.717,2.288,2.67l2.67,3.433h-7.437
			l-0.572-0.763c-0.382-0.382-0.763-0.763-1.145-1.145c-3.623-3.623-8.008-5.529-13.157-5.529c-5.148,0-9.534,1.906-13.157,5.529
			s-5.339,8.009-5.339,13.157s1.716,9.344,5.339,13.157c3.623,3.623,8.009,5.34,13.157,5.34c5.149,0,9.535-1.717,13.157-5.34
			c0.382-0.571,0.763-0.953,1.145-1.334l0.572-0.763h7.437l-2.67,3.622c-0.763,0.954-1.525,1.717-2.288,2.479
			C76.25,735.3,70.339,737.779,63.665,737.779L63.665,737.779z M136.697,688.963v5.722c-5.148,0-9.534,1.906-13.157,5.529
			s-5.339,8.009-5.339,13.157s1.716,9.344,5.339,13.157c3.623,3.623,8.009,5.34,13.157,5.34v5.911
			c-6.674,0-12.585-2.479-17.353-7.246c-4.576-4.768-7.055-10.488-7.055-17.162c0-6.864,2.479-12.585,7.055-17.353
			C124.112,691.252,130.023,688.963,136.697,688.963z"/>
		<path fill-rule="evenodd" clip-rule="evenodd" fill="#F5821F" d="M494.233,665.318v-30.51h4.577
			c1.145-1.335,1.906-2.86,2.67-4.386h-7.247v-4.386h1.907v-8.009h4.576v8.009h3.624c1.144-1.717,2.288-4.195,3.432-7.056
			l4.958,1.717c-0.953,2.097-1.907,4.004-2.86,5.339h7.628v4.386h-14.492l3.623,1.145c-0.763,1.144-1.525,2.288-2.288,3.241h11.25
			v4.004h-19.26v2.86h18.306v4.005h-18.306v2.86h21.167v4.004h-16.972c2.479,2.098,4.577,3.623,6.483,4.386
			c2.288,1.145,5.721,2.289,10.297,3.242l-2.67,4.386c-5.339-1.525-9.152-3.051-11.631-4.767c-2.289-1.525-4.577-3.624-6.675-6.293
			v11.822H494.233z M494.233,626.037v4.386h-7.437c0.763,1.145,1.525,2.67,2.098,4.386h5.339v30.51h-2.859v-12.014
			c-1.335,1.717-2.86,3.242-4.577,4.577c-3.051,2.098-7.437,4.386-13.348,6.674l-2.479-4.005c6.102-1.906,10.297-3.623,12.585-5.339
			c1.334-0.763,2.669-1.525,3.623-2.67h-16.59v-4.004h20.785v-2.86h-17.925v-4.005h17.925v-2.86h-19.069v-4.004h11.633
			c-0.573-0.953-1.145-2.098-1.907-3.241l3.241-1.145h-14.683v-4.386h7.627c-0.763-1.717-1.525-3.433-2.479-5.53l4.768-1.525
			c0.953,1.907,1.716,4.386,2.479,7.056h3.813v-8.009h4.577v8.009H494.233L494.233,626.037z M433.023,663.603v-31.464h4.386v11.06
			h14.302v4.577h-14.302v11.06h18.115v4.768H433.023L433.023,663.603z M433.023,624.32c0-0.19,0.19-0.381,0.382-0.571
			c3.433,4.576,6.864,8.009,10.106,10.297c2.479,1.907,6.102,3.813,11.06,5.53l3.241-5.148c-4.767-1.335-8.581-3.052-11.632-5.149
			c-3.432-2.288-6.864-5.721-10.106-10.106h-2.669h-0.382V624.32z M433.023,619.172v5.148c-2.288,3.052-4.767,5.722-7.437,7.818
			c-3.623,2.86-8.199,5.34-13.348,7.438l-3.052-5.148c5.912-2.098,10.679-4.577,13.921-7.247c2.86-2.098,5.339-4.767,7.627-8.009
			H433.023L433.023,619.172z M433.023,632.139h-0.572v26.696h-9.343v-19.259h-4.768v19.259h-8.009v4.768h22.691V632.139
			L433.023,632.139z M384.78,659.979v-10.679l1.144,0.382C385.543,654.259,385.161,657.69,384.78,659.979L384.78,659.979z
			 M384.78,637.479c2.098,6.102,4.004,12.967,5.72,20.594l5.149-2.288c-1.907-8.009-4.386-15.637-7.056-22.691l-3.813,1.144V637.479
			z M384.78,634.236v3.242c-0.382-0.954-0.572-1.907-0.954-2.86L384.78,634.236L384.78,634.236z M384.78,649.301v10.679
			c-0.191,1.525-0.572,2.479-0.954,3.051c-0.763,1.335-2.288,2.098-4.576,2.098h-5.53v-4.958h4.958c0.763,0,1.145-0.381,1.526-1.145
			c0.381-0.762,0.571-4.386,0.763-10.678L384.78,649.301L384.78,649.301z M373.72,631.758v-8.963
			c2.861,3.242,5.34,6.293,7.247,8.772l-5.148,3.432C375.246,634.046,374.482,632.901,373.72,631.758z M373.72,622.795v8.963
			c-1.906-2.86-4.386-6.103-7.245-9.534l4.386-2.67C371.813,620.698,372.767,621.842,373.72,622.795L373.72,622.795z M373.72,660.17
			h-4.386c-1.144,0-1.716-0.572-1.716-1.717v-27.648h-5.148v29.175c0,1.525,0.382,2.86,1.335,3.813s2.098,1.335,3.813,1.335h6.102
			V660.17L373.72,660.17z M319.565,652.733v-3.813h6.483v3.813H319.565L319.565,652.733z M319.565,643.39v-3.813h4.958v3.813
			H319.565L319.565,643.39z M319.565,637.097h9.534v21.548c0,1.335-0.763,1.906-1.906,2.098l-4.958-0.191l0.953,4.577h4.768
			c2.098,0,3.432-0.382,4.386-1.145c0.953-0.953,1.334-2.288,1.334-4.004v-40.426h-14.11v3.813h9.534v3.051h-9.534v3.242h9.534
			v3.623h-9.534V637.097L319.565,637.097z M353.508,632.901l5.339,0.954c-1.335,10.105-3.242,18.878-5.53,26.124l-4.957-2.86
			C350.838,649.491,352.554,641.482,353.508,632.901z M319.565,619.554v3.813h-2.098v3.051h2.098v3.242h-2.098v3.623h2.098v3.813
			h-5.911v-17.543h1.525H319.565L319.565,619.554z M319.565,639.576v3.813h-0.953v5.53h0.953v3.813h-0.953v10.869h-4.386v-10.869
			h-0.572v-3.813h0.572v-5.53h-0.572v-3.813H319.565z M309.269,619.554v17.543h-0.382v-17.543H309.269L309.269,619.554z
			 M313.654,619.554v17.543h-0.572v-17.543H313.654L313.654,619.554z M313.654,639.576v3.813h-4.768v-3.813H313.654L313.654,639.576
			z M313.654,648.92v3.813h-4.768v-3.813H313.654z M308.887,637.097h-9.916v-3.813h5.72v-3.623h-5.72v-3.242h5.72v-3.051h-5.72
			v-3.813h9.916V637.097L308.887,637.097z M308.887,639.576v3.813h-0.572v5.53h0.572v3.813h-0.763
			c-0.19,2.098-0.763,4.004-1.525,5.53c-1.145,1.906-3.433,3.813-6.674,5.911l-0.954-0.763v-4.195
			c1.526-0.764,2.479-1.717,3.242-2.67s1.335-2.098,1.525-3.813h-4.767v-3.813h4.767v-5.53h-4.767v-3.813H308.887z M298.971,637.097
			h-5.53V665.7h-4.576v-46.146h10.106v3.813h-5.53v3.051h5.53v3.242h-5.53v3.623h5.53V637.097L298.971,637.097z M298.971,639.576
			h-1.144v3.813h1.144V639.576L298.971,639.576z M298.971,648.92h-2.86v3.813h2.86V648.92L298.971,648.92z M298.971,659.217
			c-0.763,0.572-1.716,1.144-2.86,1.716l2.86,2.479V659.217z"/>
	</g>
	<g>
		<path fill-rule="evenodd" clip-rule="evenodd" fill="#F5821F" d="M280.475,535.843c119.179-1.526,214.522-99.348,213.188-218.526
			c-1.525-119.179-99.348-214.713-218.526-213.188c-119.37,1.525-214.712,99.348-213.187,218.526S161.296,537.368,280.475,535.843z"
			/>
		<path fill-rule="evenodd" clip-rule="evenodd" fill="#FFFFFF" d="M74.534,322.465c-5.53,9.916,7.627,18.115,13.729,7.246
			c4.386-7.627,9.725-15.255,16.78-21.929c17.734,9.344,36.612,39.854,44.811,69.982c4.386,16.59,5.339,30.319,18.497,50.341
			c16.589,25.361,43.286,44.621,77.8,44.239c45.765-0.571,74.749-37.756,92.864-74.749c14.492-29.366,28.603-61.02,46.527-89.813
			c29.938-48.435,63.688-117.081,125.662-112.314c-4.386,4.576-9.725,12.013-12.014,17.734c-4.767,11.441,7.246,15.827,12.395,5.72
			c6.483-13.157,25.171-33.751,42.333-38.899c-22.883-7.627-42.333-11.823-59.686-17.925c-10.678-3.814-15.826,7.818-5.147,12.013
			c4.004,1.525,10.105,3.433,16.398,5.912c-67.313,0.19-100.683,67.312-131.765,117.081c-18.687,29.938-32.606,61.21-48.243,92.673
			c-21.166,42.333-47.29,66.549-79.135,67.122c-22.691,0.19-45.574-10.488-61.782-32.417c-12.204-16.78-13.92-26.886-18.497-46.718
			c-7.246-30.128-26.505-65.215-48.244-80.088c7.627-5.148,16.399-8.962,22.501-10.869c12.395-3.814,6.865-19.45-5.339-15.064
			C111.336,280.514,88.072,297.104,74.534,322.465z"/>
		<path fill-rule="evenodd" clip-rule="evenodd" fill="#F5821F" d="M462.58,208.434c14.11-9.343,27.459-14.492,45.955-12.966
			c-4.194,4.576-9.534,14.683-11.822,20.213c-4.768,11.632,11.25,17.162,14.302,6.292c4.958-17.734,26.505-33.37,45.002-42.142
			c-22.883-7.818-51.867-16.399-69.028-22.501c-10.679-3.623-16.399,10.297-5.721,14.302c4.004,1.525,17.924,5.911,24.217,8.39
			c-19.831,0-36.611,5.911-51.485,15.445C457.05,199.663,459.91,203.858,462.58,208.434z"/>
		<path fill-rule="evenodd" clip-rule="evenodd" fill="#FFFFFF" d="M400.988,480.734l-27.269,17.733
			c-1.334-2.86-2.097-6.102-2.097-9.534c0-3.242,1.144-8.009,3.432-14.11c1.526-3.623,2.098-6.293,2.289-7.818
			c0-1.525-0.191-2.67-0.763-3.623c-0.763-0.953-1.717-1.716-2.861-1.907c-1.144-0.19-2.288,0-3.432,0.763
			c-1.145,0.763-1.907,1.717-2.098,2.86c-0.382,1.335,0,2.86,0.953,4.958l-9.534,5.148c-1.335-2.86-1.906-5.148-1.906-7.246
			s0.571-4.004,1.906-5.911c1.145-1.907,3.242-3.813,6.483-5.911c3.051-2.098,5.911-3.242,8.009-3.623
			c2.288-0.572,4.386-0.382,6.483,0.572c1.907,0.763,3.623,2.098,4.768,4.004c1.335,2.098,1.906,4.386,1.906,6.865
			c0,2.669-0.763,5.911-2.479,10.106c-0.954,2.479-1.525,4.194-1.907,5.148c-0.19,0.763-0.572,1.906-0.953,3.241l14.302-9.152
			L400.988,480.734z"/>
		<path fill-rule="evenodd" clip-rule="evenodd" fill="#FFFFFF" d="M405.374,431.537c0.19,0,0.19,0,0.382,0.19
			c1.335,0.382,2.479,0.954,3.813,1.717c2.67,1.716,4.958,3.622,7.246,5.911c4.767,4.958,7.628,9.534,8.199,13.538
			c0.382,4.005-1.335,8.2-5.53,12.204c-2.479,2.288-4.576,3.813-6.864,4.386c-2.098,0.572-4.386,0.763-6.674,0.19
			c-0.19,0-0.382-0.19-0.572-0.19v-11.822c1.717,1.525,3.051,2.479,4.195,2.86c1.907,0.572,3.623,0.381,4.767-0.763
			c0.764-0.763,1.145-1.716,1.145-2.86c0.19-0.953-0.381-2.288-1.145-3.813c-0.953-1.526-2.669-3.433-4.957-5.911
			c-1.525-1.526-2.86-2.86-4.005-3.814V431.537z M393.933,461.475c-5.148-5.339-7.817-9.916-8.009-13.92
			c0-4.004,1.717-7.818,5.721-11.632c1.907-1.907,3.623-3.051,5.34-3.813c1.716-0.763,3.241-1.145,4.767-1.145
			c1.335,0,2.479,0.19,3.623,0.572v11.822c-1.716-1.525-3.241-2.479-4.195-2.86c-1.906-0.571-3.432-0.381-4.767,0.764
			c-1.335,1.334-1.525,2.859-0.953,4.767c0.763,1.907,2.859,4.576,6.102,8.009c1.525,1.525,2.67,2.67,3.813,3.623v11.822
			c-1.525-0.381-3.241-1.335-5.148-2.67C398.128,465.479,396.03,463.763,393.933,461.475z"/>
		<path fill-rule="evenodd" clip-rule="evenodd" fill="#FFFFFF" d="M453.617,420.859l-18.687,26.696
			c-2.288-2.098-4.195-4.767-5.53-8.009c-1.144-3.241-1.906-8.009-2.098-14.492c0-3.813-0.381-6.674-0.763-8.009
			c-0.571-1.525-1.334-2.479-2.097-3.051c-0.954-0.763-2.099-0.954-3.242-0.763c-1.335,0.19-2.288,0.953-3.051,2.097
			c-0.763,1.145-0.954,2.289-0.763,3.433c0.19,1.334,1.144,2.669,2.669,4.195l-6.864,8.391c-2.288-2.098-3.813-4.195-4.576-6.103
			c-0.763-1.906-0.954-4.004-0.382-6.102c0.382-2.288,1.717-4.958,3.813-7.818c2.098-3.242,4.195-5.339,6.103-6.674
			c1.906-1.144,4.004-1.716,6.102-1.716s4.195,0.763,6.103,1.906c1.906,1.335,3.241,3.242,4.385,5.721
			c0.954,2.288,1.335,5.72,1.335,10.297c0,2.669,0,4.385,0.191,5.339c0,0.953,0.19,2.098,0.381,3.432l9.726-13.729L453.617,420.859z
			"/>
		<g>
			<g>
				<path fill="#FFFFFF" d="M442.93,391.927c0.171-0.398,0.39-0.777,0.659-1.144c0.256-0.367,0.478-0.751,0.646-1.144
					c0.353-0.653,0.658-1.354,0.928-2.095c0.273-0.747,0.421-1.475,0.448-2.195c0.036-0.709-0.093-1.377-0.378-1.999
					c-0.288-0.617-0.825-1.144-1.618-1.572c-1.173-0.632-2.337-0.611-3.487,0.052c-1.164,0.662-2.122,1.717-2.902,3.163
					c-0.964,1.788-1.271,3.402-0.92,4.86c0.345,1.447,1.351,2.603,3.021,3.46l-4.42,8.198c-1.981-1.111-3.53-2.437-4.672-3.982
					c-1.139-1.551-1.902-3.21-2.271-4.987c-0.382-1.777-0.379-3.628-0.001-5.559c0.374-1.925,1.081-3.85,2.119-5.777
					c0.834-1.547,1.852-3.031,3.059-4.442c1.208-1.411,2.546-2.556,4.034-3.418c1.486-0.857,3.08-1.353,4.79-1.476
					c1.706-0.118,3.479,0.312,5.3,1.294c0.793,0.427,1.518,0.955,2.177,1.577s1.202,1.326,1.621,2.1
					c0.428,0.786,0.691,1.605,0.804,2.466c0.113,0.861,0.015,1.738-0.286,2.643l0.102,0.054c1.661-1.771,3.472-2.777,5.428-3.035
					c1.952-0.252,4.002,0.198,6.124,1.342c2.033,1.096,3.546,2.46,4.558,4.086c1.009,1.632,1.604,3.388,1.791,5.262
					s0.039,3.805-0.448,5.777c-0.501,1.972-1.218,3.863-2.182,5.65c-1.129,2.094-2.472,3.916-4.009,5.458
					c-1.549,1.536-3.223,2.688-5.052,3.433c-1.817,0.75-3.784,1.03-5.883,0.857c-2.106-0.184-4.269-0.96-6.494-2.341l4.421-8.198
					c4.209,2.407,7.491,1.401,9.864-3c0.406-0.754,0.72-1.522,0.911-2.305c0.203-0.777,0.269-1.542,0.207-2.282
					c-0.06-0.746-0.283-1.428-0.664-2.059c-0.372-0.619-0.955-1.142-1.748-1.57c-0.994-0.536-1.903-0.802-2.724-0.805
					c-0.823,0.003-1.559,0.19-2.234,0.562c-0.661,0.371-1.274,0.92-1.844,1.629c-0.562,0.721-1.074,1.511-1.538,2.371
					c-0.202,0.374-0.401,0.771-0.602,1.168c-0.191,0.409-0.377,0.806-0.548,1.204L442.93,391.927z"/>
			</g>
		</g>
	</g>
</g>
</svg>
