<svg xmlns="http://www.w3.org/2000/svg" width="18.002" height="18" viewBox="0 0 18.002 18">
  <defs>
    <style>
      .cls-1 {
        fill-rule: evenodd;
      }
    </style>
  </defs>
  <g id="telephone-fill" transform="translate(-1.124 -1.127)">
    <path fill="#333333" id="パス_76" data-name="パス 76" class="cls-1" d="M3.245,1.7a1.963,1.963,0,0,1,2.938.182L8.2,4.478a1.958,1.958,0,0,1,.355,1.68L7.94,8.622a.763.763,0,0,0,.2.725L10.9,12.11a.763.763,0,0,0,.725.2l2.462-.615a1.963,1.963,0,0,1,1.681.355l2.594,2.017a1.963,1.963,0,0,1,.183,2.938L17.387,18.17a3.127,3.127,0,0,1-3.236.79,20.964,20.964,0,0,1-7.885-4.973A20.964,20.964,0,0,1,1.291,6.1a3.128,3.128,0,0,1,.79-3.238L3.246,1.7Z" transform="translate(0)"/>
  </g>
</svg>
