<svg xmlns="http://www.w3.org/2000/svg" width="18" height="18" viewBox="0 0 18 18">
  <path fill="#333333" id="whatsapp" d="M9.563,16.875a8.363,8.363,0,0,1-4.1-1.054L0,18l2.18-5.467a8.363,8.363,0,0,1-1.055-4.1,8.224,8.224,0,0,1,.668-3.279A8.349,8.349,0,0,1,6.284.668a8.379,8.379,0,0,1,6.557,0A8.35,8.35,0,0,1,17.333,5.16a8.379,8.379,0,0,1,0,6.557,8.35,8.35,0,0,1-4.491,4.492A8.212,8.212,0,0,1,9.563,16.875Zm2.813-6.75H11.25l-.633.563A4.92,4.92,0,0,1,8.674,9.325,4.915,4.915,0,0,1,7.313,7.383l.563-.633V5.625a1.03,1.03,0,0,0-.211-.6A1.336,1.336,0,0,0,7.2,4.6q-.255-.132-.36-.027L6.012,5.4a1.98,1.98,0,0,0-.2,2.135,7.3,7.3,0,0,0,1.845,2.813,7.29,7.29,0,0,0,2.813,1.845,1.982,1.982,0,0,0,2.135-.2l.826-.826q.106-.106-.026-.361a1.336,1.336,0,0,0-.431-.466A1.03,1.03,0,0,0,12.375,10.125Z"/>
</svg>
