<?xml version="1.0" encoding="utf-8"?>
<!-- Generator: Adobe Illustrator 27.1.1, SVG Export Plug-In . SVG Version: 6.00 Build 0)  -->
<svg version="1.1" xmlns="http://www.w3.org/2000/svg" xmlns:xlink="http://www.w3.org/1999/xlink" x="0px" y="0px"
	 viewBox="0 0 213.2 207.6" style="enable-background:new 0 0 213.2 207.6;" xml:space="preserve">
<style type="text/css">
	.st0{clip-path:url(#SVGID_00000146474447368769109840000017722727468173229745_);fill:#FFCA05;}
	.st1{clip-path:url(#SVGID_00000065041469978920788110000017473141056923342247_);fill:#FFCA05;}
	.st2{clip-path:url(#SVGID_00000130630531941946023030000006053306831151549587_);fill:#FFCA05;}
	.st3{fill-rule:evenodd;clip-rule:evenodd;fill:#FFC900;}
	.st4{fill-rule:evenodd;clip-rule:evenodd;fill:#3C3C3B;}
	.st5{fill:#FFFFFF;}
	.st6{fill:#F0B438;}
	.st7{clip-path:url(#SVGID_00000096022017373750888200000004068392063802464939_);fill:#130C0E;}
	.st8{clip-path:url(#SVGID_00000096022017373750888200000004068392063802464939_);fill:#F8C60B;}
	.st9{fill:#130C0E;}
	.st10{clip-path:url(#SVGID_00000126310564413843823170000012012425182642056609_);fill:#130C0E;}
	.st11{clip-path:url(#SVGID_00000126310564413843823170000012012425182642056609_);fill:#F8C60B;}
	.st12{clip-path:url(#SVGID_00000126310564413843823170000012012425182642056609_);fill:#F0B438;}
	.st13{fill:#F6C22B;}
	.st14{fill:#0D1216;}
	.st15{clip-path:url(#SVGID_00000041274948145937443110000010835383213508805779_);}
	.st16{fill-rule:evenodd;clip-rule:evenodd;fill:#FFCA00;}
	.st17{display:none;}
	.st18{display:inline;}
	.st19{fill-rule:evenodd;clip-rule:evenodd;fill:none;stroke:#FF0000;stroke-miterlimit:10;}
	.st20{display:inline;fill:none;stroke:#32FF00;stroke-miterlimit:10;}
	.st21{display:inline;fill:#FBC7D5;}
</style>
<g id="Layer_1">
	<g>
		<defs>
			<polygon id="SVGID_1_" points="-829.5,2378 -829.5,1827.6 -1306.1,1552.4 -1782.8,1827.6 -1782.8,2378 -1306.1,2653.2 			"/>
		</defs>
		<clipPath id="SVGID_00000021099612325013551470000008625726218248218785_">
			<use xlink:href="#SVGID_1_"  style="overflow:visible;"/>
		</clipPath>
		<g transform="matrix(1 0 0 1 0 0)" style="clip-path:url(#SVGID_00000021099612325013551470000008625726218248218785_);">
			
				<image style="overflow:visible;" width="3840" height="2561" xlink:href="R5__8908_E03.jpg"  transform="matrix(0.4453 0 0 0.4453 -2539.5349 1535.5782)">
			</image>
		</g>
	</g>
	<g>
		<defs>
			<rect id="SVGID_00000079486076799454843190000008377597330465572532_" x="2166.1" y="637.5" width="73.8" height="84.6"/>
		</defs>
		<clipPath id="SVGID_00000075858967538199228840000003126318834475782830_">
			<use xlink:href="#SVGID_00000079486076799454843190000008377597330465572532_"  style="overflow:visible;"/>
		</clipPath>
		<path style="clip-path:url(#SVGID_00000075858967538199228840000003126318834475782830_);fill:#FFCA05;" d="M2170.1,698.8l32.9,19
			l32.9-19v-38l-32.9-19l-32.9,19V698.8z M2203.1,722.1c-0.3,0-0.7-0.1-1-0.3l-34.9-20.2c-0.6-0.4-1-1-1-1.7v-40.3
			c0-0.7,0.4-1.4,1-1.7l34.9-20.2c0.6-0.4,1.4-0.4,2,0l34.9,20.2c0.6,0.4,1,1,1,1.7V700c0,0.7-0.4,1.4-1,1.7l-34.9,20.2
			C2203.7,722,2203.4,722.1,2203.1,722.1"/>
		<path style="clip-path:url(#SVGID_00000075858967538199228840000003126318834475782830_);fill:#FFCA05;" d="M2200.9,682.5
			c0,0,0.6-2.9-1.8-6.9c-3.8-6.3-12.9-8.4-12.9-8.4s19.7,2.2,17.2,20.3c-0.5-0.3-1.1-0.4-1.8-0.4c-1.8,0-3.3,1.1-3.8,2.7
			c-0.3-0.1-0.6-0.1-1-0.1c-1.2,0-2.4,0.6-3.1,1.5c-0.2,0-0.5-0.1-0.7-0.1c-2.1,0-3.9,1.3-4.6,3.2c-0.5-0.2-1-0.3-1.5-0.3
			c-2.4,0-4.4,1.9-4.4,4.4c0,0.1,0,0.2,0,0.4c-0.9,0.5-1.5,1.4-1.6,2.4h40.6c-0.9-1.7-2.6-2.9-4.6-3.2c0,0,0-0.1,0-0.1
			c0-3.6-2.9-6.5-6.5-6.5c-1.2,0-2.3,0.3-3.2,0.9l-0.1-0.1c0,0-0.7-12.3,2.3-16.8c3.4-5,10.6-7.3,10.6-7.3s-3.9,2.2-8,6.7
			c-5.1,5.6,2.8,8.2,9,1.1c5.4-6.1,7.7-14.1,7.7-14.1c-18.4-3-23.2,15.3-23.2,15.3c-3.3-20.3-28.4-14.4-28.4-14.4
			C2183.6,687.1,2200.9,682.5,2200.9,682.5"/>
	</g>
	<g>
		<defs>
			<rect id="SVGID_00000178910126515898662200000002929382087300921484_" x="2267.7" y="637.5" width="73.8" height="84.6"/>
		</defs>
		<clipPath id="SVGID_00000111182325070714369500000017080858875795396252_">
			<use xlink:href="#SVGID_00000178910126515898662200000002929382087300921484_"  style="overflow:visible;"/>
		</clipPath>
		<path style="clip-path:url(#SVGID_00000111182325070714369500000017080858875795396252_);fill:#FFCA05;" d="M2271.7,698.8l32.9,19
			l32.9-19v-38l-32.9-19l-32.9,19V698.8z M2304.6,722.1c-0.3,0-0.7-0.1-1-0.3l-34.9-20.2c-0.6-0.4-1-1-1-1.7v-40.3
			c0-0.7,0.4-1.4,1-1.7l34.9-20.2c0.6-0.4,1.4-0.4,2,0l34.9,20.2c0.6,0.4,1,1,1,1.7V700c0,0.7-0.4,1.4-1,1.7l-34.9,20.2
			C2305.3,722,2304.9,722.1,2304.6,722.1"/>
		<path style="clip-path:url(#SVGID_00000111182325070714369500000017080858875795396252_);fill:#FFCA05;" d="M2328.3,682.7
			c1-1.5,1.4-3.3,1-5l-2.8-13.4c-0.6-3-5.1-2.6-5.1,0.5v8.3c0.7,0.1,1.3,0.6,1.5,1.3l0.1,0.3c0.7,1.9,0.4,4-0.7,5.7l-1.5,2.2
			l-0.4-0.3l1.5-2.2c1.1-1.5,1.3-3.5,0.6-5.2l-0.1-0.3c-0.2-0.5-0.6-0.8-1-1l0,0c0,0,0,0-0.1,0c-0.1,0-0.2,0-0.3,0
			c-0.1,0-0.1,0-0.2,0c-0.1,0-0.1,0-0.2,0c-0.4,0.1-0.7,0.3-1,0.6l-1,1.4c-0.2,0.3-0.4,0.6-0.7,0.8l-3.3,3.5
			c-1.8,1.9-2.7,4.4-2.7,6.9v12.6c0,0.8,0.7,1.5,1.5,1.5h8.4c1,0,1.8-0.9,1.6-1.9l-1-5.7c-0.2-1.3,0.1-2.7,0.8-3.8L2328.3,682.7z"/>
		<path style="clip-path:url(#SVGID_00000111182325070714369500000017080858875795396252_);fill:#FFCA05;" d="M2304.6,680.1
			c0,0,4.7-3.4,8.3-6.8c3-2.8,5.4-8.1,2-12.1c-4.3-4.9-10.3-1.4-10.3-1.4s-6-3.6-10.3,1.4c-3.5,4-1.1,9.3,2,12.1
			C2299.9,676.7,2304.6,680.1,2304.6,680.1"/>
		<path style="clip-path:url(#SVGID_00000111182325070714369500000017080858875795396252_);fill:#FFCA05;" d="M2280.9,682.7
			c-1-1.5-1.4-3.3-1-5l2.8-13.4c0.6-3,5.1-2.6,5.1,0.5v8.3c-0.7,0.1-1.3,0.6-1.5,1.3l-0.1,0.3c-0.7,1.9-0.4,4,0.7,5.7l1.5,2.2
			l0.4-0.3l-1.5-2.2c-1.1-1.5-1.3-3.5-0.6-5.2l0.1-0.3c0.2-0.5,0.6-0.8,1-1l0,0c0,0,0,0,0.1,0c0.1,0,0.2,0,0.3,0c0.1,0,0.1,0,0.2,0
			c0.1,0,0.1,0,0.2,0c0.4,0.1,0.7,0.3,1,0.6l1,1.4c0.2,0.3,0.4,0.6,0.7,0.8l3.3,3.5c1.8,1.9,2.7,4.4,2.7,6.9v12.6
			c0,0.8-0.7,1.5-1.5,1.5h-8.4c-1,0-1.8-0.9-1.6-1.9l1-5.7c0.2-1.3-0.1-2.7-0.8-3.8L2280.9,682.7z"/>
	</g>
	<g>
		<defs>
			<rect id="SVGID_00000146477849740944381020000005398294208450344631_" x="2369.2" y="637.5" width="73.8" height="84.6"/>
		</defs>
		<clipPath id="SVGID_00000138558801807343055880000002478041782463633290_">
			<use xlink:href="#SVGID_00000146477849740944381020000005398294208450344631_"  style="overflow:visible;"/>
		</clipPath>
		<path style="clip-path:url(#SVGID_00000138558801807343055880000002478041782463633290_);fill:#FFCA05;" d="M2373.2,698.8l32.9,19
			l32.9-19v-38l-32.9-19l-32.9,19V698.8z M2406.1,722.1c-0.3,0-0.7-0.1-1-0.3l-34.9-20.2c-0.6-0.4-1-1-1-1.7v-40.3
			c0-0.7,0.4-1.4,1-1.7l34.9-20.2c0.6-0.4,1.4-0.4,2,0l34.9,20.2c0.6,0.4,1,1,1,1.7V700c0,0.7-0.4,1.4-1,1.7l-34.9,20.2
			C2406.8,722,2406.5,722.1,2406.1,722.1"/>
		<path style="clip-path:url(#SVGID_00000138558801807343055880000002478041782463633290_);fill:#FFCA05;" d="M2415.8,666.9
			c0,5.3-4.3,9.6-9.6,9.6s-9.6-4.3-9.6-9.6c0-5.3,4.3-9.6,9.6-9.6S2415.8,661.6,2415.8,666.9"/>
		<path style="clip-path:url(#SVGID_00000138558801807343055880000002478041782463633290_);fill:#FFCA05;" d="M2409.7,683.1
			l-1.5,2.7h-4.1l-1.5-2.7c-0.2-0.3,0.1-0.6,0.4-0.6h6.2C2409.7,682.4,2409.9,682.8,2409.7,683.1 M2406.2,706.1l-3.3-3.2l1.3-15.7
			h4.1l1.3,15.7L2406.2,706.1z M2412.1,679.4h-11.9c-6.2,0-11.1,5-11.1,11.1V701l17.2,10.2l17-10.2v-10.4
			C2423.2,684.4,2418.2,679.4,2412.1,679.4"/>
	</g>
	<g>
		<polygon class="st3" points="1673,689.6 1655.2,679.4 1655.2,653.5 1677.6,640.6 1695.4,650.8 1713.2,640.6 1735.7,653.5 
			1735.7,679.4 1717.9,689.6 1717.9,706.1 1695.4,719 1673,706.1 		"/>
		<path class="st4" d="M1695.4,658.5l7.6,4.4l7.6,4.4v8.8v8.8l-7.6,4.4l-7.6,4.4l-7.6-4.4l-7.6-4.4V676v-8.8l7.6-4.4L1695.4,658.5z
			 M1695.4,672.1l-1.7,1l-1.7,1v2v2l1.7,1l1.7,1l1.7-1l1.7-1v-2v-2l-1.7-1L1695.4,672.1z M1713.2,648.9l-7.6,4.4l-7.6,4.4l4.5,2.6
			l5.4-3.1l5.4-3.1l5.4,3.1l5.4,3.1v6.2v6.2l-5.4,3.1l-5.4,3.1v5.2l7.6-4.4l7.6-4.4v-8.8v-8.8l-7.6-4.4L1713.2,648.9z M1710.6,694.8
			v7.1l-7.6,4.4l-7.6,4.4l-7.6-4.4l-7.6-4.4v-7.4l4.5,2.8v2l5.4,3.1l5.4,3.1l5.4-3.1l5.4-3.1v-2L1710.6,694.8z M1710.6,686.2
			l-4.5,2.5v2l-5.4,3.1l-5.4,3.1l-5.4-3.1l-5.4-3.1v-2l-4.5-2.8v7.4l7.6,4.4l7.6,4.4l7.6-4.4l7.6-4.4V686.2z M1677.6,648.9l-7.6,4.4
			l-7.6,4.4v8.8v8.8l7.6,4.4l7.6,4.4v-5.2l-5.4-3.1l-5.4-3.1v-6.2v-6.2l5.4-3.1l5.4-3.1l5.4,3.1l5.4,3.1l4.5-2.6l-7.6-4.4
			L1677.6,648.9z M1695.4,663.7l-5.4,3.1l-5.4,3.1v6.2v6.2l5.4,3.1l5.4,3.1l5.4-3.1l5.4-3.1V676v-6.2l-5.4-3.1L1695.4,663.7z"/>
	</g>
	<g>
		<g>
			<g>
				<path class="st5" d="M2098.5,686.4c-1-1.9-6.8-12.3-11.8-21.4c-4.8-8.7-14.4-13.6-24.3-12.5l0,0l29.2,54.7l11.3-18.3
					C2102.8,689,2100.4,689.9,2098.5,686.4z"/>
				<path class="st6" d="M2127.2,686.4c-1-1.9-6.8-12.3-11.8-21.4c-4.8-8.7-14.4-13.6-24.3-12.5l29.7,53.8l10.8-17.4
					C2131.6,689,2129.1,689.9,2127.2,686.4z"/>
			</g>
			<path class="st5" d="M2121.7,653c2.5,1.4,4.2,3.6,4.2,3.6h12.6l2.2-3.6H2121.7z"/>
			<polygon class="st5" points="2131.8,667.4 2134,663.8 2129.8,663.8 			"/>
			<polygon class="st5" points="2128.8,661.9 2135.2,661.9 2137.3,658.4 2126.9,658.4 			"/>
		</g>
	</g>
	<g>
		<g>
			<path class="st5" d="M1999.3,649.8c-12.3,0.3-22,10.1-22,21.7v33.9l7.2-11c0.7-1.1,2-1.8,3.3-1.8h11.7c12.3,0,22.7-9.1,23-20.8
				C2023,659.5,2012.3,649.5,1999.3,649.8"/>
		</g>
		<g>
			<defs>
				<path id="SVGID_00000102545205444531290430000008248586146356217534_" d="M2000,656.7c-1.8,0-3.6,0.3-5.4,0.9
					c-5.3,1.8-9.6,7.8-9.6,13.2v12.4c0,1.4,1.2,2.6,2.7,2.6h12.7c6.1,0,11.6-3.7,13.6-9.3C2017.8,666.3,2010,656.7,2000,656.7
					C2000,656.7,2000,656.7,2000,656.7"/>
			</defs>
			<clipPath id="SVGID_00000158031058774617166660000011134813333157081760_">
				<use xlink:href="#SVGID_00000102545205444531290430000008248586146356217534_"  style="overflow:visible;"/>
			</clipPath>
			<path style="clip-path:url(#SVGID_00000158031058774617166660000011134813333157081760_);fill:#130C0E;" d="M2014.1,676.5
				c-2,5.6-7.5,9.3-13.6,9.3h-12.8c-1.5,0-2.7-1.2-2.7-2.6v-12.4c0-5.4,4.3-11.4,9.6-13.2C2007,653.4,2018.4,664.5,2014.1,676.5"/>
			<path style="clip-path:url(#SVGID_00000158031058774617166660000011134813333157081760_);fill:#F8C60B;" d="M1979,696.1
				c-2.6,0-4.7-2-4.7-4.6s2.1-4.6,4.7-4.6c2.6,0,4.7,2,4.7,4.6S1981.6,696.1,1979,696.1 M1979,690.8c-0.5,0-0.8,0.4-0.8,0.8
				s0.4,0.8,0.8,0.8s0.8-0.4,0.8-0.8S1979.5,690.8,1979,690.8"/>
			<path style="clip-path:url(#SVGID_00000158031058774617166660000011134813333157081760_);fill:#F8C60B;" d="M1979,704.3
				c-7.2,0-13.1-5.7-13.1-12.7s5.9-12.7,13.1-12.7c7.2,0,13.1,5.7,13.1,12.7S1986.2,704.3,1979,704.3 M1979,682.6
				c-5.1,0-9.2,4-9.2,9c0,4.9,4.1,9,9.2,9c5.1,0,9.2-4,9.2-9C1988.2,686.6,1984.1,682.6,1979,682.6"/>
			<path style="clip-path:url(#SVGID_00000158031058774617166660000011134813333157081760_);fill:#F8C60B;" d="M1979,712.4
				c-11.8,0-21.5-9.4-21.5-20.8c0-11.5,9.6-20.8,21.5-20.8c11.8,0,21.5,9.4,21.5,20.8C2000.5,703.1,1990.9,712.4,1979,712.4
				 M1979,674.5c-9.7,0-17.6,7.7-17.6,17.1c0,9.4,7.9,17.1,17.6,17.1c9.7,0,17.6-7.7,17.6-17.1
				C1996.6,682.1,1988.7,674.5,1979,674.5"/>
			<path style="clip-path:url(#SVGID_00000158031058774617166660000011134813333157081760_);fill:#F8C60B;" d="M1979,720.6
				c-8,0-15.5-3-21.1-8.5c-5.6-5.5-8.7-12.8-8.7-20.5c0-7.7,3.1-15,8.7-20.5c5.6-5.5,13.1-8.5,21.1-8.5s15.5,3,21.1,8.5
				c5.6,5.5,8.7,12.8,8.7,20.5c0,7.7-3.1,15-8.7,20.5C1994.5,717.6,1987,720.6,1979,720.6 M1979,666.3c-14.3,0-26,11.3-26,25.2
				s11.7,25.2,26,25.2c14.3,0,26-11.3,26-25.2S1993.4,666.3,1979,666.3"/>
		</g>
		<g>
			<path class="st9" d="M1976.5,714.5c-0.4,0-0.9-0.1-1.3-0.2c-1.3-0.5-2.2-1.8-2.2-3.2v-39.3c0-14.6,12.1-26.7,27.1-26.7
				c14.8,0.1,26.7,11.7,26.8,26c0.1,14.6-12.4,26.3-27.5,26.3h-8.8c-1.2,0-2.4,0.6-3,1.7l-8.3,13.8
				C1978.8,713.9,1977.7,714.5,1976.5,714.5 M1999.4,651.8c-10.9,0.3-19.5,9.2-19.5,19.8v27.3l3.9-6.4c0.6-1,1.7-1.7,3-1.7h12.9
				c10.9,0,20.1-8.3,20.4-18.9C2020.4,660.6,2011,651.4,1999.4,651.8"/>
			<path class="st5" d="M1998.9,663.7c0-0.9,0.3-1.6,0.9-2.2c0.6-0.6,1.4-0.9,2.3-0.9c0.9,0,1.7,0.3,2.3,0.9
				c0.6,0.6,0.9,1.4,0.9,2.2s-0.3,1.6-0.9,2.2c-0.6,0.6-1.4,0.9-2.3,0.9c-0.9,0-1.7-0.3-2.3-0.9
				C1999.2,665.3,1998.9,664.6,1998.9,663.7"/>
			<path class="st5" d="M1999.3,649.8c-12.3,0.3-22,10.1-22,21.7v33.9l7.2-11c0.7-1.1,2-1.8,3.3-1.8h11.7c12.3,0,22.7-9.1,23-20.8
				C2023,659.5,2012.3,649.5,1999.3,649.8"/>
		</g>
		<g>
			<defs>
				<path id="SVGID_00000016753720081818783500000010495545688383754162_" d="M2000,656.7c-1.8,0-3.6,0.3-5.4,0.9
					c-5.3,1.8-9.6,7.8-9.6,13.2v12.4c0,1.4,1.2,2.6,2.7,2.6h12.7c6.1,0,11.6-3.7,13.6-9.3C2017.8,666.3,2010,656.7,2000,656.7
					C2000,656.7,2000,656.7,2000,656.7"/>
			</defs>
			<clipPath id="SVGID_00000038374102546378687850000012441298051538817445_">
				<use xlink:href="#SVGID_00000016753720081818783500000010495545688383754162_"  style="overflow:visible;"/>
			</clipPath>
			<path style="clip-path:url(#SVGID_00000038374102546378687850000012441298051538817445_);fill:#130C0E;" d="M2014.1,676.5
				c-2,5.6-7.5,9.3-13.6,9.3h-12.8c-1.5,0-2.7-1.2-2.7-2.6v-12.4c0-5.4,4.3-11.4,9.6-13.2C2007,653.4,2018.4,664.5,2014.1,676.5"/>
			<path style="clip-path:url(#SVGID_00000038374102546378687850000012441298051538817445_);fill:#F8C60B;" d="M1979,696.1
				c-2.6,0-4.7-2-4.7-4.6s2.1-4.6,4.7-4.6c2.6,0,4.7,2,4.7,4.6S1981.6,696.1,1979,696.1 M1979,690.8c-0.5,0-0.8,0.4-0.8,0.8
				s0.4,0.8,0.8,0.8s0.8-0.4,0.8-0.8S1979.5,690.8,1979,690.8"/>
			<path style="clip-path:url(#SVGID_00000038374102546378687850000012441298051538817445_);fill:#F0B438;" d="M1979,704.3
				c-7.2,0-13.1-5.7-13.1-12.7s5.9-12.7,13.1-12.7c7.2,0,13.1,5.7,13.1,12.7S1986.2,704.3,1979,704.3 M1979,682.6
				c-5.1,0-9.2,4-9.2,9c0,4.9,4.1,9,9.2,9c5.1,0,9.2-4,9.2-9C1988.2,686.6,1984.1,682.6,1979,682.6"/>
			<path style="clip-path:url(#SVGID_00000038374102546378687850000012441298051538817445_);fill:#F0B438;" d="M1979,712.4
				c-11.8,0-21.5-9.4-21.5-20.8c0-11.5,9.6-20.8,21.5-20.8c11.8,0,21.5,9.4,21.5,20.8C2000.5,703.1,1990.9,712.4,1979,712.4
				 M1979,674.5c-9.7,0-17.6,7.7-17.6,17.1c0,9.4,7.9,17.1,17.6,17.1c9.7,0,17.6-7.7,17.6-17.1
				C1996.6,682.1,1988.7,674.5,1979,674.5"/>
			<path style="clip-path:url(#SVGID_00000038374102546378687850000012441298051538817445_);fill:#F0B438;" d="M1979,720.6
				c-8,0-15.5-3-21.1-8.5c-5.6-5.5-8.7-12.8-8.7-20.5c0-7.7,3.1-15,8.7-20.5c5.6-5.5,13.1-8.5,21.1-8.5s15.5,3,21.1,8.5
				c5.6,5.5,8.7,12.8,8.7,20.5c0,7.7-3.1,15-8.7,20.5C1994.5,717.6,1987,720.6,1979,720.6 M1979,666.3c-14.3,0-26,11.3-26,25.2
				s11.7,25.2,26,25.2c14.3,0,26-11.3,26-25.2S1993.4,666.3,1979,666.3"/>
		</g>
		<g>
			<path class="st9" d="M1976.5,715.3c-0.5,0-1-0.1-1.5-0.3c-1.6-0.6-2.7-2.2-2.7-4v-39.3c0-15.1,12.5-27.4,27.8-27.4l0.2,0
				c15.1,0.1,27.5,12.1,27.6,26.8c0,7-2.7,13.6-7.8,18.7c-5.3,5.4-12.8,8.4-20.5,8.4h-8.8c-0.9,0-1.8,0.5-2.3,1.3l-8.3,13.8
				C1979.4,714.5,1978,715.3,1976.5,715.3 M2000,652.5c-0.2,0-0.4,0-0.6,0c-10.3,0.3-18.8,8.8-18.8,19V696l2.4-4
				c0.8-1.3,2.2-2,3.6-2h12.9c10.5,0,19.4-8.2,19.6-18.2c0.1-5-1.7-9.7-5.2-13.4C2010.4,654.6,2005.4,652.5,2000,652.5"/>
			<path class="st5" d="M2000,645.1h0.1c14.8,0.1,26.7,11.7,26.8,26c0.1,14.6-12.4,26.3-27.5,26.3h-8.8c-1.2,0-2.4,0.6-3,1.7
				l-8.3,13.8c-0.6,1-1.8,1.7-3,1.7c-0.4,0-0.9-0.1-1.3-0.2c-1.3-0.5-2.2-1.8-2.2-3.2v-39.3C1973,657.2,1985,645.1,2000,645.1
				 M1979.9,698.8l3.9-6.4c0.6-1,1.7-1.7,3-1.7h12.9c10.9,0,20.1-8.3,20.4-19c0.3-11-8.8-20.1-20.1-20.1c-0.2,0-0.4,0-0.6,0
				c-10.9,0.3-19.5,9.2-19.5,19.8V698.8 M2000,643.5L2000,643.5c-15.7,0-28.6,12.7-28.6,28.2v39.3c0,2.1,1.3,4,3.2,4.7
				c0.6,0.2,1.2,0.3,1.8,0.3c1.8,0,3.4-0.9,4.3-2.4l8.3-13.8c0.3-0.6,1-0.9,1.6-0.9h8.8c7.9,0,15.6-3.2,21-8.7
				c5.2-5.2,8-12.1,8-19.2c-0.1-15.1-12.8-27.5-28.4-27.6H2000z M1981.5,693.2v-21.6c0-4.7,1.9-9.2,5.2-12.7
				c3.4-3.5,7.9-5.4,12.8-5.6c0.2,0,0.4,0,0.5,0c5.2,0,9.9,2,13.5,5.7c3.4,3.5,5.2,8,5,12.8c-0.1,4.7-2.2,9.1-5.7,12.3
				c-3.6,3.3-8.2,5.1-13.1,5.1h-12.9c-1.8,0-3.4,0.9-4.3,2.4L1981.5,693.2z"/>
			<path class="st5" d="M1998.9,663.7c0-0.9,0.3-1.6,0.9-2.2c0.6-0.6,1.4-0.9,2.3-0.9c0.9,0,1.7,0.3,2.3,0.9
				c0.6,0.6,0.9,1.4,0.9,2.2s-0.3,1.6-0.9,2.2c-0.6,0.6-1.4,0.9-2.3,0.9c-0.9,0-1.7-0.3-2.3-0.9
				C1999.2,665.3,1998.9,664.6,1998.9,663.7"/>
		</g>
	</g>
	<g>
		<path d="M1906.6,673.9c-0.7-0.2-1.5-0.3-2.2-0.5c0,0-2.6-0.4-5.8-0.5c-5.4-0.4-8.6-3.5-8.1-6.3c0.5-2.8,4.8-5.9,10.3-6.3
			c0.4,0,0.7,0,1.1,0c0.4,0,0.8,0,1.1,0c0.1,0,0.2,0,0.3,0c0.3,0,0.5,0.1,0.8,0.1c0.1,0,0.2,0,0.3,0.1c0.2,0,0.5,0.1,0.7,0.1
			c0.1,0,0.2,0,0.3,0.1c0.3,0.1,0.5,0.1,0.8,0.2c0,0,0.1,0,0.1,0c0.6,0.2,1.2,0.5,1.7,0.8c0,0,0,0,0,0c0.2,0.1,0.5,0.3,0.7,0.4
			c0,0,0.1,0,0.1,0.1c0.2,0.1,0.4,0.3,0.5,0.4c0,0,0,0,0.1,0l-2,4l6.8-1.5l10.8-2.2c0-0.1,0-0.1,0-0.2h0c0,0,0-0.1,0-0.1
			c0-0.3-0.1-0.7-0.1-1c0-0.1,0-0.2,0-0.2c-0.1-0.4-0.1-0.8-0.2-1.1c0,0,0,0,0,0c0,0,0,0,0-0.1c-1.5-6.5-7-11.3-14.7-13
			c0,0-0.1,0-0.1,0c-0.5-0.1-1.1-0.2-1.7-0.3c-0.1,0-0.1,0-0.2,0c-0.6-0.1-1.1-0.1-1.7-0.2c-0.1,0-0.1,0-0.2,0
			c-0.6,0-1.2-0.1-1.8-0.1c-2.5,0-4.9,0.3-7.3,0.9c-10.2,2.5-18.6,10.1-20.2,19.1c-1.6,8.9,4.2,16.5,13.5,19.1
			c2.4,0.5,6.1,0.7,8.1,0.9c5.4,0.4,8.6,3.5,8.1,6.3c-0.5,2.8-4.8,5.9-10.3,6.3c-0.4,0-0.7,0-1.1,0c-0.4,0-0.8,0-1.1,0
			c-0.1,0-0.2,0-0.3,0c-0.3,0-0.5-0.1-0.8-0.1c-0.1,0-0.2,0-0.3-0.1c-0.2,0-0.5-0.1-0.7-0.1c-0.1,0-0.2,0-0.3-0.1
			c-0.3-0.1-0.5-0.1-0.8-0.2c0,0-0.1,0-0.1,0c-0.6-0.2-1.2-0.5-1.7-0.8c0,0,0,0,0,0c-0.2-0.1-0.5-0.3-0.7-0.4c0,0-0.1,0-0.1-0.1
			c-0.2-0.1-0.4-0.3-0.5-0.4c0,0,0,0-0.1,0l2.1-4l-6.9,1.5l-10.8,2.2c0,0.1,0,0.1,0,0.2h0c0,0.1,0,0.1,0,0.1c0,0.3,0.1,0.7,0.1,1
			c0,0.1,0,0.2,0,0.2c0.1,0.4,0.1,0.8,0.2,1.1c0,0,0,0,0,0c0,0,0,0,0,0.1c1.5,6.5,7,11.3,14.6,13c0,0,0.1,0,0.1,0
			c0.5,0.1,1.1,0.2,1.7,0.3c0.1,0,0.1,0,0.2,0c0.6,0.1,1.1,0.1,1.7,0.2c0.1,0,0.1,0,0.2,0c0.6,0,1.2,0.1,1.8,0.1
			c2.5,0,4.9-0.3,7.3-0.9c10.2-2.5,18.6-10.1,20.2-19.1C1921.7,684,1915.9,676.4,1906.6,673.9"/>
		<path class="st5" d="M1881.6,707.5c-0.1,0-0.3,0-0.4-0.1c-0.3-0.2-0.3-0.6-0.2-0.8l12.5-21.9l-4.9-2.8c-0.2-0.1-0.3-0.3-0.3-0.5
			c0-0.2,0-0.4,0.2-0.5l26.4-28.3c0.1-0.1,0.3-0.2,0.5-0.2c0.1,0,0.3,0,0.4,0.1c0.3,0.2,0.3,0.6,0.2,0.8l-12.5,21.9l4.9,2.8
			c0.2,0.1,0.3,0.3,0.3,0.5c0,0.2,0,0.4-0.2,0.5l-26.4,28.3C1882,707.4,1881.8,707.5,1881.6,707.5"/>
	</g>
	<g>
		<polygon class="st13" points="1796.9,719.7 1761.7,699.8 1761.7,659.8 1796.9,639.9 1832.2,659.8 1832.2,699.8 		"/>
		<polygon class="st14" points="1816.7,675.1 1816.7,669.7 1806.6,663.8 1806.6,669.3 		"/>
		<polygon class="st14" points="1806.6,673 1806.6,675.5 1806.6,677.7 1816.7,683.5 1816.7,681.3 1816.7,678.8 		"/>
		<polygon class="st14" points="1806.6,681.4 1806.6,687.1 1796.5,681.3 1786.4,687.1 1786.4,675.5 1786.4,663.8 1776.3,669.7 
			1776.3,681.3 1776.3,692.9 1786.4,698.7 1796.5,692.9 1806.6,698.7 1816.7,692.9 1816.7,687.2 		"/>
		<path class="st14" d="M1796.9,714.3l-30.5-17.2v-34.6l30.5-17.2l30.5,17.2v34.5L1796.9,714.3z M1770.4,694.8l26.5,15l26.5-15v-30
			l-26.5-15l-26.5,15V694.8z"/>
	</g>
	<g>
		<defs>
			<polygon id="SVGID_00000005970436883516544710000007666350086093020835_" points="143.8,2378 143.8,1827.6 -332.8,1552.4 
				-809.5,1827.6 -809.5,2378 -332.8,2653.2 			"/>
		</defs>
		<clipPath id="SVGID_00000092414638736831040010000015855575715323802808_">
			<use xlink:href="#SVGID_00000005970436883516544710000007666350086093020835_"  style="overflow:visible;"/>
		</clipPath>
		<g style="clip-path:url(#SVGID_00000092414638736831040010000015855575715323802808_);">
			
				<image style="overflow:visible;" width="3840" height="2562" xlink:href="DSC01730.jpg"  transform="matrix(0.4348 0 0 0.4348 -850.3488 1545.8286)">
			</image>
		</g>
	</g>
	<g>
		<defs>
			<polygon id="SVGID_00000152964652754585252900000000214343375118356885_" points="1117.1,2378 1117.1,1827.6 640.5,1552.4 
				163.8,1827.6 163.8,2378 640.5,2653.2 			"/>
		</defs>
		<clipPath id="SVGID_00000127018439057028858360000001755856217133713330_">
			<use xlink:href="#SVGID_00000152964652754585252900000000214343375118356885_"  style="overflow:visible;"/>
		</clipPath>
		<g style="clip-path:url(#SVGID_00000127018439057028858360000001755856217133713330_);">
			
				<image style="overflow:visible;" width="7602" height="5081" xlink:href="../Mr Wrapper/20220510_Shooting-0785_BW.jpg"  transform="matrix(0.2248 0 0 0.2248 -213.9823 1534.7212)">
			</image>
		</g>
	</g>
	<g>
		<defs>
			<polygon id="SVGID_00000068663849764432817700000016545035451317018783_" points="2090.4,2378 2090.4,1827.6 1613.8,1552.4 
				1137.1,1827.6 1137.1,2378 1613.8,2653.2 			"/>
		</defs>
		<clipPath id="SVGID_00000097476754738479919290000009420211641512504479_">
			<use xlink:href="#SVGID_00000068663849764432817700000016545035451317018783_"  style="overflow:visible;"/>
		</clipPath>
		<g style="clip-path:url(#SVGID_00000097476754738479919290000009420211641512504479_);">
			
				<image style="overflow:visible;" width="1475" height="1575" id="mJhXDO" xlink:href="E99F501D57BD1EC8.jpg"  transform="matrix(0.7057 0 0 0.7057 1049.4615 1552.443)">
			</image>
		</g>
	</g>
	<g>
		<polygon class="st16" points="47.2,129.8 0,102.6 0,34.2 59.4,0 106.6,27 153.8,0 213.2,34.2 213.2,102.6 166,129.8 166,173.4 
			106.6,207.6 47.2,173.4 		"/>
		<path class="st4" d="M106.6,47.5l20.1,11.6l20.1,11.6v23.2V117l-20.1,11.6l-20.1,11.6l-20.1-11.6L66.4,117V93.9V70.7l20.1-11.6
			L106.6,47.5z M106.6,83.4L102,86l-4.6,2.6v5.3v5.3l4.6,2.6l4.6,2.6l4.6-2.6l4.6-2.6v-5.3v-5.3l-4.6-2.6L106.6,83.4z M153.8,22.1
			l-20.1,11.6l-20.1,11.6l11.9,6.8l14.2-8.2l14.2-8.2l14.2,8.2l14.2,8.2v16.3v16.3L168,92.9l-14.2,8.2v13.7l20.1-11.6L194,91.6V68.4
			V45.2l-20.1-11.6L153.8,22.1z M146.8,143.5v18.8L126.7,174l-20.1,11.6L86.5,174l-20.1-11.6v-19.7l11.9,7.5v5.4l14.2,8.2l14.2,8.2
			l14.2-8.2l14.2-8.2v-5.4L146.8,143.5z M146.8,120.9l-11.9,6.6v5.4l-14.2,8.2l-14.2,8.2L92.4,141l-14.2-8.2v-5.4L66.4,120v19.7
			l20.1,11.6l20.1,11.6l20.1-11.6l20.1-11.6V120.9z M59.4,22.1L39.3,33.7L19.2,45.2v23.2v23.2l20.1,11.6l20.1,11.6v-13.7l-14.2-8.2
			L31,84.7V68.4V52.1l14.2-8.2l14.2-8.2l14.2,8.2l14.2,8.2l11.9-6.8L79.5,33.7L59.4,22.1z M106.6,61.2l-14.2,8.2l-14.2,8.2v16.3
			v16.3l14.2,8.2l14.2,8.2l14.2-8.2l14.2-8.2V93.9V77.6l-14.2-8.2L106.6,61.2z"/>
	</g>
</g>
<g id="Layer_2" class="st17">
	<g class="st18">
		<rect x="3124.7" y="-8226.2" class="st19" width="160" height="10783.8"/>
		<rect x="3284.7" y="-8226.2" class="st19" width="160" height="10783.8"/>
		<rect x="3444.7" y="-8226.2" class="st19" width="160" height="10783.8"/>
		<rect x="3604.7" y="-8226.2" class="st19" width="160" height="10783.8"/>
		<rect x="3764.7" y="-8226.2" class="st19" width="160" height="10783.8"/>
		<rect x="3924.7" y="-8226.2" class="st19" width="160" height="10783.8"/>
		<rect x="4084.7" y="-8226.2" class="st19" width="160" height="10783.8"/>
		<rect x="4244.7" y="-8226.2" class="st19" width="160" height="10783.8"/>
		<rect x="4404.7" y="-8226.2" class="st19" width="160" height="10783.8"/>
		<rect x="4564.7" y="-8226.2" class="st19" width="160" height="10783.8"/>
		<rect x="4724.7" y="-8226.2" class="st19" width="160" height="10783.8"/>
		<rect x="4884.7" y="-8226.2" class="st19" width="160" height="10783.8"/>
	</g>
	<rect x="3444.7" y="2599.3" class="st20" width="106.7" height="855.7"/>
	<rect x="3551.4" y="2599.3" class="st20" width="106.7" height="855.7"/>
	<rect x="3658" y="2599.3" class="st20" width="106.7" height="855.7"/>
	<rect x="3764.7" y="2599.3" class="st20" width="106.7" height="855.7"/>
	<rect x="3871.4" y="2599.3" class="st20" width="106.7" height="855.7"/>
	<rect x="3978" y="2599.3" class="st20" width="106.7" height="855.7"/>
	<rect x="4084.7" y="2599.3" class="st20" width="106.7" height="855.7"/>
	<rect x="4191.4" y="2599.3" class="st20" width="106.7" height="855.7"/>
	<rect x="4298" y="2599.3" class="st20" width="106.7" height="855.7"/>
	<rect x="4404.7" y="2599.3" class="st20" width="106.7" height="855.7"/>
	<rect x="4511.4" y="2599.3" class="st20" width="106.7" height="855.7"/>
	<rect x="4618" y="2599.3" class="st20" width="106.7" height="855.7"/>
	<rect x="4724.7" y="-8030.4" class="st21" width="320" height="320"/>
</g>
</svg>
