<?xml version="1.0" encoding="utf-8"?>
<!-- Generator: Adobe Illustrator 27.1.1, SVG Export Plug-In . SVG Version: 6.00 Build 0)  -->
<svg version="1.1" xmlns="http://www.w3.org/2000/svg" xmlns:xlink="http://www.w3.org/1999/xlink" x="0px" y="0px"
	 viewBox="0 0 81.5 90" style="enable-background:new 0 0 81.5 90;" xml:space="preserve">
<style type="text/css">
	.st0{clip-path:url(#SVGID_00000178923127657965044950000016060859664499300754_);fill:#FFCA05;}
	.st1{clip-path:url(#SVGID_00000053535320325921361890000008623428923297074855_);fill:#FFCA05;}
	.st2{clip-path:url(#SVGID_00000113345738375387380550000017875141290584495247_);fill:#FFCA05;}
	.st3{fill-rule:evenodd;clip-rule:evenodd;fill:#FFC900;}
	.st4{fill-rule:evenodd;clip-rule:evenodd;fill:#3C3C3B;}
	.st5{fill:#FFFFFF;}
	.st6{fill:#F0B438;}
	.st7{clip-path:url(#SVGID_00000051382585013034173580000000118407137825521325_);fill:#130C0E;}
	.st8{clip-path:url(#SVGID_00000051382585013034173580000000118407137825521325_);fill:#F8C60B;}
	.st9{fill:#130C0E;}
	.st10{clip-path:url(#SVGID_00000103247762351090139190000008784502421373347476_);fill:#130C0E;}
	.st11{clip-path:url(#SVGID_00000103247762351090139190000008784502421373347476_);fill:#F8C60B;}
	.st12{clip-path:url(#SVGID_00000103247762351090139190000008784502421373347476_);fill:#F0B438;}
	.st13{fill:#F6C22B;}
	.st14{fill:#0D1216;}
	.st15{clip-path:url(#SVGID_00000023972568393672938570000013971982160467260340_);}
	.st16{display:none;}
	.st17{display:inline;}
	.st18{fill-rule:evenodd;clip-rule:evenodd;fill:none;stroke:#FF0000;stroke-miterlimit:10;}
	.st19{display:inline;fill:none;stroke:#32FF00;stroke-miterlimit:10;}
	.st20{display:inline;fill:#FBC7D5;}
</style>
<g id="Layer_1">
	<g>
		<g>
			<path class="st5" d="M40.1,15c-12.3,0.3-22,10.1-22,21.7v33.9l7.2-11c0.7-1.1,2-1.8,3.3-1.8h11.7c12.3,0,22.7-9.1,23-20.8
				C63.8,24.7,53.1,14.7,40.1,15"/>
		</g>
		<g>
			<defs>
				<path id="SVGID_00000124125227208886143570000001292526231379394482_" d="M40.8,21.9c-1.8,0-3.6,0.3-5.4,0.9
					c-5.3,1.8-9.6,7.8-9.6,13.2v12.4c0,1.4,1.2,2.6,2.7,2.6h12.7c6.1,0,11.6-3.7,13.6-9.3C58.5,31.5,50.8,21.9,40.8,21.9
					C40.8,21.9,40.8,21.9,40.8,21.9"/>
			</defs>
			<clipPath id="SVGID_00000130639081596632352400000017375982847396823478_">
				<use xlink:href="#SVGID_00000124125227208886143570000001292526231379394482_"  style="overflow:visible;"/>
			</clipPath>
			<path style="clip-path:url(#SVGID_00000130639081596632352400000017375982847396823478_);fill:#130C0E;" d="M54.8,41.7
				c-2,5.6-7.5,9.3-13.6,9.3H28.4c-1.5,0-2.7-1.2-2.7-2.6V36.1c0-5.4,4.3-11.4,9.6-13.2C47.8,18.6,59.2,29.7,54.8,41.7"/>
			<path style="clip-path:url(#SVGID_00000130639081596632352400000017375982847396823478_);fill:#F8C60B;" d="M19.8,61.3
				c-2.6,0-4.7-2-4.7-4.6c0-2.5,2.1-4.6,4.7-4.6c2.6,0,4.7,2,4.7,4.6C24.5,59.3,22.4,61.3,19.8,61.3 M19.8,56
				c-0.5,0-0.8,0.4-0.8,0.8c0,0.4,0.4,0.8,0.8,0.8s0.8-0.4,0.8-0.8C20.6,56.3,20.2,56,19.8,56"/>
			<path style="clip-path:url(#SVGID_00000130639081596632352400000017375982847396823478_);fill:#F8C60B;" d="M19.8,69.5
				c-7.2,0-13.1-5.7-13.1-12.7s5.9-12.7,13.1-12.7s13.1,5.7,13.1,12.7S27,69.5,19.8,69.5 M19.8,47.8c-5.1,0-9.2,4-9.2,9
				c0,4.9,4.1,9,9.2,9s9.2-4,9.2-9C29,51.9,24.9,47.8,19.8,47.8"/>
			<path style="clip-path:url(#SVGID_00000130639081596632352400000017375982847396823478_);fill:#F8C60B;" d="M19.8,77.6
				c-11.8,0-21.5-9.4-21.5-20.8s9.6-20.8,21.5-20.8s21.5,9.4,21.5,20.8S31.6,77.6,19.8,77.6 M19.8,39.7c-9.7,0-17.6,7.7-17.6,17.1
				s7.9,17.1,17.6,17.1s17.6-7.7,17.6-17.1S29.5,39.7,19.8,39.7"/>
			<path style="clip-path:url(#SVGID_00000130639081596632352400000017375982847396823478_);fill:#F8C60B;" d="M19.8,85.8
				c-8,0-15.5-3-21.1-8.5c-5.6-5.5-8.7-12.8-8.7-20.5s3.1-15,8.7-20.5c5.6-5.5,13.1-8.5,21.1-8.5s15.5,3,21.1,8.5
				c5.6,5.5,8.7,12.8,8.7,20.5s-3.1,15-8.7,20.5C35.3,82.8,27.8,85.8,19.8,85.8 M19.8,31.5c-14.3,0-26,11.3-26,25.2S5.4,82,19.8,82
				c14.3,0,26-11.3,26-25.2S34.1,31.5,19.8,31.5"/>
		</g>
		<g>
			<path class="st9" d="M17.2,79.7c-0.4,0-0.9-0.1-1.3-0.2c-1.3-0.5-2.2-1.8-2.2-3.2V36.9c0-14.6,12.1-26.7,27.1-26.7
				c14.8,0.1,26.7,11.7,26.8,26c0.1,14.6-12.4,26.3-27.5,26.3h-8.8c-1.2,0-2.4,0.6-3,1.7l-8.3,13.8C19.6,79.1,18.4,79.7,17.2,79.7
				 M40.2,17c-10.9,0.3-19.5,9.2-19.5,19.8v27.3l3.9-6.4c0.6-1,1.7-1.7,3-1.7h12.9c10.9,0,20.1-8.3,20.4-18.9
				C61.2,25.8,51.7,16.7,40.2,17"/>
			<path class="st5" d="M39.7,28.9c0-0.9,0.3-1.6,0.9-2.2c0.6-0.6,1.4-0.9,2.3-0.9s1.7,0.3,2.3,0.9c0.6,0.6,0.9,1.4,0.9,2.2
				c0,0.9-0.3,1.6-0.9,2.2c-0.6,0.6-1.4,0.9-2.3,0.9s-1.7-0.3-2.3-0.9C40,30.5,39.7,29.8,39.7,28.9"/>
			<path class="st5" d="M40.1,15c-12.3,0.3-22,10.1-22,21.7v33.9l7.2-11c0.7-1.1,2-1.8,3.3-1.8h11.7c12.3,0,22.7-9.1,23-20.8
				C63.8,24.7,53.1,14.7,40.1,15"/>
		</g>
		<g>
			<defs>
				<path id="SVGID_00000105386302526878062290000001842345394760294563_" d="M40.8,21.9c-1.8,0-3.6,0.3-5.4,0.9
					c-5.3,1.8-9.6,7.8-9.6,13.2v12.4c0,1.4,1.2,2.6,2.7,2.6h12.7c6.1,0,11.6-3.7,13.6-9.3C58.5,31.5,50.8,21.9,40.8,21.9
					C40.8,21.9,40.8,21.9,40.8,21.9"/>
			</defs>
			<clipPath id="SVGID_00000035513493841236316440000006276039224454695863_">
				<use xlink:href="#SVGID_00000105386302526878062290000001842345394760294563_"  style="overflow:visible;"/>
			</clipPath>
			<path style="clip-path:url(#SVGID_00000035513493841236316440000006276039224454695863_);fill:#130C0E;" d="M54.8,41.7
				c-2,5.6-7.5,9.3-13.6,9.3H28.4c-1.5,0-2.7-1.2-2.7-2.6V36.1c0-5.4,4.3-11.4,9.6-13.2C47.8,18.6,59.2,29.7,54.8,41.7"/>
			<path style="clip-path:url(#SVGID_00000035513493841236316440000006276039224454695863_);fill:#F8C60B;" d="M19.8,61.3
				c-2.6,0-4.7-2-4.7-4.6c0-2.5,2.1-4.6,4.7-4.6c2.6,0,4.7,2,4.7,4.6C24.5,59.3,22.4,61.3,19.8,61.3 M19.8,56
				c-0.5,0-0.8,0.4-0.8,0.8c0,0.4,0.4,0.8,0.8,0.8s0.8-0.4,0.8-0.8C20.6,56.3,20.2,56,19.8,56"/>
			<path style="clip-path:url(#SVGID_00000035513493841236316440000006276039224454695863_);fill:#F0B438;" d="M19.8,69.5
				c-7.2,0-13.1-5.7-13.1-12.7s5.9-12.7,13.1-12.7s13.1,5.7,13.1,12.7S27,69.5,19.8,69.5 M19.8,47.8c-5.1,0-9.2,4-9.2,9
				c0,4.9,4.1,9,9.2,9s9.2-4,9.2-9C29,51.9,24.9,47.8,19.8,47.8"/>
			<path style="clip-path:url(#SVGID_00000035513493841236316440000006276039224454695863_);fill:#F0B438;" d="M19.8,77.6
				c-11.8,0-21.5-9.4-21.5-20.8s9.6-20.8,21.5-20.8s21.5,9.4,21.5,20.8S31.6,77.6,19.8,77.6 M19.8,39.7c-9.7,0-17.6,7.7-17.6,17.1
				s7.9,17.1,17.6,17.1s17.6-7.7,17.6-17.1S29.5,39.7,19.8,39.7"/>
			<path style="clip-path:url(#SVGID_00000035513493841236316440000006276039224454695863_);fill:#F0B438;" d="M19.8,85.8
				c-8,0-15.5-3-21.1-8.5c-5.6-5.5-8.7-12.8-8.7-20.5s3.1-15,8.7-20.5c5.6-5.5,13.1-8.5,21.1-8.5s15.5,3,21.1,8.5
				c5.6,5.5,8.7,12.8,8.7,20.5s-3.1,15-8.7,20.5C35.3,82.8,27.8,85.8,19.8,85.8 M19.8,31.5c-14.3,0-26,11.3-26,25.2S5.4,82,19.8,82
				c14.3,0,26-11.3,26-25.2S34.1,31.5,19.8,31.5"/>
		</g>
		<g>
			<path class="st9" d="M17.2,80.5c-0.5,0-1-0.1-1.5-0.3c-1.6-0.6-2.7-2.2-2.7-4V36.9C13,21.8,25.5,9.5,40.8,9.5l0.2,0
				c15.1,0.1,27.5,12.1,27.6,26.8c0,7-2.7,13.6-7.8,18.7c-5.3,5.4-12.8,8.4-20.5,8.4h-8.8c-0.9,0-1.8,0.5-2.3,1.3l-8.3,13.8
				C20.1,79.7,18.7,80.5,17.2,80.5 M40.8,17.7c-0.2,0-0.4,0-0.6,0c-10.3,0.3-18.8,8.8-18.8,19v24.4l2.4-4c0.8-1.3,2.2-2,3.6-2h12.9
				C51,55.2,59.8,47,60.1,37c0.1-5-1.7-9.7-5.2-13.4C51.1,19.8,46.1,17.7,40.8,17.7"/>
			<path class="st5" d="M40.8,10.3h0.1c14.8,0.1,26.7,11.7,26.8,26c0.1,14.6-12.4,26.3-27.5,26.3h-8.8c-1.2,0-2.4,0.6-3,1.7
				l-8.3,13.8c-0.6,1-1.8,1.7-3,1.7c-0.4,0-0.9-0.1-1.3-0.2c-1.3-0.5-2.2-1.8-2.2-3.2V36.9C13.8,22.4,25.8,10.3,40.8,10.3
				 M20.7,64.1l3.9-6.4c0.6-1,1.7-1.7,3-1.7h12.9c10.9,0,20.1-8.3,20.4-19C61.2,26,52,17,40.8,17c-0.2,0-0.4,0-0.6,0
				c-10.9,0.3-19.5,9.2-19.5,19.8V64.1 M40.8,8.7L40.8,8.7C25,8.7,12.2,21.4,12.2,36.9v39.3c0,2.1,1.3,4,3.2,4.7
				c0.6,0.2,1.2,0.3,1.8,0.3c1.8,0,3.4-0.9,4.3-2.4l8.3-13.8c0.3-0.6,1-0.9,1.6-0.9h8.8c7.9,0,15.6-3.2,21-8.7
				c5.2-5.2,8-12.1,8-19.2C69.2,21.2,56.5,8.8,40.9,8.7H40.8z M22.2,58.4V36.8c0-4.7,1.9-9.2,5.2-12.7c3.4-3.5,7.9-5.4,12.8-5.6
				c0.2,0,0.4,0,0.5,0c5.2,0,9.9,2,13.5,5.7c3.4,3.5,5.2,8,5,12.8c-0.1,4.7-2.2,9.1-5.7,12.3c-3.6,3.3-8.2,5.1-13.1,5.1H27.5
				c-1.8,0-3.4,0.9-4.3,2.4L22.2,58.4z"/>
			<path class="st5" d="M39.7,28.9c0-0.9,0.3-1.6,0.9-2.2c0.6-0.6,1.4-0.9,2.3-0.9s1.7,0.3,2.3,0.9c0.6,0.6,0.9,1.4,0.9,2.2
				c0,0.9-0.3,1.6-0.9,2.2c-0.6,0.6-1.4,0.9-2.3,0.9s-1.7-0.3-2.3-0.9C40,30.5,39.7,29.8,39.7,28.9"/>
		</g>
	</g>
</g>
<g id="Layer_2" class="st16">
</g>
</svg>
