<?xml version="1.0" encoding="utf-8"?>
<!-- Generator: Adobe Illustrator 27.1.1, SVG Export Plug-In . SVG Version: 6.00 Build 0)  -->
<svg version="1.1" xmlns="http://www.w3.org/2000/svg" xmlns:xlink="http://www.w3.org/1999/xlink" x="0px" y="0px"
	 viewBox="0 0 81.5 90" style="enable-background:new 0 0 81.5 90;" xml:space="preserve">
<style type="text/css">
	.st0{clip-path:url(#SVGID_00000119109795238394439950000015186940701417028492_);fill:#FFCA05;}
	.st1{clip-path:url(#SVGID_00000131365310226128371130000009257040547912861059_);fill:#FFCA05;}
	.st2{clip-path:url(#SVGID_00000143600603668756929090000004317665226290790826_);fill:#FFCA05;}
	.st3{fill-rule:evenodd;clip-rule:evenodd;fill:#FFC900;}
	.st4{fill-rule:evenodd;clip-rule:evenodd;fill:#3C3C3B;}
	.st5{fill:#FFFFFF;}
	.st6{fill:#F0B438;}
	.st7{clip-path:url(#SVGID_00000106827558854548284820000001847239556532773292_);fill:#130C0E;}
	.st8{clip-path:url(#SVGID_00000106827558854548284820000001847239556532773292_);fill:#F8C60B;}
	.st9{fill:#130C0E;}
	.st10{clip-path:url(#SVGID_00000174591429460771749390000015236107057048931491_);fill:#130C0E;}
	.st11{clip-path:url(#SVGID_00000174591429460771749390000015236107057048931491_);fill:#F8C60B;}
	.st12{clip-path:url(#SVGID_00000174591429460771749390000015236107057048931491_);fill:#F0B438;}
	.st13{fill:#F6C22B;}
	.st14{fill:#0D1216;}
	.st15{clip-path:url(#SVGID_00000119078689306558329480000005405959083008829585_);}
	.st16{display:none;}
	.st17{display:inline;}
	.st18{fill-rule:evenodd;clip-rule:evenodd;fill:none;stroke:#FF0000;stroke-miterlimit:10;}
	.st19{display:inline;fill:none;stroke:#32FF00;stroke-miterlimit:10;}
	.st20{display:inline;fill:#FBC7D5;}
</style>
<g id="Layer_1">
	<g>
		<polygon class="st13" points="40.8,84.9 5.5,65 5.5,25.1 40.8,5.1 76,25.1 76,65 		"/>
		<polygon class="st14" points="60.5,40.4 60.5,34.9 50.4,29.1 50.4,34.5 		"/>
		<polygon class="st14" points="50.4,38.2 50.4,40.7 50.4,42.9 60.5,48.7 60.5,46.5 60.5,44.1 		"/>
		<polygon class="st14" points="50.4,46.6 50.4,52.3 40.3,46.5 30.2,52.3 30.2,40.7 30.2,29.1 20.1,34.9 20.1,46.5 20.1,58.1 
			30.2,64 40.3,58.1 50.4,64 60.5,58.1 60.5,52.4 		"/>
		<path class="st14" d="M40.8,79.5L10.3,62.3V27.7l30.5-17.2l30.5,17.2v34.5L40.8,79.5z M14.2,60l26.5,15l26.5-15V30L40.8,15
			L14.2,30V60z"/>
	</g>
</g>
<g id="Layer_2" class="st16">
</g>
</svg>
