<?xml version="1.0" encoding="utf-8"?>
<!-- Generator: Adobe Illustrator 27.1.1, SVG Export Plug-In . SVG Version: 6.00 Build 0)  -->
<svg version="1.1" xmlns="http://www.w3.org/2000/svg" xmlns:xlink="http://www.w3.org/1999/xlink" x="0px" y="0px"
	 viewBox="0 0 81.5 90" style="enable-background:new 0 0 81.5 90;" xml:space="preserve">
<style type="text/css">
	.st0{clip-path:url(#SVGID_00000088113538794066256770000004126220603411093395_);fill:#FFCA05;}
	.st1{clip-path:url(#SVGID_00000029750743752367131390000008276408912759939728_);fill:#FFCA05;}
	.st2{clip-path:url(#SVGID_00000064355123159203614780000015478008603977178248_);fill:#FFCA05;}
	.st3{fill-rule:evenodd;clip-rule:evenodd;fill:#FFC900;}
	.st4{fill-rule:evenodd;clip-rule:evenodd;fill:#3C3C3B;}
	.st5{fill:#FFFFFF;}
	.st6{fill:#F0B438;}
	.st7{clip-path:url(#SVGID_00000089538553498418629000000002385869018116552586_);fill:#130C0E;}
	.st8{clip-path:url(#SVGID_00000089538553498418629000000002385869018116552586_);fill:#F8C60B;}
	.st9{fill:#130C0E;}
	.st10{clip-path:url(#SVGID_00000052077894691601805870000017239306032000676264_);fill:#130C0E;}
	.st11{clip-path:url(#SVGID_00000052077894691601805870000017239306032000676264_);fill:#F8C60B;}
	.st12{clip-path:url(#SVGID_00000052077894691601805870000017239306032000676264_);fill:#F0B438;}
	.st13{fill:#F6C22B;}
	.st14{fill:#0D1216;}
	.st15{clip-path:url(#SVGID_00000008135703392058572860000010491069733485646511_);}
	.st16{display:none;}
	.st17{display:inline;}
	.st18{fill-rule:evenodd;clip-rule:evenodd;fill:none;stroke:#FF0000;stroke-miterlimit:10;}
	.st19{display:inline;fill:none;stroke:#32FF00;stroke-miterlimit:10;}
	.st20{display:inline;fill:#FBC7D5;}
</style>
<g id="Layer_1">
	<g>
		<g>
			<g>
				<path class="st5" d="M37.7,51.6c-1-1.9-6.8-12.3-11.8-21.4c-4.8-8.7-14.4-13.6-24.3-12.5l0,0l29.2,54.7l11.3-18.3
					C42.1,54.2,39.6,55.2,37.7,51.6z"/>
				<path class="st6" d="M66.4,51.6c-1-1.9-6.8-12.3-11.8-21.4c-4.8-8.7-14.4-13.6-24.3-12.5L60,71.6l10.8-17.4
					C70.8,54.2,68.3,55.2,66.4,51.6z"/>
			</g>
			<path class="st5" d="M60.9,18.2c2.5,1.4,4.2,3.6,4.2,3.6h12.6l2.2-3.6H60.9z"/>
			<polygon class="st5" points="71.1,32.6 73.3,29 69.1,29 			"/>
			<polygon class="st5" points="68.1,27.1 74.4,27.1 76.6,23.7 66.1,23.7 			"/>
		</g>
	</g>
</g>
<g id="Layer_2" class="st16">
</g>
</svg>
