<?xml version="1.0" encoding="utf-8"?>
<!-- Generator: Adobe Illustrator 27.1.1, SVG Export Plug-In . SVG Version: 6.00 Build 0)  -->
<svg version="1.1" xmlns="http://www.w3.org/2000/svg" xmlns:xlink="http://www.w3.org/1999/xlink" x="0px" y="0px"
	 viewBox="0 0 81.5 90" style="enable-background:new 0 0 81.5 90;" xml:space="preserve">
<style type="text/css">
	.st0{clip-path:url(#SVGID_00000110459740750841419840000014012671196195395726_);fill:#FFCA05;}
	.st1{clip-path:url(#SVGID_00000151512497447909978080000013274966966581667984_);fill:#FFCA05;}
	.st2{clip-path:url(#SVGID_00000010290975494002222140000013910245071800895112_);fill:#FFCA05;}
	.st3{fill-rule:evenodd;clip-rule:evenodd;fill:#FFC900;}
	.st4{fill-rule:evenodd;clip-rule:evenodd;fill:#3C3C3B;}
	.st5{fill:#FFFFFF;}
	.st6{fill:#F0B438;}
	.st7{clip-path:url(#SVGID_00000070827260347731656240000009693269637993453756_);fill:#130C0E;}
	.st8{clip-path:url(#SVGID_00000070827260347731656240000009693269637993453756_);fill:#F8C60B;}
	.st9{fill:#130C0E;}
	.st10{clip-path:url(#SVGID_00000175301850652996893390000011052707347432267666_);fill:#130C0E;}
	.st11{clip-path:url(#SVGID_00000175301850652996893390000011052707347432267666_);fill:#F8C60B;}
	.st12{clip-path:url(#SVGID_00000175301850652996893390000011052707347432267666_);fill:#F0B438;}
	.st13{fill:#F6C22B;}
	.st14{fill:#0D1216;}
	.st15{clip-path:url(#SVGID_00000084530049836881118540000011299680023297487010_);}
	.st16{display:none;}
	.st17{display:inline;}
	.st18{fill-rule:evenodd;clip-rule:evenodd;fill:none;stroke:#FF0000;stroke-miterlimit:10;}
	.st19{display:inline;fill:none;stroke:#32FF00;stroke-miterlimit:10;}
	.st20{display:inline;fill:#FBC7D5;}
</style>
<g id="Layer_1">
	<g>
		<polygon class="st3" points="18.3,54.8 0.5,44.6 0.5,18.7 22.9,5.8 40.8,16 58.6,5.8 81,18.7 81,44.6 63.2,54.8 63.2,71.3 
			40.8,84.2 18.3,71.3 		"/>
		<path class="st4" d="M40.8,23.8l7.6,4.4l7.6,4.4v8.8V50l-7.6,4.4l-7.6,4.4l-7.6-4.4L25.6,50v-8.8v-8.8l7.6-4.4L40.8,23.8z
			 M40.8,37.3l-1.7,1l-1.7,1v2v2l1.7,1l1.7,1l1.7-1l1.7-1v-2v-2l-1.7-1L40.8,37.3z M58.6,14.1L51,18.5l-7.6,4.4l4.5,2.6l5.4-3.1
			l5.4-3.1l5.4,3.1l5.4,3.1v6.2v6.2l-5.4,3.1L58.6,44v5.2l7.6-4.4l7.6-4.4v-8.8v-8.8l-7.6-4.4L58.6,14.1z M56,60v7.1l-7.6,4.4
			l-7.6,4.4l-7.6-4.4l-7.6-4.4v-7.4l4.5,2.8v2l5.4,3.1l5.4,3.1l5.4-3.1l5.4-3.1v-2L56,60z M56,51.5L51.5,54v2l-5.4,3.1l-5.4,3.1
			l-5.4-3.1L30.1,56v-2l-4.5-2.8v7.4l7.6,4.4l7.6,4.4l7.6-4.4l7.6-4.4V51.5z M22.9,14.1l-7.6,4.4l-7.6,4.4v8.8v8.8l7.6,4.4l7.6,4.4
			V44l-5.4-3.1l-5.4-3.1v-6.2v-6.2l5.4-3.1l5.4-3.1l5.4,3.1l5.4,3.1l4.5-2.6l-7.6-4.4L22.9,14.1z M40.8,28.9L35.4,32l-5.4,3.1v6.2
			v6.2l5.4,3.1l5.4,3.1l5.4-3.1l5.4-3.1v-6.2v-6.2L46.1,32L40.8,28.9z"/>
	</g>
</g>
<g id="Layer_2" class="st16">
</g>
</svg>
