<?xml version="1.0" encoding="utf-8"?>
<!-- Generator: Adobe Illustrator 27.1.1, SVG Export Plug-In . SVG Version: 6.00 Build 0)  -->
<svg version="1.1" xmlns="http://www.w3.org/2000/svg" xmlns:xlink="http://www.w3.org/1999/xlink" x="0px" y="0px"
	 viewBox="0 0 81.5 90" style="enable-background:new 0 0 81.5 90;" xml:space="preserve">
<style type="text/css">
	.st0{clip-path:url(#SVGID_00000128476925163143361730000001043543300736651178_);fill:#FFCA05;}
	.st1{clip-path:url(#SVGID_00000090268976804290854130000014859157247713740187_);fill:#FFCA05;}
	.st2{clip-path:url(#SVGID_00000122698760419648022200000008596477400391779720_);fill:#FFCA05;}
	.st3{fill-rule:evenodd;clip-rule:evenodd;fill:#FFC900;}
	.st4{fill-rule:evenodd;clip-rule:evenodd;fill:#3C3C3B;}
	.st5{fill:#FFFFFF;}
	.st6{fill:#F0B438;}
	.st7{clip-path:url(#SVGID_00000023988917980718972570000000686415582477638550_);fill:#130C0E;}
	.st8{clip-path:url(#SVGID_00000023988917980718972570000000686415582477638550_);fill:#F8C60B;}
	.st9{fill:#130C0E;}
	.st10{clip-path:url(#SVGID_00000145033871606150360580000009241753529671558788_);fill:#130C0E;}
	.st11{clip-path:url(#SVGID_00000145033871606150360580000009241753529671558788_);fill:#F8C60B;}
	.st12{clip-path:url(#SVGID_00000145033871606150360580000009241753529671558788_);fill:#F0B438;}
	.st13{fill:#F6C22B;}
	.st14{fill:#0D1216;}
	.st15{clip-path:url(#SVGID_00000147209205926073478570000007553716323214566048_);}
	.st16{display:none;}
	.st17{display:inline;}
	.st18{fill-rule:evenodd;clip-rule:evenodd;fill:none;stroke:#FF0000;stroke-miterlimit:10;}
	.st19{display:inline;fill:none;stroke:#32FF00;stroke-miterlimit:10;}
	.st20{display:inline;fill:#FBC7D5;}
</style>
<g id="Layer_1">
	<g>
		<defs>
			<rect id="SVGID_00000124159812620186871190000002536357427968992676_" x="3.9" y="2.7" width="73.8" height="84.6"/>
		</defs>
		<clipPath id="SVGID_00000176034173459233517560000015507627342247872180_">
			<use xlink:href="#SVGID_00000124159812620186871190000002536357427968992676_"  style="overflow:visible;"/>
		</clipPath>
		<path style="clip-path:url(#SVGID_00000176034173459233517560000015507627342247872180_);fill:#FFCA05;" d="M7.9,64l32.9,19
			l32.9-19V26L40.8,7L7.9,26V64z M40.8,87.3c-0.3,0-0.7-0.1-1-0.3L4.9,66.9c-0.6-0.4-1-1-1-1.7V24.9c0-0.7,0.4-1.4,1-1.7L39.8,3
			c0.6-0.4,1.4-0.4,2,0l34.9,20.2c0.6,0.4,1,1,1,1.7v40.3c0,0.7-0.4,1.4-1,1.7L41.8,87.1C41.5,87.2,41.1,87.3,40.8,87.3"/>
		<path style="clip-path:url(#SVGID_00000176034173459233517560000015507627342247872180_);fill:#FFCA05;" d="M50.5,32.1
			c0,5.3-4.3,9.6-9.6,9.6s-9.6-4.3-9.6-9.6s4.3-9.6,9.6-9.6S50.5,26.8,50.5,32.1"/>
		<path style="clip-path:url(#SVGID_00000176034173459233517560000015507627342247872180_);fill:#FFCA05;" d="M44.4,48.3L42.9,51
			h-4.1l-1.5-2.7c-0.2-0.3,0-0.6,0.4-0.6H44C44.3,47.7,44.5,48,44.4,48.3 M40.9,71.4l-3.3-3.2l1.3-15.7h4.1l1.3,15.7L40.9,71.4z
			 M46.7,44.7H34.8c-6.2,0-11.1,5-11.1,11.1v10.4l17.2,10.2l17-10.2V55.8C57.9,49.6,52.9,44.7,46.7,44.7"/>
	</g>
</g>
<g id="Layer_2" class="st16">
</g>
</svg>
