<?xml version="1.0" encoding="utf-8"?>
<!-- Generator: Adobe Illustrator 27.1.1, SVG Export Plug-In . SVG Version: 6.00 Build 0)  -->
<svg version="1.1" xmlns="http://www.w3.org/2000/svg" xmlns:xlink="http://www.w3.org/1999/xlink" x="0px" y="0px"
	 viewBox="0 0 81.5 90" style="enable-background:new 0 0 81.5 90;" xml:space="preserve">
<style type="text/css">
	.st0{clip-path:url(#SVGID_00000088853992029420137370000014349072932238218681_);fill:#FFCA05;}
	.st1{clip-path:url(#SVGID_00000121978028853684441420000007632587735615668117_);fill:#FFCA05;}
	.st2{clip-path:url(#SVGID_00000100347792352416550090000006889641759984410298_);fill:#FFCA05;}
	.st3{fill-rule:evenodd;clip-rule:evenodd;fill:#FFC900;}
	.st4{fill-rule:evenodd;clip-rule:evenodd;fill:#3C3C3B;}
	.st5{fill:#FFFFFF;}
	.st6{fill:#F0B438;}
	.st7{clip-path:url(#SVGID_00000147909014332302232480000001557811837919625137_);fill:#130C0E;}
	.st8{clip-path:url(#SVGID_00000147909014332302232480000001557811837919625137_);fill:#F8C60B;}
	.st9{fill:#130C0E;}
	.st10{clip-path:url(#SVGID_00000160901544647866652640000005623227738163926164_);fill:#130C0E;}
	.st11{clip-path:url(#SVGID_00000160901544647866652640000005623227738163926164_);fill:#F8C60B;}
	.st12{clip-path:url(#SVGID_00000160901544647866652640000005623227738163926164_);fill:#F0B438;}
	.st13{fill:#F6C22B;}
	.st14{fill:#0D1216;}
	.st15{clip-path:url(#SVGID_00000153703410433908861340000010872848878056768176_);}
	.st16{display:none;}
	.st17{display:inline;}
	.st18{fill-rule:evenodd;clip-rule:evenodd;fill:none;stroke:#FF0000;stroke-miterlimit:10;}
	.st19{display:inline;fill:none;stroke:#32FF00;stroke-miterlimit:10;}
	.st20{display:inline;fill:#FBC7D5;}
</style>
<g id="Layer_1">
	<g>
		<path d="M48.9,39.1c-0.7-0.2-1.5-0.3-2.2-0.5c0,0-2.6-0.4-5.8-0.5c-5.4-0.4-8.6-3.5-8.1-6.3c0.5-2.8,4.8-5.9,10.3-6.3
			c0.4,0,0.7,0,1.1,0c0.4,0,0.8,0,1.1,0c0.1,0,0.2,0,0.3,0c0.3,0,0.5,0.1,0.8,0.1c0.1,0,0.2,0,0.3,0.1c0.2,0,0.5,0.1,0.7,0.1
			c0.1,0,0.2,0,0.3,0.1c0.3,0.1,0.5,0.1,0.8,0.2c0,0,0.1,0,0.1,0c0.6,0.2,1.2,0.5,1.7,0.8c0,0,0,0,0,0c0.2,0.1,0.5,0.3,0.7,0.4
			c0,0,0.1,0,0.1,0.1c0.2,0.1,0.4,0.3,0.5,0.4c0,0,0,0,0.1,0l-2,4l6.8-1.5l10.8-2.2c0-0.1,0-0.1,0-0.2h0c0,0,0-0.1,0-0.1
			c0-0.3-0.1-0.7-0.1-1c0-0.1,0-0.2,0-0.2c-0.1-0.4-0.1-0.8-0.2-1.1c0,0,0,0,0,0c0,0,0,0,0-0.1c-1.5-6.5-7-11.3-14.7-13
			c0,0-0.1,0-0.1,0c-0.5-0.1-1.1-0.2-1.7-0.3c-0.1,0-0.1,0-0.2,0c-0.6-0.1-1.1-0.1-1.7-0.2c-0.1,0-0.1,0-0.2,0
			c-0.6,0-1.2-0.1-1.8-0.1c-2.5,0-4.9,0.3-7.3,0.9c-10.2,2.5-18.6,10.1-20.2,19.1c-1.6,8.9,4.2,16.5,13.5,19.1
			c2.4,0.5,6.1,0.7,8.1,0.9c5.4,0.4,8.6,3.5,8.1,6.3c-0.5,2.8-4.8,5.9-10.3,6.3c-0.4,0-0.7,0-1.1,0c-0.4,0-0.8,0-1.1,0
			c-0.1,0-0.2,0-0.3,0c-0.3,0-0.5-0.1-0.8-0.1c-0.1,0-0.2,0-0.3-0.1c-0.2,0-0.5-0.1-0.7-0.1c-0.1,0-0.2,0-0.3-0.1
			c-0.3-0.1-0.5-0.1-0.8-0.2c0,0-0.1,0-0.1,0c-0.6-0.2-1.2-0.5-1.7-0.8c0,0,0,0,0,0c-0.2-0.1-0.5-0.3-0.7-0.4c0,0-0.1,0-0.1-0.1
			c-0.2-0.1-0.4-0.3-0.5-0.4c0,0,0,0-0.1,0l2.1-4L25,59.5l-10.8,2.2c0,0.1,0,0.1,0,0.2h0c0,0.1,0,0.1,0,0.1c0,0.3,0.1,0.7,0.1,1
			c0,0.1,0,0.2,0,0.2c0.1,0.4,0.1,0.8,0.2,1.1c0,0,0,0,0,0c0,0,0,0,0,0.1c1.5,6.5,7,11.3,14.6,13c0,0,0.1,0,0.1,0
			c0.5,0.1,1.1,0.2,1.7,0.3c0.1,0,0.1,0,0.2,0c0.6,0.1,1.1,0.1,1.7,0.2c0.1,0,0.1,0,0.2,0c0.6,0,1.2,0.1,1.8,0.1
			c2.5,0,4.9-0.3,7.3-0.9c10.2-2.5,18.6-10.1,20.2-19.1C64,49.2,58.2,41.6,48.9,39.1"/>
		<path class="st5" d="M23.9,72.7c-0.1,0-0.3,0-0.4-0.1c-0.3-0.2-0.3-0.6-0.2-0.8l12.5-21.9l-4.9-2.8c-0.2-0.1-0.3-0.3-0.3-0.5
			c0-0.2,0-0.4,0.2-0.5l26.4-28.3c0.1-0.1,0.3-0.2,0.5-0.2c0.1,0,0.3,0,0.4,0.1c0.3,0.2,0.3,0.6,0.2,0.8L45.7,40.4l4.9,2.8
			c0.2,0.1,0.3,0.3,0.3,0.5c0,0.2,0,0.4-0.2,0.5L24.4,72.5C24.2,72.6,24.1,72.7,23.9,72.7"/>
	</g>
</g>
<g id="Layer_2" class="st16">
</g>
</svg>
