<?xml version="1.0" encoding="utf-8"?>
<!-- Generator: Adobe Illustrator 27.1.1, SVG Export Plug-In . SVG Version: 6.00 Build 0)  -->
<svg version="1.1" xmlns="http://www.w3.org/2000/svg" xmlns:xlink="http://www.w3.org/1999/xlink" x="0px" y="0px"
	 viewBox="0 0 81.5 90" style="enable-background:new 0 0 81.5 90;" xml:space="preserve">
<style type="text/css">
	.st0{clip-path:url(#SVGID_00000011748532955824172670000006784320537813280687_);fill:#FFCA05;}
	.st1{clip-path:url(#SVGID_00000154406938703755456400000016601789822478981305_);fill:#FFCA05;}
	.st2{clip-path:url(#SVGID_00000142891317804604167100000004965785023151466634_);fill:#FFCA05;}
	.st3{fill-rule:evenodd;clip-rule:evenodd;fill:#FFC900;}
	.st4{fill-rule:evenodd;clip-rule:evenodd;fill:#3C3C3B;}
	.st5{fill:#FFFFFF;}
	.st6{fill:#F0B438;}
	.st7{clip-path:url(#SVGID_00000172430250583905325420000007362623108187906947_);fill:#130C0E;}
	.st8{clip-path:url(#SVGID_00000172430250583905325420000007362623108187906947_);fill:#F8C60B;}
	.st9{fill:#130C0E;}
	.st10{clip-path:url(#SVGID_00000179633623178384204820000014982225775006053788_);fill:#130C0E;}
	.st11{clip-path:url(#SVGID_00000179633623178384204820000014982225775006053788_);fill:#F8C60B;}
	.st12{clip-path:url(#SVGID_00000179633623178384204820000014982225775006053788_);fill:#F0B438;}
	.st13{fill:#F6C22B;}
	.st14{fill:#0D1216;}
	.st15{clip-path:url(#SVGID_00000132803445633617227660000004997005180701696388_);}
	.st16{display:none;}
	.st17{display:inline;}
	.st18{fill-rule:evenodd;clip-rule:evenodd;fill:none;stroke:#FF0000;stroke-miterlimit:10;}
	.st19{display:inline;fill:none;stroke:#32FF00;stroke-miterlimit:10;}
	.st20{display:inline;fill:#FBC7D5;}
</style>
<g id="Layer_1">
	<g>
		<defs>
			<rect id="SVGID_00000011029132884183243370000016232645808275895723_" x="3.9" y="2.7" width="73.8" height="84.6"/>
		</defs>
		<clipPath id="SVGID_00000108267979681912682840000000495538665056955557_">
			<use xlink:href="#SVGID_00000011029132884183243370000016232645808275895723_"  style="overflow:visible;"/>
		</clipPath>
		<path style="clip-path:url(#SVGID_00000108267979681912682840000000495538665056955557_);fill:#FFCA05;" d="M7.9,64l32.9,19
			l32.9-19V26L40.8,7L7.9,26V64z M40.8,87.3c-0.3,0-0.7-0.1-1-0.3L4.9,66.9c-0.6-0.4-1-1-1-1.7V24.9c0-0.7,0.4-1.4,1-1.7L39.8,3
			c0.6-0.4,1.4-0.4,2,0l34.9,20.2c0.6,0.4,1,1,1,1.7v40.3c0,0.7-0.4,1.4-1,1.7L41.8,87.1C41.5,87.2,41.1,87.3,40.8,87.3"/>
		<path style="clip-path:url(#SVGID_00000108267979681912682840000000495538665056955557_);fill:#FFCA05;" d="M38.6,47.7
			c0,0,0.6-2.9-1.8-6.9C33.1,34.5,24,32.3,24,32.3s19.7,2.2,17.2,20.3c-0.5-0.3-1.1-0.4-1.8-0.4c-1.8,0-3.3,1.1-3.8,2.7
			c-0.3-0.1-0.6-0.1-1-0.1c-1.2,0-2.4,0.6-3.1,1.5c-0.2,0-0.5-0.1-0.7-0.1c-2.1,0-3.9,1.3-4.6,3.2c-0.5-0.2-1-0.3-1.5-0.3
			c-2.4,0-4.4,1.9-4.4,4.4c0,0.1,0,0.2,0,0.4c-0.9,0.5-1.5,1.4-1.6,2.4h40.6c-0.9-1.7-2.6-2.9-4.6-3.2c0,0,0-0.1,0-0.1
			c0-3.6-2.9-6.5-6.5-6.5c-1.2,0-2.3,0.3-3.2,0.9l-0.1-0.1c0,0-0.7-12.3,2.3-16.8c3.4-5,10.6-7.3,10.6-7.3s-3.9,2.2-8,6.7
			c-5.1,5.6,2.8,8.2,9,1.1c5.4-6.1,7.7-14.1,7.7-14.1c-18.4-3-23.2,15.3-23.2,15.3C40.1,21.8,15,27.7,15,27.7
			C21.3,52.3,38.6,47.7,38.6,47.7"/>
	</g>
</g>
<g id="Layer_2" class="st16">
</g>
</svg>
