<?xml version="1.0" encoding="utf-8"?>
<!-- Generator: Adobe Illustrator 27.1.1, SVG Export Plug-In . SVG Version: 6.00 Build 0)  -->
<svg version="1.1" id="Layer_1" xmlns="http://www.w3.org/2000/svg" xmlns:xlink="http://www.w3.org/1999/xlink" x="0px" y="0px"
	 viewBox="0 0 861.3 407.9" style="enable-background:new 0 0 861.3 407.9;" xml:space="preserve">
<style type="text/css">
	.st0{fill:#FFFFFF;}
	.st1{fill:#FCCA03;}
	.st2{fill:#1E1E1C;}
	.st3{fill:#FFCE05;}
	.st4{fill:#161413;}
	.st5{fill:#FFCC03;}
	.st6{fill:#020203;}
	.st7{fill:#FECA05;}
</style>
<g>
	<g>
		<path class="st0" d="M397,170.6c3.4,0,4.3-2,6.3-13.3c2.9,2.5,9.3,5,13.5,6c-4,16.6-8.7,21.2-20.3,21.2h-12.8
			c-14.6,0-17.4-4.6-15.5-18l2.4-17.3c-8.1,15.6-22.2,28.6-50.9,36.6c-1.1-4-4-9.9-7.1-13.3c21.8-5.3,33.3-13.5,40.1-23.3h-26.1
			l3.3-23.2l-1.9,1.3c-1.9-3.7-6.2-9.4-9.4-11.9c15.7-9.6,27.6-22.1,34.9-33.1l16.6,3.4c-0.9,1.3-1.9,2.5-2.8,3.8h19l2.6-0.7
			l10.1,7.1c-3.1,4.2-7.3,9.4-11.7,14.2h28.1l-5.5,39.1h-22.7l-2.4,17.1c-0.5,3.8,0,4.2,3.5,4.2H397z M359.6,135.3
			c1.2-3.6,2.1-7.4,3-11.2H346l-1.6,11.2H359.6z M356.7,102.3c-2.4,2.6-5,5.2-7.6,7.8h19.4c2.3-2.4,4.6-5.1,6.9-7.8H356.7z
			 M396.4,124h-17.1c-1,3.8-1.9,7.5-3.1,11.2h18.6L396.4,124z"/>
		<path class="st0" d="M530.9,119.9c0,0-0.7,4-0.9,5.6c-6.1,38.5-8.6,51.3-11.7,55.4c-2.4,3.4-4.9,4.4-7.8,5c-2.6,0.7-6,0.7-9.8,0.5
			c0.1-2.5-0.1-6.1-0.8-9l-2.6,0.8c0-0.5,0.1-1.2-0.1-1.9c-10.5,1.6-20.8,3-29.5,4.2l-0.5-10.8c4.3-0.3,9.6-0.8,15.3-1.3l0.9-6.4
			h-12.8l3.1-21.9c-0.7-0.9-1.6-1.9-2.4-2.9l-5,35.8c-0.7,5.3-2.1,8.9-5.8,11.1c-3.7,2.1-7.9,2.4-13.6,2.4c0.2-3.5-0.9-9.2-2.2-12.4
			c3.2,0.2,6.7,0.2,7.9,0.2c1.2-0.1,1.6-0.4,1.8-1.6l2.1-15.1h-16.1c-2.4,10.3-6,21.1-11.5,29c-1.8-1.9-6.5-5.1-9.1-6.2
			c7.9-11.5,10.7-27.9,12.4-40.1l2.7-19.1c-2.1-2.1-4.5-4.2-6.2-5.4c7.5-7.8,14.1-20.3,18.3-32.8l12.9,2.8c-0.9,2.3-1.7,4.6-2.7,6.9
			h5.7l2.6-0.8l7.2,5.5c-2.2,4.2-4.9,9-7.6,13.4h10l-2.2,16c3.6-3.4,7.1-7.4,9.9-11.7h-7l4-28.4h55.1l-4,28.4h-33.4
			c-0.9,1.5-1.9,3.2-2.8,4.7H530.9z M443.6,140.3c-0.3,1.9-0.5,3.9-0.9,6h3.1l0.9-6.8h-2.9L443.6,140.3z M445.3,128.6h2.9l0.9-6.4
			h-2.9L445.3,128.6z M451.8,104.1c-1.2,2.3-2.5,4.6-3.8,6.8h5.3c0.9-2,2-4.4,3-6.8H451.8z M458.1,146.3l0.9-6.8h-3.2l-0.9,6.8
			H458.1z M457.5,128.6h3.2l0.9-6.4h-3.2L457.5,128.6z M504.8,162.1c1,3.8,1.7,8.8,2,12.3c0.2-0.1,0.4-0.4,0.5-0.7
			c1.8-2.4,3.7-12.5,8.4-42.1h-30.2c-2.3,2.6-4.7,5-7.1,7.1h8.3l0.9-6h10.8l-0.9,6H511l-3.3,23.3h-13.5l-0.8,5.4l2.8-0.3
			c-0.1-1-0.3-1.8-0.5-2.7L504.8,162.1z M484.7,153.4l0.8-6h-2.7l-0.8,6H484.7z M489,104.3h3.4l0.9-6.6h-3.4L489,104.3z
			 M495.5,153.4h2.9l0.9-6h-2.9L495.5,153.4z M502.7,104.3h3.5l0.9-6.6h-3.5L502.7,104.3z M516.6,104.3h3.5l0.9-6.6h-3.5
			L516.6,104.3z"/>
		<path class="st0" d="M571,162.3c6.3-1,12.8-2,19.2-3.1l-0.9,14.1c-18.1,3.7-37.5,7.4-52.2,10.2l-2-16c5.4-0.7,12.3-1.6,19.8-2.7
			l3.3-23.2h-14.8l2.1-15.3h46.6l-2.1,15.3h-16L571,162.3z M612.7,116c-2.1,29.4,0.2,53.8,6.6,53.8c2,0,4-5.9,6.4-19.2
			c3.1,3.7,8.3,7.6,12.5,9.3c-5.4,21.8-11.3,26.6-22.7,26.6c-19.3,0-22.4-32.8-19.5-70.5h-53.4l2.2-15.5h52.6
			c0.7-5.7,1.4-11.4,2.2-17.1h17.1c-1,5.7-1.8,11.4-2.5,17.1H628c-2.5-3.2-6.1-6.8-9.2-9.4l11.7-8.6c4.1,3.2,9.6,7.9,12,11.4
			l-8.5,6.5h9.5l-2.2,15.5H612.7z"/>
		<path class="st0" d="M342.1,254.9c-2.7-2.6-7.1-6.5-11.2-9.7c-3.4,3.7-7.7,7.3-13.2,10.6h71.9l-6.6,46.9h-16.3l0.5-3.4h-41.9
			l-0.5,3.4h-15.6l6.4-45.7c-1.8,1-3.8,2-5.8,2.8c-1.6-3.2-5.4-7.9-8.6-10.5c10-3.6,15.9-8.1,19.5-12.6h-16.3l1.7-12.2h7.5
			c-2.7-1.9-6.1-3.9-8.2-5c6.4-5,11.6-13,14.7-21l13.5,2.8c-0.8,2-1.6,3.9-2.7,5.8h25.6l-1.7,12.1h-13.1l-0.6,4l-0.2,1.3h15.6
			l-1.7,12.2h-14.2c4.7,2.6,11.9,6.9,14.1,8.4L342.1,254.9z M326.1,224.5l0.2-1.5l0.5-3.8h-3.4c-1.5,2-3,3.7-4.6,5.3H326.1z
			 M368.8,287l0.6-3.9h-41.9l-0.6,3.9H368.8z M329.6,268.1l-0.5,3.7H371l0.5-3.7H329.6z M405.8,206.9l-6.1,43.6h-43.6l6.1-43.6
			H405.8z M388.2,220.7H375l-2.2,15.8h13.2L388.2,220.7z"/>
		<path class="st0" d="M455.6,289c-0.9,6.1-2.5,9.3-6.7,11.3c-4.2,2-9.2,2.2-15.8,2.2c-0.1-3.6-1.6-8.8-3-12.1
			c3.1,0.2,7.3,0.2,8.5,0.2c1.4,0,1.9-0.4,2.1-1.7l1-7.5c-4.9,3.4-9.8,6.8-14.4,9.8l-1.5-8.3c-2.5,7.5-5.9,14.9-10.7,20.5
			c-1.8-2.9-6.9-8.7-9.6-10.6c6.9-8.7,9.1-21,10.4-30.7l3.3-23.2h43.5L455.6,289z M461.5,207.5c2.9,8.1,6.9,19.1,8.6,25.7l-14.6,5.4
			c-0.4-1.9-0.8-4.1-1.5-6.5c-27,2.7-32,3.6-35.7,5.1c-0.3-3-1.8-10.1-2.9-14.1c2.1-0.5,4.3-2.2,6.9-4.6c2.4-2.3,10-10.6,15-19.2
			l15.4,4.5c-4.3,5.8-9.6,11.7-14.8,16.9l12.6-1.1c-0.9-2.7-1.8-5.3-2.5-7.7L461.5,207.5z M437.4,271.4c-1.4-2.3-4.4-5.9-7-8.9
			c-0.6,4.2-1.5,9.2-2.8,14.2c4.5-2,10-4.7,15.9-7.5l0.4-2.9L437.4,271.4z M431.8,252l-0.9,6.1l6.5-4.9c2.2,2.3,4.9,5.2,7.2,7.7
			l1.3-8.9H431.8z M491.9,288.5c3.2,0,4.2-1.7,6-10.9c2.8,2.4,8.8,4.8,12.9,5.7c-3.7,14.6-8.3,19-19.3,19h-13.4
			c-14.2,0-16.9-4.5-15-18.2l4.6-33h15.7l-1.4,9.7H508l-1.9,13.8h-25.9l-1.3,9.4c-0.6,4.1,0,4.6,3.7,4.6H491.9z M487.1,248.3
			c-15,0-18.2-5.4-16.2-19.4l4.1-29.1h15.7l-1.6,11.7h25.4l-1.9,13.4h-25.4l-0.6,4.4c-0.6,4-0.2,5.5,3,5.5h13.7
			c3.3,0,8.2-0.3,10.9-1c-0.4,4-0.6,9.8-0.6,13.4c-2.6,0.9-7.7,1.1-11.9,1.1H487.1z"/>
		<path class="st0" d="M559.8,210.6c-3.1,5.8-6.5,11.7-10.3,17.3L539,302.8h-14.4l7.3-51.7c-1.7,1.7-3.2,3.5-4.8,5
			c-0.8-3.9-3.5-12.7-5.5-16.7c10.2-9.6,20.8-24.5,27.8-39.5l13.6,4.7l-1.2,2.4h24.9c-0.4-1.6-0.9-3.3-1.3-4.7l15.1-3.9
			c1,2.6,2.1,5.8,2.8,8.6h25.8l-1.8,12.9h-68.8L559.8,210.6z M621.5,271.5H609l-1.1,7.6h-15.1l-1.2,8.8c-1,6.9-2.9,10.6-8.4,12.5
			c-5.4,2-11.9,2-19.9,2c-0.1-4.3-1.4-9.8-2.7-13.7c4.3,0.2,11,0.2,12.6,0.2c1.6,0,2.2-0.3,2.4-1.5l1.2-8.3h-17.3l1.1-7.7h-12.1
			l3-21h73.1L621.5,271.5z M560.7,247.4l3.5-24.6h56.3l-3.5,24.6H560.7z M563.1,262.7l-0.6,4.2h45.6l0.6-4.2H563.1z M576.4,237.2
			h26.8l0.6-4h-26.8L576.4,237.2z"/>
		<path class="st0" d="M728,289h-42.8l-1.9,13.8h-16.4l1.9-13.8h-41.3l2-14.3h41.3l0.6-4.1h-30.7l6.3-44.9h30.7l0.5-3.7h-39l2-14.3
			h39l1.2-8.4h16.4l-1.2,8.4h39.8l-2,14.3h-39.8l-0.5,3.7h31.4l-6.3,44.9h-31.4l-0.6,4.1H730L728,289z M673.1,258.1l0.6-4.1h-15.5
			l-0.6,4.1H673.1z M659.8,242.3h15.5l0.6-4h-15.5L659.8,242.3z M705.5,254h-15.4l-0.6,4.1h15.4L705.5,254z M692.3,238.3l-0.6,4
			h15.4l0.6-4H692.3z"/>
		<path class="st0" d="M801,256c-0.8,1.3-1.8,2.6-2.7,3.8h43.1c0,0-0.6,3.5-1.1,5.2c-4.3,20.6-7.3,29.5-10.7,32.9
			c-2.7,2.7-5.4,3.7-8.4,4.1c-2.7,0.4-6.7,0.5-11.3,0.4c0.2-3.2,0-7.4-1.1-10.6c-3.9,4.5-8.1,8.5-12.2,11.3c-2.3-2.9-6.4-6.5-10-8.7
			c8.5-4.8,16.7-13.4,22.6-22.4h-3.8c-7.3,9.9-18.8,20.5-28.7,26.3c-2.1-3.2-5.7-7-9-9.3c7.9-3.6,16.3-10,23.1-17H787
			c-4.1,3.7-8.5,7-12.9,9.6c-1.5-2-4.5-5.2-7-7.6c-9.1,4.4-18.3,8.6-26.2,12.2l-3.5-16c3.6-1.2,8.2-2.8,13.3-4.7l4-28.8h-10
			l2.1-14.9h10l2.9-20.9h14.7l-2.9,20.9h9.2l-2.1,14.9h-9.2l-3.2,22.8l7.7-3.1l1.1,9.5c3.8-2.9,7.4-6.3,10.5-10h-10.7l1.9-13.2h69.2
			l-1.9,13.2H801z M838.8,239.8H786l5.3-37.9h52.8L838.8,239.8z M826.2,225.8h-24.3l-0.5,3.3h24.3L826.2,225.8z M828,212.6h-24.3
			l-0.5,3.3h24.3L828,212.6z M822.6,272.1c-3.2,6.1-7.6,12.5-12.5,18.3c2.2,0.1,3.9,0.1,5,0.1c1.4,0,2.3-0.2,3.3-1.3
			c1.5-1.4,3.4-6.2,5.9-17.1H822.6z"/>
	</g>
	<g>
		<path class="st3" d="M276.3,105.9l-22.2,157.4c-3,21.5-24.5,39.1-47.9,39.1H78c-23.3,0-39.8-17.5-36.8-39.1L57.8,145
			c3-21.5,24.5-39.1,47.9-39.1H276.3z"/>
		<path class="st0" d="M108.9,82.8c-37.3,0-71.4,27.9-76.2,62.2L16.1,263.4c-4.8,34.3,21.4,62.2,58.7,62.2H203
			c37.3,0,71.4-27.9,76.2-62.2l25.4-180.6H108.9z M266.7,263.4c-4,27.9-31.8,50.6-62.1,50.6H76.4c-30.3,0-51.7-22.8-47.8-50.6
			L45.3,145c3.9-27.9,31.8-50.6,62-50.6h183.1L266.7,263.4z"/>
		<path class="st4" d="M107.3,94.4c-30.3,0-58.1,22.8-62,50.6L28.6,263.4C24.7,291.2,46.2,314,76.4,314h128.2
			c30.3,0,58.1-22.8,62.1-50.6l23.7-169H107.3z M254.1,263.4c-3,21.5-24.5,39.1-47.9,39.1H78c-23.3,0-39.8-17.5-36.8-39.1L57.8,145
			c3-21.5,24.5-39.1,47.9-39.1h170.6L254.1,263.4z"/>
		<path class="st4" d="M156.6,252.9c-9.9,0-14.7-2.6-15.3-10.9c-0.2-3.3-0.6-6.9-1.2-10.7h-34.1c-3.1,6.6-6.1,15.9-8,21.6H87
			c-8.7,0-12-4.5-11-11.2c1.9-13.2,27.7-63.5,47.2-80h10.6c9.6,0,15.3,4.5,17.9,9.5c7.4,14.5,17.2,50.6,17.3,81.7H156.6z M130,184.4
			c-5.4,7.5-11.2,18.2-15.3,27.2h22.6C135.8,202.6,133,191.7,130,184.4"/>
		<path class="st4" d="M204.4,176.1c-7.9,0-13.6-5.5-12.6-12.4c1-6.9,8.2-12.4,16.1-12.4c7.9,0,13.4,5.6,12.4,12.4
			C219.4,170.5,212.3,176.1,204.4,176.1 M206.4,253.9c-14.5,0-24.9-6.6-22.5-23.8l6.7-47.7h6.7c15.5,0,19.9,4.1,18.1,17.3l-3.8,26.7
			c-0.9,6.5,2.1,8.5,9.7,8.5h3.3l-1,7.4C222.4,251,214.8,253.9,206.4,253.9"/>
	</g>
</g>
</svg>
