<?xml version="1.0" encoding="utf-8"?>
<!-- Generator: Adobe Illustrator 27.1.1, SVG Export Plug-In . SVG Version: 6.00 Build 0)  -->
<svg version="1.1" id="Layer_1" xmlns="http://www.w3.org/2000/svg" xmlns:xlink="http://www.w3.org/1999/xlink" x="0px" y="0px"
	 viewBox="0 0 861.3 407.9" style="enable-background:new 0 0 861.3 407.9;" xml:space="preserve">
<style type="text/css">
	.st0{fill:#FFFFFF;}
	.st1{fill:#FCCA03;}
	.st2{fill:#1E1E1C;}
	.st3{fill:#FFCE05;}
	.st4{fill:#161413;}
	.st5{fill:#FFCC03;}
	.st6{fill:#020203;}
	.st7{fill:#FECA05;}
</style>
<g>
	<path class="st0" d="M111.4,233.3l48.4-4.2l-3.1,17.7L41.1,256.9l3.1-17.7l46.5-4.1l2.3-13.2l-33.2,2.9l3-17.2l33.2-2.9l2.2-12.8
		l-26.3,2.3l2.1-12.1c-6.2,4.1-12.4,7.8-18.3,10.9c-1.8-4.7-5.6-11.3-9.2-15.1c14.8-6.4,31.3-16.9,45.1-28.4l-14.1,1.2l3.2-18.4
		l49.5-4.3c8.2,15.5,26.3,30.3,48.7,36.5c-4.8,4.6-12.5,13.7-16.3,19.5c-5.3-2.2-10.3-4.9-15.1-7.9l-2,11.5l-26.5,2.3l-2.2,12.8
		l33.6-2.9l-3,17.2l-33.6,2.9L111.4,233.3z M116.2,147.5c-9.7,10-21.6,20-33.7,28.8l57.4-5c-9.4-7-17.3-15.4-23.6-23.7L116.2,147.5z
		"/>
	<path class="st0" d="M245.3,213.3l-0.9,5.4c-0.9,5.4,0,5.9,7.5,5.3l20.9-1.8c5.9-0.5,7.4-2.5,10.1-14c3.2,2.3,9.9,4.3,14.3,4.8
		c-5.3,18.2-10.9,23.5-25.7,24.8l-24.2,2.1c-18.2,1.6-22.7-2.6-19.8-19.5l3.7-21.4c-3.9,4-8,7.7-12.1,10.8c-1.4-2.7-3.8-6.3-6.4-9.3
		c-7.4,14.2-15.8,28.9-24,42.5l-15.3-9.7c7.4-10.9,18-28.1,26.9-44.5l8.8,6.7c9.4-6.4,18.8-16.1,25.7-26l-18.5,1.6l3.1-17.8
		l20.8-1.8l1.2-7.1l-15.8,1.4l2.3-13.4l-13.9,15.4c-3.9-3.9-12.7-9.6-19-13.3l14-14.9c5.7,3,14.3,7.8,19.1,11.3l0.5-2.7l15.8-1.4
		l2.2-12.9l19.1-1.7l-2.2,12.9l14.5-1.3l2.2-12.9l19.3-1.7l-2.2,12.9l15.9-1.4l-3.1,17.7l-15.9,1.4l-1.2,7.1l20.1-1.8l-3.1,17.8
		l-19.2,1.7c3.8,8.2,10.1,15.6,17.3,20c-5.1,4-12.7,11.8-16.5,17c-3.4-2.5-6.4-5.9-9.1-9.7l-3.2,18.7L245.3,213.3z M200.9,184.3
		c-4-3.8-13.1-9.4-19.6-12.9l13.6-15.2c6.3,3,15.8,7.7,20.4,11.2L200.9,184.3z M268.1,189.6l-18.9,1.7l-1.4,8.2l18.9-1.7
		L268.1,189.6z M254.4,167.7c-1.9,3.4-4,6.7-6.1,10l25.9-2.3c-1.1-3-2-6.2-2.8-9.2L254.4,167.7z M259.3,149.7l14.5-1.3l1.2-7.1
		l-14.5,1.3L259.3,149.7z"/>
	<path class="st5" d="M363.1,118.3l24.6-2.2l16.5,46.7l5.9,21.8l0.7-0.1c0.5-10.7,1.2-25.2,3.3-37.4l5.9-33.8l23-2l-17.7,102.1
		l-24.6,2.2l-16.3-47.1l-6-21.5l-0.7,0.1c-0.9,11.3-1.3,25.1-3.4,37.5l-5.9,33.9l-23,2L363.1,118.3z"/>
	<path class="st5" d="M452.9,160.2c5.8-33.5,27.7-54,55.2-56.4s42.8,15,37,48.4c-5.8,33.5-27.9,55.1-55.4,57.5
		C462.3,212.1,447.1,193.7,452.9,160.2z M520.5,154.3c3.4-19.8-2.8-30.7-16-29.5c-13.2,1.2-23.4,13.5-26.8,33.3
		c-3.5,19.9,2.5,31.7,15.7,30.5C506.6,187.4,517,174.2,520.5,154.3z"/>
	<path class="st5" d="M541.4,190.1c1.5-8.4,8.6-15.6,16.9-16.3c8.2-0.7,13.2,5.5,11.7,13.8c-1.5,8.5-8.7,15.8-17,16.5
		C544.7,204.9,539.9,198.7,541.4,190.1z"/>
	<path class="st5" d="M585.9,168.2l34.2-3l16.1-92.9L606.6,75l4.2-24.1c17.9-4.8,29.9-10.2,42.3-18.2l28.3-2.5l-22.9,131.7l29-2.5
		L682,191l-101.6,8.9L585.9,168.2z"/>
	<path class="st0" d="M699.6,30.3l2.1-3l-2.7-1.1l1-2.1l3,0.4l0.9-3.3l2.2-0.2l-0.2,3.3l3.3-1l0.3,2l-3.2,1.7l1.1,2.7l-2,1.4
		l-1.8-2.3l-2.6,2.7L699.6,30.3z"/>
	<path class="st0" d="M51.8,351.1c-7.5,12-15.7,24.4-23.9,35.9l-10.8-9.7c6.8-8.6,16.9-22.6,25.5-36L51.8,351.1z M39.2,339
		c-3.7-2.8-11.9-7.3-17.4-10.2l10.1-12.6c5.3,2.2,13.8,6.1,18.1,8.7L39.2,339z M50.2,308.4c-3.5-2.9-11.6-7.5-16.8-10.6l10.3-12.4
		c4.9,2.4,12.6,6.2,17,8.8L62,287l60.4-5.3l-7.3,42.1l-60.4,5.3l5.8-33.6L50.2,308.4z M77.2,362.4c-0.4,4-0.4,9.9-0.3,13.1
		c-22.6,7-27.4,9-30.6,11.1c0.2-4-0.4-11-1.9-14.2c2.4-1,4.3-2.3,5-6.3l6-34.4l15.5-1.4l-1.7,9.8l13-1.1L80,352.4l-13,1.1l-2.1,12.3
		L77.2,362.4z M72.4,316.1l28.3-2.5l0.7-3.8l-28.3,2.5L72.4,316.1z M75,301.2l28.3-2.5l0.7-3.8l-28.3,2.5L75,301.2z M101,368.2
		c1.9-0.2,2.7-1.9,4.7-11.5c2.5,2.1,8.4,3.9,12.2,4.6c-4,14.9-8.6,19.7-17.7,20.5l-8.6,0.8c-11.8,1-13.7-3.1-11.4-16.5l6.5-37.3
		l14.9-1.3l-1.8,10.4l18.8-1.6l-2.3,13.3L97.3,351L95,364.5c-0.7,3.8-0.5,4.3,1.5,4.1L101,368.2z"/>
	<path class="st0" d="M170.6,362c-1.1,6.1-2.8,9.4-7.1,11.9c-4.2,2.3-9.2,3-15.7,3.5c0-3.6-1.3-8.6-2.5-11.8
		c3.1-0.1,7.2-0.4,8.4-0.5c1.4-0.1,1.9-0.6,2.1-1.9l1.3-7.6c-5,3.8-9.9,7.6-14.7,11l-1.1-8.1c-2.7,7.7-6.4,15.4-11.4,21.3
		c-1.6-2.8-6.6-8.1-9.2-9.7c7.1-9.3,9.7-21.7,11.4-31.5l4.1-23.4l43.1-3.8L170.6,362z M179.3,280.3c2.6,7.8,6.2,18.4,7.6,24.8
		l-14.7,6.7c-0.3-1.8-0.7-4-1.2-6.4c-26.8,5.1-31.9,6.4-35.6,8.2c-0.2-3-1.5-9.9-2.4-13.7c2.1-0.7,4.4-2.5,7-5.1
		c2.5-2.5,10.3-11.4,15.6-20.4l15.1,3.1c-4.5,6.1-9.9,12.4-15.3,18.1l12.5-2.2c-0.8-2.6-1.6-5.2-2.2-7.5L179.3,280.3z M153.1,346
		c-1.3-2.2-4.2-5.5-6.7-8.3c-0.7,4.3-1.8,9.2-3.2,14.3c4.6-2.3,10.1-5.5,16-8.9l0.5-3L153.1,346z M148.3,327.1l-1.1,6.1l6.6-5.4
		c2.1,2.1,4.7,4.8,6.9,7.1l1.6-9L148.3,327.1z M206.7,358.3c3.1-0.3,4.2-2.1,6.3-11.4c2.7,2.1,8.6,4,12.6,4.5
		c-4.2,14.9-8.9,19.6-19.9,20.5l-13.3,1.2c-14.1,1.2-16.6-3-14.2-16.8l5.8-33.3l15.6-1.4l-1.7,9.8l25.7-2.3l-2.4,13.9l-25.7,2.3
		l-1.6,9.4c-0.7,4.2-0.2,4.6,3.5,4.2L206.7,358.3z M203.3,318.7c-14.9,1.3-17.9-3.8-15.4-17.9l5.1-29.3l15.6-1.4l-2,11.7l25.2-2.2
		l-2.3,13.5l-25.2,2.2l-0.8,4.4c-0.7,4.1-0.4,5.6,2.8,5.3l13.6-1.2c3.2-0.3,8.2-1,10.9-1.9c-0.5,4-1,9.8-1,13.4
		c-2.6,1.1-7.6,1.8-11.9,2.1L203.3,318.7z"/>
	<path class="st0" d="M330.7,347.9l-42.5,3.7l-2.4,13.9l-16.3,1.4l2.4-13.9l-41,3.6l2.5-14.4l41-3.6l0.7-4.2l-30.5,2.7l7.9-45.2
		l30.5-2.7l0.6-3.7l-38.7,3.4l2.5-14.4l38.7-3.4l1.5-8.5l16.3-1.4l-1.5,8.5l39.5-3.5l-2.5,14.4l-39.5,3.5l-0.6,3.7l31.1-2.7
		l-7.9,45.2l-31.1,2.7l-0.7,4.2l42.5-3.7L330.7,347.9z M277.3,321.9l0.7-4.2l-15.3,1.3l-0.7,4.2L277.3,321.9z M264.7,307.3L280,306
		l0.7-4.1l-15.3,1.3L264.7,307.3z M309.6,315l-15.2,1.3l-0.7,4.2l15.2-1.3L309.6,315z M297.1,300.5l-0.7,4.1l15.2-1.3l0.7-4.1
		L297.1,300.5z"/>
	<path class="st0" d="M386.7,298.5c-8.4,2.8-16.6,5.5-23.8,7.7l-1.5-8.2l-13.3,1.2l4.4-25.5l40.7-3.6l0.5-3l-35.9,3.1l1.8-10.2
		l87.1-7.6l-1.8,10.2l-35.9,3.1l-0.5,3l41.6-3.6l-4.4,25.5l-13.9,1.2l-3.5,8c-5.4-1.6-16.1-3.5-24-4.1l4.3-8.9c1,0,1.8,0.1,2.9,0.1
		l-2.9-5.6c2.8-0.8,6.3-2.1,9.8-3.4l-11.6,1l-3.8,21.6l-15.3,1.3l3.8-21.6l-11.8,1c3.3,0.5,6.5,1,8.6,1.7l-4.9,7.8l4.1-0.9
		L386.7,298.5z M420.8,340.6c5.2-0.5,6.5-2.1,8.7-10.5c2.8,1.9,8.2,3.4,12.1,3.8c-4,13.4-8.9,17.4-21.6,18.5l-21.4,1.9
		c-16,1.4-20.1-1.7-18.4-13.5l-14.5,1.3l-0.8,4.4l-15,1.3l7.1-41.1l76.3-6.7l-6.4,36.7l-31.7,2.8c-0.3,2.9,1.2,3.2,6.9,2.7
		L420.8,340.6z M363.6,295.2c5.1-1,11.4-2.4,18-4c-4.1-1-10.3-2.3-15.2-3l4.2-6.2l-4.8,0.4L363.6,295.2z M367.6,331.6l14.5-1.3
		l0.6-3.3l-14.5,1.3L367.6,331.6z M370.3,315.8l-0.6,3.4l14.5-1.3l0.6-3.4L370.3,315.8z M413.3,327.6l0.6-3.3l-16.2,1.4l-0.6,3.3
		L413.3,327.6z M416,311.8l-16.2,1.4l-0.6,3.4l16.2-1.4L416,311.8z M432.9,276.6l-4.3,0.4l2.9,4.8c-4.8,2.2-10.6,4.1-15.5,5.5
		c5.3,0.5,10.8,1.2,14.7,2.2L432.9,276.6z"/>
	<path class="st0" d="M448.9,339.5c6.5-8.7,16-22.5,24.1-35.8l10.4,8.9c-7,12-14.7,24.3-22.4,35.8L448.9,339.5z M469.2,299.7
		c-3.3-2.4-10.8-6.2-15.7-8.7l10.4-12.6c4.9,1.8,12.6,5.2,16.4,7.2L469.2,299.7z M481.5,269.3c-3.4-2.6-11-6.7-16-9.4l10.9-12.4
		c4.8,2.2,12.7,5.8,16.6,8.2L481.5,269.3z M526.7,329.6c6.2-0.5,7.8-3.2,10.9-15.4c3,2.1,8.8,4.1,12.7,4.6
		c-4.9,17.4-10.4,23.6-24.6,24.9l-22.3,1.9c-16.6,1.5-20.4-2.8-17.4-20l4.8-27.7l-7.3,3.3l-3.6-13.5l13.8-6.3l4.2-24.3l14.7-1.3
		l-3.2,18.3l8.5-3.9l4.8-27.6l13.9-1.2l-3.8,22l14-6.4l0.4-0.2l0.1,0l0.1,0l0,0.1l10.9,2.6l-1,2.5c-3.4,15.6-8.6,36.4-13.7,50.6
		l-12.2-2.5c2.7-8.8,5.9-22.1,8.5-34.9l-9.9,4.5l-6.7,38.4l-13.9,1.2l5.7-32.7l-8.5,3.9l-5.9,33.7c-1.2,6.8-0.5,7.6,6.4,7
		L526.7,329.6z"/>
	<path class="st0" d="M563.9,291.4l42.9-3.8l-8.7,50.2l-15.7,1.4l0.8-4.8l-12.4,1.1l-0.9,5.3l-14.8,1.3L563.9,291.4z M576.1,305.4
		l-2.6,14.8l12.4-1.1l2.6-14.8L576.1,305.4z M646,276.6l-66.4,5.8l7.2-41.7l66.4-5.8L646,276.6z M634.5,251.5l-35.1,3.1l-2,11.3
		l35.1-3.1L634.5,251.5z M658.5,283.2l-8.7,50.2l-15.8,1.4l0.8-4.8l-13.2,1.2l-0.9,5.3l-15,1.3l8.8-50.6L658.5,283.2z M637.5,314.6
		l2.6-14.8l-13.2,1.2l-2.6,14.8L637.5,314.6z"/>
	<path class="st0" d="M703.4,226.5l12.8-1.1l-7.2,41.4l-18.5,1.6l-0.4,2.2c-0.5,2.6-1,5.5-1.6,8.6l18.2-1.6l-9.1,52.2l-14.3,1.2
		l6.8-39l-4.5,0.4c-3.2,13.5-7.6,28-13.6,39.2c-3-1.1-9.2-2.7-13-3.2c9.1-16.5,14.5-41.8,17.1-56.7l7-40.4l14-1.2l-4.3,24.8l5.7-0.5
		L703.4,226.5z M765.1,303.8l-14.6,1.3l-3.5,20.1l-13.8,1.2l3.5-20.1l-33.6,2.9l2.4-13.9l9.5-0.8c-1.5-1.3-2.9-2.3-4.1-3.2
		c4.7-3,8.4-6.4,11.5-9.8l-12.4,1.1L718,236l14.8-1.3c2.4-3.7,4.9-8,6.4-11.4l16.9,0.8c-2.3,3.3-4.5,6.4-6.6,9.1l24.1-2.1l-8.1,46.5
		l-27.7,2.4c-2.9,4.5-6.6,9.1-11,13.3l12.2-1.1l1.8-10.4l13.8-1.2l-1.8,10.4l14.6-1.3L765.1,303.8z M731.2,268.5
		c1-1.9,1.7-3.7,2.2-5.3l-6.2,0.5l-0.9,5.2L731.2,268.5z M729.2,252.2l6.5-0.6l0.9-5l-6.5,0.6L729.2,252.2z M753.6,261.4l-6.7,0.6
		c-0.5,1.6-1.1,3.3-2,5.3l7.8-0.7L753.6,261.4z M756.5,244.9l-6.3,0.5l-0.9,5l6.3-0.5L756.5,244.9z"/>
	<path class="st0" d="M807.2,299.1c1.2-6.8,7.5-12.5,14.9-13.2c7.3-0.6,11.8,4.2,10.7,11c-1.2,7-7.5,12.5-14.9,13.2
		C810.5,310.7,806,306.1,807.2,299.1z M818.1,245.8l2.5-18.2l23.7-2.1l-3.8,18.3L830,279l-13.5,1.2L818.1,245.8z"/>
	<g>
		<path class="st0" d="M629.8,383.4l0.8-1.3l-1.4-0.6l0.2-0.6l1.4,0.3l0.1-1.5h0.7l0.1,1.5l1.4-0.3l0.2,0.6l-1.4,0.6l0.8,1.3
			l-0.5,0.4l-1-1.2l-1,1.2L629.8,383.4z"/>
		<path class="st0" d="M641,379.6c1.2,1.7,3.3,3.4,5.3,4.2c-0.2,0.2-0.5,0.6-0.6,0.8c-1.9-0.9-3.8-2.5-5.1-4.2
			c-1.3,1.6-3.4,3.3-5.1,4.2c-0.1-0.2-0.4-0.5-0.6-0.7c1.5-0.7,3.4-2.1,4.6-3.5h-2.2v-0.9H641z M640.9,389.4h4.9v0.8h-10.5v-0.8h4.7
			v-2.1h-3.5v-0.8h3.5v-1.9h-3v-0.8h7v0.8h-3.1v1.9h3.5v0.8h-3.5V389.4z"/>
		<path class="st0" d="M649.3,384.8c-0.4-0.4-1.3-0.9-2-1.2l0.5-0.7c0.7,0.3,1.6,0.8,2,1.1L649.3,384.8z M649.9,386.5
			c-0.4,1.2-1,2.7-1.6,3.7l-0.8-0.5c0.5-0.9,1.2-2.4,1.7-3.7L649.9,386.5z M649.8,381.5c-0.4-0.4-1.2-1-1.9-1.3l0.5-0.6
			c0.6,0.3,1.5,0.8,1.9,1.2L649.8,381.5z M652.8,388v1.2c0,0.4,0.1,0.5,0.9,0.5h2.8c0.6,0,0.7-0.2,0.8-1.4c0.2,0.1,0.5,0.3,0.8,0.3
			c-0.1,1.5-0.4,1.9-1.5,1.9h-2.9c-1.3,0-1.7-0.2-1.7-1.3v-3.4c-0.4,0.6-0.9,1.1-1.4,1.5c-0.2-0.2-0.4-0.5-0.6-0.7
			c0.9-0.6,1.8-1.7,2.4-2.8h-2.2v-0.8h2.2v-1.4h-1.7v-0.8h1.7v-1.4h0.9v1.4h2.4v-1.4h0.9v1.4h1.9v0.8h-1.9v1.4h2.2v0.8h-2.2
			c0.5,1,1.4,2,2.3,2.5c-0.2,0.2-0.5,0.5-0.7,0.7c-0.5-0.3-1-0.8-1.4-1.3v2.3H652.8z M653.2,383.8c-0.2,0.5-0.4,0.9-0.7,1.4h3.8
			c-0.3-0.4-0.6-0.9-0.8-1.4H653.2z M655.9,385.9h-3.1v1.4h3.1V385.9z M653.2,382.9h2.4v-1.4h-2.4V382.9z"/>
		<path class="st0" d="M661.7,380.9c-0.4,0.6-0.8,1.2-1.3,1.6c-0.1-0.2-0.4-0.5-0.6-0.6c0.8-0.7,1.5-1.7,1.9-2.7l0.8,0.2
			c-0.1,0.2-0.2,0.5-0.3,0.7h3.2v0.7H663c0.4,0.3,0.9,0.8,1.1,1.1l-0.6,0.5c-0.2-0.3-0.8-0.9-1.2-1.3l0.5-0.4H661.7z M670.4,386.6
			c0,0,0,0.2,0,0.4c-0.2,1.7-0.3,2.5-0.7,2.8c-0.2,0.2-0.4,0.3-0.8,0.3c-0.3,0-0.9,0-1.6,0c0-0.3-0.1-0.6-0.2-0.9
			c0.6,0.1,1.2,0.1,1.4,0.1c0.2,0,0.3,0,0.4-0.1c0.2-0.2,0.3-0.7,0.4-1.8h-3.6v3.2h-0.9v-2.9c-1.1,1.2-2.7,2.3-4.2,2.9
			c-0.1-0.2-0.4-0.6-0.6-0.7c1.4-0.5,3-1.4,4-2.5h-3.3c0.2-0.7,0.3-1.9,0.4-2.7h3.6v-1.1h-4v-0.8h9.1v2.7h-4.2v1.2H670.4z
			 M662.1,385.5c-0.1,0.4-0.1,0.8-0.2,1.2h3v-1.2H662.1z M671.1,380.2v0.7h-2.7c0.4,0.3,1,0.8,1.2,1.1l-0.6,0.5
			c-0.3-0.3-0.8-0.8-1.3-1.2l0.5-0.4h-1.4c-0.3,0.4-0.6,0.8-0.9,1.1c-0.1-0.1-0.5-0.4-0.7-0.5c0.7-0.6,1.2-1.4,1.5-2.3l0.9,0.2
			c-0.1,0.3-0.2,0.5-0.3,0.8H671.1z M665.8,384.7h3.3v-1.1h-3.3V384.7z"/>
		<path class="st0" d="M683.6,384.3v1h-11.3v-1H683.6z"/>
		<path class="st0" d="M688,379.5c-0.3,0.8-0.6,1.6-1,2.4v8.7h-0.9v-7.1c-0.4,0.6-0.8,1.2-1.2,1.6c-0.1-0.2-0.3-0.7-0.5-0.9
			c1.1-1.2,2.1-3.1,2.7-5L688,379.5z M695.6,380v10.5h-0.9v-0.6h-5.5v0.7h-0.9V380H695.6z M694.7,389.1v-8.2h-5.5v8.2H694.7z
			 M692.4,383.3v1.4h1.4v3.3h-3.6v-3.3h1.4v-1.4h-1.9v-0.7h1.9v-1.4h0.8v1.4h1.9v0.7H692.4z M693.1,385.4H691v1.9h2.1V385.4z"/>
		<path class="st0" d="M697.3,385.1c0-2.9,1.6-4.7,3.9-4.7c2.3,0,3.9,1.8,3.9,4.7c0,2.9-1.6,4.8-3.9,4.8
			C698.9,389.8,697.3,388,697.3,385.1z M703.9,385.1c0-2.3-1.1-3.7-2.7-3.7c-1.6,0-2.7,1.4-2.7,3.7c0,2.3,1.1,3.7,2.7,3.7
			C702.8,388.8,703.9,387.4,703.9,385.1z"/>
		<path class="st0" d="M707.1,380.5h2.7c1.9,0,3.1,0.6,3.1,2.2c0,0.9-0.5,1.7-1.3,2v0.1c1.1,0.2,1.9,0.9,1.9,2.2
			c0,1.8-1.4,2.7-3.5,2.7h-2.9V380.5z M709.6,384.4c1.6,0,2.2-0.6,2.2-1.5c0-1.1-0.7-1.5-2.2-1.5h-1.4v3H709.6z M709.8,388.8
			c1.6,0,2.5-0.6,2.5-1.8c0-1.1-0.9-1.6-2.5-1.6h-1.6v3.4H709.8z"/>
		<path class="st0" d="M715.3,380.5h1.4l1.8,4.9c0.2,0.6,0.4,1.3,0.6,1.9h0.1c0.2-0.6,0.4-1.3,0.6-1.9l1.7-4.9h1.4v9.1h-1.1v-5.1
			c0-0.8,0.1-1.9,0.2-2.7h-0.1l-0.7,2.1l-1.7,4.7h-0.8l-1.7-4.7l-0.7-2.1h0c0,0.8,0.1,1.9,0.1,2.7v5.1h-1V380.5z"/>
		<path class="st0" d="M727,384.8c-0.5-0.3-1.5-0.9-2.3-1.3l0.5-0.7c0.7,0.4,1.7,0.9,2.3,1.3L727,384.8z M725.1,389.8
			c0.6-0.9,1.6-2.6,2.3-4l0.6,0.6c-0.6,1.3-1.5,2.9-2.2,4L725.1,389.8z M725.8,379.4c0.7,0.4,1.8,0.9,2.3,1.3l-0.5,0.8
			c-0.5-0.4-1.5-1-2.3-1.4L725.8,379.4z M731.7,389c0,0.2,0.1,0.6,0.1,0.8c-2.7,0.7-3.1,0.8-3.3,1c0-0.2-0.2-0.7-0.3-0.9
			c0.2,0,0.4-0.1,0.4-0.6v-4.6h0.9v1.6h2.2v0.8h-2.2v2.4L731.7,389z M735.1,384.3h-6.6v-4.5h6.6V384.3z M734.1,380.5h-4.7v1.1h4.7
			V380.5z M734.1,382.4h-4.7v1.1h4.7V382.4z M734.9,389.8c0.3,0,0.4-0.2,0.4-1.4c0.2,0.1,0.6,0.3,0.8,0.3c-0.1,1.4-0.3,1.8-1.2,1.8
			h-1.6c-1,0-1.2-0.3-1.2-1.2v-4.7h0.9v1.6h2.7v0.8h-2.7v2.3c0,0.4,0.1,0.4,0.5,0.4H734.9z"/>
		<path class="st0" d="M742.3,389.6c0,0.5-0.1,0.7-0.4,0.8c-0.3,0.1-0.9,0.2-1.6,0.2c0-0.2-0.2-0.5-0.3-0.8c0.6,0,1.1,0,1.3,0
			c0.2,0,0.2-0.1,0.2-0.2v-1.9c-0.8,0.5-1.7,1-2.4,1.4l-0.3-0.7c-0.1,0.8-0.4,1.7-0.9,2.3c-0.1-0.2-0.4-0.5-0.6-0.6
			c0.7-0.9,0.8-2.3,0.8-3.3v-3h4.3V389.6z M741.5,380.2c0.6,0.8,1.3,2,1.6,2.8l-0.8,0.4c-0.1-0.2-0.2-0.5-0.4-0.8
			c-3.4,0.3-3.8,0.3-4.1,0.5c0-0.2-0.2-0.6-0.3-0.9c0.2,0,0.4-0.2,0.7-0.5c0.2-0.3,1.1-1.3,1.6-2.3l0.9,0.3
			c-0.5,0.8-1.1,1.6-1.7,2.3l2.6-0.2c-0.2-0.4-0.5-0.8-0.8-1.2L741.5,380.2z M738.9,386.7c0,0.5,0,1-0.1,1.6
			c0.7-0.3,1.7-0.8,2.7-1.3v-2.5h-2.6V386.7z M739.4,385.2c0.7,0.4,1.5,0.9,2,1.3l-0.5,0.5c-0.4-0.4-1.3-0.9-2-1.3L739.4,385.2z
			 M744.9,384.6c-1.1,0-1.4-0.4-1.4-1.4v-3.9h0.9v1.7h3.4v0.8h-3.4v1.4c0,0.4,0.1,0.6,0.5,0.6h2.3c0.3,0,0.8,0,1-0.1
			c0,0.2,0.1,0.6,0.1,0.8c-0.2,0.1-0.7,0.1-1.1,0.1H744.9z M747.1,389.7c0.5,0,0.6-0.2,0.7-1.6c0.2,0.1,0.6,0.3,0.8,0.3
			c-0.1,1.6-0.4,2-1.4,2H745c-1.2,0-1.5-0.3-1.5-1.3V385h0.9v1.5h3.5v0.8h-3.5v1.9c0,0.4,0.1,0.5,0.7,0.5H747.1z"/>
		<path class="st0" d="M760.9,388.8h-5.1v1.8h-0.9v-1.8h-5V388h5v-1h-3.7v-4.8h3.7v-0.9h-4.7v-0.8h4.7v-1.1h0.9v1.1h4.7v0.8h-4.7
			v0.9h3.8v4.8h-3.8v1h5.1V388.8z M751.9,384.2h2.9v-1.3h-2.9V384.2z M754.8,386.2v-1.3h-2.9v1.3H754.8z M755.7,382.9v1.3h2.9v-1.3
			H755.7z M758.6,384.9h-2.9v1.3h2.9V384.9z"/>
		<path class="st0" d="M767.3,381.9h-3.9v2h-0.9v-2.7h4.8v-0.8H763v-0.7h9.4v0.7h-4.3v0.8h4.8v2.7h-0.9v-2h-3.9v2.8h-0.9V381.9z
			 M771.8,389.7c0.7,0,0.8-0.2,0.8-1.4c0.2,0.1,0.5,0.2,0.8,0.3c-0.1,1.5-0.4,1.9-1.6,1.9H769c-1.4,0-1.8-0.2-1.8-1.2v-0.4h-2.8v0.6
			h-0.9v-4.3h8.4v3.7h-3.8v0.4c0,0.4,0.1,0.5,0.9,0.5H771.8z M763.6,384c0.8-0.1,1.9-0.2,3-0.4l0,0.6c-1,0.2-1.9,0.4-2.7,0.5
			L763.6,384z M764.2,382.1c0.8,0.1,1.8,0.4,2.4,0.6l-0.3,0.6c-0.5-0.3-1.6-0.6-2.4-0.7L764.2,382.1z M764.5,385.8v0.8h2.8v-0.8
			H764.5z M767.2,388.2v-0.9h-2.8v0.9H767.2z M771.1,385.8h-2.9v0.8h2.9V385.8z M771.1,388.2v-0.9h-2.9v0.9H771.1z M771.6,384.8
			c-0.7-0.2-1.9-0.5-2.9-0.7l0.2-0.6c0.9,0.1,2.2,0.4,2.9,0.6L771.6,384.8z M771.6,382.6c-0.7,0.3-1.7,0.6-2.4,0.7l-0.3-0.5
			c0.7-0.1,1.8-0.5,2.4-0.7L771.6,382.6z"/>
		<path class="st0" d="M776.7,384.7c-0.5-0.3-1.5-0.9-2.2-1.3l0.5-0.7c0.7,0.3,1.7,0.9,2.2,1.2L776.7,384.7z M774.9,389.8
			c0.6-1,1.6-2.6,2.2-4l0.7,0.6c-0.6,1.3-1.4,2.9-2.2,4L774.9,389.8z M777.4,381.4c-0.5-0.4-1.5-0.9-2.3-1.3l0.5-0.7
			c0.7,0.3,1.7,0.9,2.3,1.2L777.4,381.4z M784.1,389.7c0.7,0,0.9-0.3,1-1.8c0.2,0.1,0.6,0.3,0.8,0.3c-0.2,1.7-0.4,2.3-1.8,2.3h-3.3
			c-1.5,0-1.9-0.3-1.9-1.7v-4.1l-1.2,0.5l-0.3-0.8l1.6-0.6v-3.2h0.9v2.9l1.8-0.7v-3.4h0.8v3.1l2.3-0.9v0h0l0.7,0.2l0,0.2
			c0,1.8-0.2,4.2-0.4,5.6l-0.8-0.2c0.1-1.2,0.2-3.1,0.2-4.8l-2,0.8v4.6h-0.8v-4.2l-1.8,0.7v4.4c0,0.7,0.2,0.9,1,0.9H784.1z"/>
		<path class="st0" d="M787.5,385.2h4.4v5.3H791V390h-2.6v0.7h-0.9V385.2z M788.4,386.1v3h2.6v-3H788.4z M796.1,383.9h-6.8v-4.1h6.8
			V383.9z M795.2,380.7h-4.9v2.4h4.9V380.7z M797.9,385.2v5.3H797V390h-2.8v0.7h-0.9v-5.4H797.9z M797,389.1v-3h-2.8v3H797z"/>
		<path class="st0" d="M801.1,384.3c0,0.3,0,0.7,0,1h2.1v5.4h-0.9v-4.5h-1.3c-0.1,1.6-0.3,3.2-0.8,4.6c-0.2-0.1-0.6-0.2-0.8-0.3
			c0.8-1.8,0.9-4.3,0.9-6.1v-4.7h0.8v3.2h1.3v-3.4h0.8v4.2h-2.1V384.3z M810.8,388.1h-2.2v2.5h-0.9v-2.5h-4.1v-0.8h1.3
			c-0.1-0.1-0.4-0.3-0.5-0.4c0.6-0.4,1.1-0.9,1.4-1.4h-1.8v-4.9h1.8c0.2-0.4,0.4-0.9,0.5-1.3l1,0.2c-0.2,0.4-0.4,0.8-0.5,1.1h3.3
			v4.9h-3.4c-0.3,0.6-0.8,1.2-1.5,1.8h2.4v-1.5h0.9v1.5h2.2V388.1z M805,382.6h1.8v-1.3H805V382.6z M806.3,384.7
			c0.2-0.5,0.3-1,0.4-1.4H805v1.4H806.3z M809.3,383.4h-1.8c-0.1,0.4-0.2,0.8-0.4,1.4h2.1V383.4z M809.3,381.3h-1.7v1.3h1.7V381.3z"
			/>
	</g>
</g>
</svg>
