<?xml version="1.0" encoding="utf-8"?>
<!-- Generator: Adobe Illustrator 27.1.1, SVG Export Plug-In . SVG Version: 6.00 Build 0)  -->
<svg version="1.1" id="Layer_1" xmlns="http://www.w3.org/2000/svg" xmlns:xlink="http://www.w3.org/1999/xlink" x="0px" y="0px"
	 viewBox="0 0 861.3 407.9" style="enable-background:new 0 0 861.3 407.9;" xml:space="preserve">
<style type="text/css">
	.st0{fill:#FFFFFF;}
	.st1{fill:#FCCA03;}
	.st2{fill:#1E1E1C;}
	.st3{fill:#FFCE05;}
	.st4{fill:#161413;}
	.st5{fill:#FFCC03;}
	.st6{fill:#020203;}
	.st7{fill:#FECA05;}
</style>
<g>
	<g>
		<g>
			<path class="st0" d="M704.3,255.8l2.2-1.3c2.7-1.5,3.7-4.8,2.5-7.6c-1-2.2-3.2-3.6-5.5-3.6c-0.6,0-1.2,0.1-1.8,0.3l-40.8,13.1
				c0.5-2.8,0.7-6,0.7-9.6c0-0.1,0-0.2,0-0.3l-1.7-37l40.9-23.6c2.7-1.5,3.7-4.8,2.5-7.6c-1-2.2-3.2-3.6-5.5-3.6
				c-0.6,0-1.2,0.1-1.8,0.3l-37.6,12c0.1-1.2,0.2-2.5,0.2-3.8l0-0.1c0-0.1,0-0.2,0-0.4l0-0.1l42.1-24.3c2.7-1.5,3.7-4.8,2.5-7.6
				c-1-2.2-3.2-3.6-5.5-3.6c-0.6,0-1.2,0.1-1.8,0.3l-11.1,3.6l14.4-8.3c2.7-1.5,3.7-4.8,2.5-7.6c-1-2.2-3.2-3.6-5.5-3.6
				c-0.6,0-1.2,0.1-1.8,0.3L650.9,146c-0.5,0-1.1,0.1-1.6,0.3L610.5,159c0,0,0,0,0,0l-42.2,13.8c0,0,0,0,0,0l-59.5,19.5
				c-2.6,0.8-4.2,3.3-4.1,6l0.1,2.1l-16.5,5.3c-0.5,0-0.9,0.1-1.3,0.3l-126.6,41.4c-2.6,0.8-4.2,3.3-4.1,6l5.3,115.6
				c-2,1.1-3.2,3.2-3.1,5.5l1,23c0.1,1.9,1,3.6,2.6,4.7c1,0.7,2.2,1.1,3.4,1.1c0.6,0,1.3-0.1,1.9-0.3l21.1-6.9
				c1.4-0.5,2.3-1.1,6.6-5c0.1,0.1,0.2,0.2,0.4,0.3c1,0.7,2.2,1.1,3.4,1.1c0.6,0,1.3-0.1,1.9-0.3l30-9.8c0.8-0.3,1.6-0.7,2.2-1.3
				l1.9-1.8c1.3-1,3-2.9,6.5-8.3c0.1-0.1,0.2-0.3,0.2-0.4l6-11.1l4.7,3.7l3.3,3.2c0.3,0.3,0.6,0.5,0.9,0.7c2.7,1.7,5.9,2.6,9.4,2.6
				c0,0,0,0,0,0c1.7,0,3.5-0.2,5.3-0.6c0.2,0,0.4-0.1,0.6-0.2l28.9-9.4c2-0.7,3.5-2.3,4-4.2l11.5-6.7l0.1,1.6c0.1,1.9,1,3.6,2.6,4.7
				c1,0.7,2.2,1.1,3.4,1.1c0.6,0,1.3-0.1,1.9-0.3l40.9-13.4c3.9-1.3,7.3-3.7,10.2-5.9l0.2-0.1c0.2-0.1,0.3-0.2,0.4-0.4l0.1-0.1
				c2.8-2.6,4.9-6.1,6.1-10.4c0-0.1,0.1-0.2,0.1-0.3l11.6-3.8l0.2,3.6c0.1,1.9,1,3.6,2.6,4.7c1,0.7,2.2,1.1,3.4,1.1
				c0.6,0,1.3-0.1,1.9-0.3l32.9-10.8c2.6-0.8,4.2-3.3,4.1-6l-0.3-6.9l23.4-7.7c2.6-0.8,4.2-3.3,4.1-6l-0.2-4l38.8-22.4
				c2.7-1.5,3.7-4.8,2.5-7.6C706.4,257.4,705.5,256.4,704.3,255.8z M409.1,353.2l-8,2.6l-1.5-33.6l18.5,15.2L409.1,353.2z
				 M496.6,323.4c-0.3,0-0.6,0.1-0.9,0.2l-13.6,4.5l-12.2-9.5l23.8-44.3l15.3-7.5l1.9,40.9c0.1,1.9,1,3.6,2.6,4.7
				c1,0.7,2.1,1,3.2,1.1c-1.3,1.2-2.1,2.9-2,4.7l0,0.7c-0.6-0.2-1.2-0.3-1.9-0.3c-0.6,0-1.2,0.1-1.8,0.3L496.6,323.4z"/>
			<path class="st6" d="M611.7,169.4l-4.3,0.2l2,43.9l27.6-9c3.5-1.1,6.7-3,9.7-5.4l-2.8-3.3l2.6,3.4c2.2-1.7,3.8-4.1,4.7-6.7
				c1-2.7,1.4-5.7,1.5-9.1l0-0.1l-0.2-3.8l45.3-26.1l-45.8,14.7l-0.2-4.7l44.5-25.6l-50.3,16.1l1.3,4.1l4.3-0.2l0-0.2l-0.3-5.6
				l-44,14.4l0.1,3.3L611.7,169.4l1.3,4.1l35.5-11.6l-1.3-4.1l-4.3,0.2l0,0.2l0.3,5.6l17.4-5.6l-1.3-4.1l-2.1-3.7l-14.2,8.2l1,21.1
				l18.2-5.8l-1.3-4.1l-2.1-3.7l-15,8.6l0.4,8.8l4.3-0.2l-4.3-0.1c0,2.7-0.4,4.8-0.9,6.3c-0.5,1.5-1.2,2.3-1.9,2.9l-0.1,0.1
				l-0.1,0.1c-2.2,1.8-4.4,3.1-6.8,3.9l-16.8,5.5l-1.5-32.7L611.7,169.4l1.3,4.1L611.7,169.4z M632.6,184.6l-1.3-4.1l-5.6,1.8
				l1.3,4.1l4.3-0.2l-0.1-1.9l2.5-0.8l-1.3-4.1l-4.3,0.2l0.2,5.1L632.6,184.6l-1.3-4.1L632.6,184.6l4.3-0.2l-0.2-5.1l-0.3-5.6
				l-14,4.6l0.6,14l14-4.6l-0.1-3.3L632.6,184.6z"/>
			<path class="st6" d="M596.7,213.2l1.3,4.1c3.5-1.1,6.7-3,9.7-5.4l-2.8-3.3l2.6,3.4c2.2-1.7,3.8-4.1,4.7-6.7
				c1-2.7,1.4-5.7,1.5-9.1l0-0.1l-1.4-31.3l-44,14.4l2.2,47.2l27.6-9L596.7,213.2l-1.3-4.1l-16.8,5.5l-1.3-29.4l27.1-8.9l0.9,19.9
				l4.3-0.2l-4.3-0.1c0,2.7-0.4,4.8-0.9,6.3c-0.5,1.5-1.2,2.3-1.9,2.9l-0.1,0.1l-0.1,0.1c-2.2,1.8-4.4,3.1-6.8,3.8L596.7,213.2z
				 M588,194l1.3,4.1l6.7-2.2l-1.3-4.1l-4.3,0.2l0.1,1.9l-3.6,1.2l1.3,4.1l4.3-0.2l-0.2-5.1L588,194l1.3,4.1L588,194l-4.3,0.2
				l0.2,5.1l0.3,5.6l15.1-4.9l-0.6-14l-15.1,4.9l0.1,3.3L588,194z"/>
			<path class="st6" d="M655.1,282.9l2.1,3.7l44.2-25.5l-42.5,13.6l-0.1-2.4l-4.3,0.2l2.1,3.7l46.7-26.9l-50.3,16.1l1.3,4.1l4.3-0.2
				l0-0.1l-0.3-5.6l-33.1,10.8l1.3,4.1l4.3-0.2l-0.1-1.9l9.1-3c1.5-0.5,2.9-1.3,4.3-2.2c1.5-1,3-2.2,4.8-3.7c2.5-2.1,4-5.1,5-8.5
				c1-3.4,1.4-7.4,1.4-11.9l0-0.1l-1.9-40.7l44.1-25.4l-63.9,20.5l-0.2,0.3l-63.4,20.7l3.3,72.7l29.8-9.7l-1.3-4.1l-4.3,0.2l0.1,1.9
				l-27.8,9.1l1.3,29.3l27.8-9.1l0.5,11.5l32.9-10.8l-0.5-11.5l27.8-9.1l-0.5-10.3L655.1,282.9l2.1,3.7L655.1,282.9l-4.3,0.2
				l0.2,3.8l-27.8,9.1l0.5,11.5l-16,5.2l-0.5-11.5l-27.8,9.1l-0.5-11.5l27.8-9.1l-0.6-14l-24.4,8l-2.5-55l59.7-19.5l0.2-0.3
				l23.1-7.4l-1.3-4.1l-2.1-3.7l-13.8,8l2.1,45.8l4.3-0.2l-4.3,0c0,4-0.4,7.3-1,9.6c-0.7,2.3-1.5,3.6-2.3,4.3
				c-1.5,1.3-2.9,2.3-3.9,3.1c-1.1,0.7-1.9,1.1-2.3,1.2l-15.3,5l0.6,14l33.1-10.8l-1.3-4.1l-4.3,0.2l0,0.1l0.3,5.6l17.4-5.6
				l-1.3-4.1l-2.1-3.7l-14.1,8.2l0.7,16.2l14.9-4.8l-1.3-4.1l-2.1-3.7l-11.7,6.7l0.1,2.6L655.1,282.9z M624.4,227.5l1.3,4.1l7.8-2.5
				l-1.3-4.1l-4.3,0.2l0.1,1.9l-4.7,1.5l1.3,4.1l4.3-0.2l-0.2-5.1L624.4,227.5l1.3,4.1L624.4,227.5l-4.3,0.2l0.2,5.1l0.3,5.6
				l16.2-5.3l-0.6-14l-16.2,5.3l0.1,3.3L624.4,227.5z M625.4,249.2l1.3,4.1l2.4-0.8l0,0.7l4.3-0.2l-1.3-4.1l-2.4,0.8l0-0.7
				L625.4,249.2l1.3,4.1L625.4,249.2l-4.3,0.2l0.5,12l16.2-5.3l-0.7-15.3l-16.2,5.3l0.1,3.3L625.4,249.2z M601.3,263.5l-1.3-4.1
				l-0.2,0.1l0-0.7l-4.3,0.2l1.3,4.1l0.2-0.1l0,0.7L601.3,263.5l-1.3-4.1L601.3,263.5l4.3-0.2l-0.5-12l-14,4.6l0.7,15.3l14-4.6
				l-0.1-3.3L601.3,263.5z M600.2,240.6l-1.3-4.1l-5.6,1.8l1.3,4.1l4.3-0.2l-0.1-1.9l2.5-0.8l-1.3-4.1l-4.3,0.2l0.2,5.1L600.2,240.6
				l-1.3-4.1L600.2,240.6l4.3-0.2l-0.2-5.1l-0.3-5.6l-14,4.6l0.6,14l14-4.6l-0.1-3.3L600.2,240.6z"/>
			<path class="st6" d="M575.1,262.9L575.1,262.9l-0.3-5.6l-19.6,6.4l-6.6,2.1l0,0l-3.8,1.2l-0.4-7.7l15.8-5.2c3-1,5.4-3.1,7.9-5.8
				l0,0c1.9-2.2,2.8-4.8,3.4-8c0.6-3.2,0.9-6.9,0.9-11.4l0-0.1l-1.9-40.7l2.9-1.6l3.2-1.9l-1.5-3.6l-1.5-3.7l-8.9,2.9l1.3,4.1
				l4.3-0.2l0-0.1l-0.3-5.6L510.6,198l1.5,31.9l30-9.8l0.3,6.4l-28.9,9.4l3.3,71.5l28.9-9.4l0.5,11.5l-25.5,8.4l1.5,31.9l40.9-13.4
				c2.7-0.9,5.3-2.6,8.4-5l0.2-0.1l0.1-0.1c2.2-2,3.6-4.7,4.5-7.7c0.9-3,1.3-6.5,1.3-10.5l0-0.1l0-0.1c0,0-0.6-12.2-1.1-24.3
				c-0.6-12.2-1.1-24.3-1.1-24.3l-4.3,0.2l-4.3,0.4l4.3-0.4l-4.3,0.3l0,0.1l4.3-0.4l-4.3,0.3l3.6-0.2l-3.6,0.1l0,0.1l3.6-0.2
				l-3.6,0.1l8.6-0.3l0-0.1l0,0l0,0l0,0l0,0l0,0l0,0l0-0.1c-0.2-2.3-2.3-4-4.6-3.9c-2.3,0.2-4.1,2.1-4,4.5c0,0,0.6,12.2,1.1,24.3
				c0.6,12.2,1.1,24.3,1.1,24.3l4.3-0.2l-4.3,0c0,3.4-0.4,6.1-1,8.1c-0.6,2-1.3,3.2-2.1,3.8l2.9,3.1l-2.6-3.4
				c-2.7,2.1-4.8,3.3-5.8,3.6l-30.2,9.9l-0.6-14.1l25.5-8.4l-1.3-29.3l-28.9,9.4l-2.4-53.7l28.9-9.4l-1.1-24.2l-30,9.8l-0.6-14.1
				l48-15.7l-1.3-4.1l-4.3,0.2l0,0.1l0.3,5.6l10.5-3.4l-1.3-4.1l-4,1.6l0,0.1l4-1.6l-2.1-3.7l-7.4,4.3l2.1,45.8l4.3-0.2l-4.3,0
				c0,4.1-0.3,7.4-0.7,9.8c-0.4,2.4-1.2,3.7-1.4,3.9l0,0c-1.8,2.1-3.4,3.1-4.1,3.3l-22,7.2l1.2,25.5l17-5.6l0,0l4-1.3l14.3-4.7
				l-1.3-4.1l-4.3,0.2l0,0L575.1,262.9z"/>
			<path class="st6" d="M469.8,363l28.9-9.4l-0.1-2.1l15.7-9l-15.9,5.1l-0.7-14.4l15.1-8.7l-15.2,4.9l0-0.1l-16.7,5.4l-18.7-14.6
				l27-50.3l0-0.1l19.4-9.6L489,266l-0.4-9.4l30.9-15.2l-31.5,9.3l-0.1,0.1l-96.2,31.5l-0.8-16.6l98.8-32.3l-0.1-1.4l13.3-7.6
				l-13.4,4.3l-0.5-12l18.9-10.9l-19.1,6.1l0-0.2l-126.6,41.4l5.5,120l-3.3,1.1l1,23l21.1-6.9c0.4-0.1,2-1.5,4.9-4.2
				c2.5-2.5,3.9-8.2,4.3-17l-3-65.1l61.1-20l-11.4,21.9l-9.4-8.6L394.1,310l31.6,25.9l-12.5,22.2l-15.5,5.1l1,23l30-9.8l2.2-2
				c1.1-0.8,2.9-3.1,5.3-6.9l9.4-17.3l10.5,8.2l3.5,3.4C462.3,363.5,465.7,363.9,469.8,363z"/>
		</g>
		<g>
			<g>
				<polygon class="st0" points="16.9,160 299.9,64.1 299.4,62.2 16.7,158 				"/>
				<polygon class="st0" points="298.1,50.6 297.6,48.7 264.8,59.8 265.1,61.8 				"/>
				<polygon class="st0" points="173.9,92.7 173.6,90.7 14.9,144.5 15.1,146.5 				"/>
				<polygon class="st0" points="416.6,27.9 424.3,25.4 426.1,24.7 433.2,10.2 423.4,4.8 414,7.8 423.5,13.4 				"/>
				<polygon class="st0" points="396.8,34.4 404.5,31.9 406.3,31.1 413.4,16.7 403.6,11.2 394.1,14.3 403.7,19.8 				"/>
				<polygon class="st0" points="377,40.8 384.7,38.3 386.5,37.6 393.6,23.1 383.8,17.6 374.3,20.7 383.9,26.3 				"/>
				<polygon class="st0" points="357.2,47.2 364.9,44.7 366.7,44 373.8,29.5 364,24.1 354.5,27.2 364.1,32.7 				"/>
				<polygon class="st0" points="339.5,53.4 347.2,50.9 349,50.1 356.1,35.7 346.4,30.2 336.9,33.3 346.4,38.8 				"/>
				<polygon class="st0" points="321.9,59.5 329.6,57 331.4,56.3 338.5,41.8 328.7,36.3 319.2,39.4 328.8,45 				"/>
				<polygon class="st0" points="304.2,65.6 311.9,63.1 313.7,62.4 320.8,47.9 311.1,42.5 301.6,45.6 311.2,51.1 				"/>
			</g>
			<g>
				<path class="st0" d="M451.2,88.6c-0.8,0-1.7,0.1-2.5,0.4l-37.2,11.9l-0.5-13.2l40.6-23.3c3.2-1.8,4.7-5.4,3.7-8.9
					c-0.9-3.4-3.9-5.8-7.3-5.9l8.4-4.8c3.2-1.8,4.6-5.4,3.7-8.9c-0.9-3.5-4.1-5.9-7.6-5.9c-0.8,0-1.7,0.1-2.5,0.4l-40.6,13
					c-0.1-1.8-1.1-3.5-2.6-4.5c-1-0.7-2.2-1-3.4-1c-0.7,0-1.4,0.1-2,0.3l-49.4,17.5c-2.5,0.9-4.1,3.2-4,5.9l0.4,10.3l0.2,5.2
					c-1-0.7-2.2-1.1-3.4-1.1c-0.6,0-1.2,0.1-1.8,0.3l-21.2,6.8l-29,9l-0.3-5.8c-0.1-1.9-1-3.6-2.6-4.7c-1-0.7-2.2-1.1-3.4-1.1
					c-0.6,0-1.3,0.1-1.9,0.3l-29.5,9.7c-2.6,0.8-4.2,3.3-4.1,6l0.4,9l-22.9,7.5l0.3-1.8c0.4-2.1-0.4-4.2-2-5.6
					c-1.1-1-2.5-1.5-3.9-1.5c-0.6,0-1.3,0.1-1.9,0.3l-30.7,10c-2.1,0.7-3.7,2.5-4,4.7l-0.3,1.7c-2.2-2.2-5.3-3.5-8.6-3.5
					c-1.3,0-2.5,0.2-3.7,0.6L155,124c-1.1,0.1-2.1,0.3-3.1,0.6l-63.7,20.8c-1,0.3-2,0.8-2.8,1.3c-1,0.1-2.1,0.3-3.1,0.6l-62.5,20.5
					c-5.2,1.7-8.7,6.7-8.4,12.2l7,153.3c0.2,3.9,2.1,7.3,5.3,9.5c2.1,1.4,4.5,2.2,7,2.2c1.3,0,2.6-0.2,3.8-0.6l22.4-7.3
					c4.8-1.6,8.1-5.9,8.4-10.8l13-7.5c0.2,0.2,0.4,0.3,0.6,0.5c2.1,1.4,4.5,2.2,7,2.2c1.3,0,2.6-0.2,3.8-0.6l20.1-6.6
					c5.2-1.7,8.7-6.7,8.4-12.2l-0.4-9.7l0.6-0.2l0.3,7c0.2,3.9,2.1,7.3,5.3,9.5c2.1,1.4,4.5,2.2,7,2.2c1.3,0,2.6-0.2,3.8-0.6l15.4-5
					c2.2-0.7,4.2-1.8,5.9-2.7c1.8-1,3.9-2.3,6.3-3.8c0.1-0.1,0.2-0.1,0.3-0.2l0.5-0.4c0.1-0.1,0.2-0.1,0.2-0.2
					c2.9-2.3,5.2-5.3,7-8.8c0.7-1.4,1.3-2.8,1.8-4.4l7.7-4.4c5.5-3.1,7.6-9.8,5.1-15.6c-2-4.4-6.4-7.3-11.2-7.3c0,0,0,0,0,0
					l-0.5-11.8l13.2-7.6l1.8,38.7c0.1,1.9,1,3.6,2.6,4.7c1,0.7,2.2,1.1,3.4,1.1c0.6,0,1.3-0.1,1.9-0.3l28.3-9.3
					c1.6-0.5,2.9-1.7,3.6-3.1c0.9,0.5,1.8,0.7,2.8,0.7c0.6,0,1.3-0.1,1.9-0.3l94.4-30.9c2-0.6,3.5-2.3,4-4.3l0-0.2l13.1-7.5
					c2.7-1.5,3.7-4.8,2.5-7.6c-1-2.2-3.2-3.6-5.5-3.6c-0.6,0-1.2,0.1-1.8,0.3l-4.3,1.4l0.5-2.3l13.8-8c2.7-1.5,3.7-4.8,2.5-7.6
					c-1-2.2-3.2-3.6-5.5-3.6c-0.6,0-1.2,0.1-1.8,0.3l-22.1,7.1l-23.5,7.5l-1-21.5l24-7.8c1.9-0.6,3.3-2.1,3.9-4l1.1-3.8l14.9-8.6
					c2.7-1.5,3.7-4.8,2.5-7.6c-1-2.2-3.2-3.6-5.5-3.6c-0.6,0-1.2,0.1-1.8,0.3l-4.7,1.5l0.7-2.3l14.1-8.1c2.7-1.5,3.7-4.8,2.5-7.6
					c-1-2.2-3.2-3.6-5.5-3.6c-0.6,0-1.2,0.1-1.8,0.3l-13.1,4.2c-0.6,0-1.1,0.1-1.7,0.3l-31.4,10.7l-1-21.4l27.5-9
					c1.5-0.5,2.7-1.5,3.4-2.9l17.2-9.9c2.7-1.5,3.7-4.8,2.5-7.6c-1-2.2-3.2-3.6-5.5-3.6c-0.6,0-1.2,0.1-1.8,0.3l-6.2,2l0.6-1.8
					l15.7-9.1c0.3-0.2,0.5-0.3,0.8-0.5l2.5,71.5l0.8,23.9l0,0l1.8,52.5c0.1,1.9,1,3.7,2.6,4.7c1,0.7,2.2,1,3.4,1
					c0.7,0,1.4-0.1,2-0.3l49.4-17.5c2.5-0.9,4.1-3.2,4-5.9l-0.4-10.4l27.2-15.6c3.6-2.1,5.4-6.2,4.3-10.2c-0.7-2.8-2.7-5-5.2-6.1
					l5.9-3.4c3.6-2.1,5.4-6.2,4.3-10.2c-1.1-4-4.7-6.8-8.8-6.8c-1,0-1.9,0.2-2.9,0.5l-26.3,8.4l-0.6-18.4l37.2-21.4
					c3.2-1.8,4.7-5.4,3.7-8.9c-0.9-3.4-3.9-5.8-7.3-5.9l8.4-4.8c3.2-1.8,4.6-5.4,3.7-8.9C457.9,91,454.8,88.6,451.2,88.6z
					 M184.1,213c-0.6,0-1.1,0-1.7,0.1c1.4-3.1,1.5-6.7,0.1-10.1c-2-4.4-6.4-7.3-11.2-7.3c-0.2,0-0.4,0-0.6,0l-0.1-1.2l7.3-4.2
					l0.1,1.7c0.1,1.9,1,3.6,2.6,4.7c1,0.7,2.2,1.1,3.4,1.1c0.1,0,0.2,0,0.3,0L185,213C184.7,213,184.4,213,184.1,213z M227.5,234.6
					c-0.3,0.1-0.5,0.2-0.8,0.3l-3.2-69.5c-0.1-1.7-0.9-3.4-2.3-4.5l-0.9-0.7l1.9-10.7c0.1,0.1,0.3,0.2,0.4,0.3
					c1,0.7,2.2,1.1,3.4,1.1c0.6,0,1.3-0.1,1.9-0.3l25.5-8.4l1,21.5l-24,7.8c-2.6,0.8-4.2,3.3-4.1,6l1.2,27.1c0.1,1.9,1,3.6,2.6,4.7
					c1,0.7,2.2,1.1,3.4,1.1c0.6,0,1.3-0.1,1.9-0.3l20.8-6.8l1,21.5L227.5,234.6z"/>
				<polygon class="st6" points="320.6,114 321,112.7 340.1,101.8 322.7,107.3 327.6,92.2 345.3,82 324.1,88.8 287.6,100.1 
					287,86.5 257.5,96.1 258.1,109.7 225.1,120.5 226.2,144.9 259.2,134.1 260.8,168 232.5,177.3 233.7,204.4 262,195.2 
					263.6,229.1 229.4,240.3 230.5,264.7 324.8,233.8 325.5,231.1 340.9,222.3 326.5,226.9 330.1,211.7 346.1,202.5 324,209.6 
					293.1,219.4 291.5,185.5 319.8,176.3 321.7,170.2 338.7,160.4 323.1,165.4 327.8,150 343.9,140.7 329.2,145.4 329.2,145.1 
					290.3,158.4 288.7,124.5 				"/>
				<polygon class="st6" points="192.8,120.1 185.2,163.9 182.8,164.6 184.1,191.8 190,189.8 193.9,276.7 222.2,267.4 217.6,165.7 
					213.9,162.7 223.4,110 				"/>
				<path class="st6" d="M52.8,319.4l3.1,5.4l23.6-13.6c2.8-1.6,3.9-5,2.6-7.9c-1.3-2.9-4.6-4.4-7.6-3.4L58.4,305l-3-65.9l21.4-7
					c1.6-0.5,3.1-1.3,4.7-2.2c1.6-0.9,3.3-2.1,5.2-3.4l0,0c2.8-2,4.8-4.8,6.1-8c1.3-3.2,1.8-6.6,1.9-10.4l0-0.4l-2.2-48.8
					c-0.1-2-1.1-3.7-2.7-4.9s-3.6-1.4-5.5-0.8l-62.5,20.5c-2.7,0.9-4.4,3.4-4.3,6.2l7,153.3c0.1,2,1.1,3.7,2.7,4.9
					c1.6,1.1,3.6,1.4,5.5,0.8l22.4-7.3c2.7-0.9,4.4-3.4,4.3-6.2l-0.3-6.1L52.8,319.4l3.1,5.4L52.8,319.4l-6.2,0.3l0.1,1.4l-10.1,3.3
					L30.1,184l50.2-16.4l1.9,40.6l6.2-0.3l-6.2-0.1c0,2.7-0.4,4.7-1,6c-0.5,1.3-1.1,2-1.8,2.5l0,0c-1.6,1.2-3,2.1-4.1,2.7
					c-1.1,0.6-2,1-2.3,1.1l-25.9,8.5c-2.7,0.9-4.4,3.4-4.3,6.2l3.6,78.8c0.1,1.9,1.1,3.7,2.7,4.8c1.6,1.1,3.6,1.4,5.5,0.8l23.8-7.6
					l-1.9-6l-3.1-5.4l-23.6,13.6c-2,1.2-3.2,3.4-3.1,5.7L52.8,319.4z M46.9,189.8l1.9,5.9l17.7-5.8l-1.9-5.9l-6.2,0.3l0.1,2
					l-13.2,4.3l1.9,5.9l6.2-0.3l-0.3-6.8L46.9,189.8l1.9,5.9L46.9,189.8l-6.2,0.3l0.3,6.8c0.1,2,1.1,3.7,2.7,4.9
					c1.6,1.1,3.6,1.4,5.5,0.8l17.7-5.8c2.7-0.9,4.4-3.4,4.3-6.2l-0.3-6.8c-0.1-2-1.1-3.7-2.7-4.9c-1.6-1.1-3.6-1.4-5.5-0.8
					l-17.7,5.8c-2.7,0.9-4.4,3.4-4.3,6.2L46.9,189.8z M47.8,210.2l1.9,5.9l17.7-5.8l-1.9-5.9l-6.2,0.3l0.1,2L46.1,211l1.9,5.9
					l6.2-0.3l-0.3-6.8L47.8,210.2l1.9,5.9L47.8,210.2l-6.2,0.3l0.3,6.8c0.1,2,1.1,3.7,2.7,4.9c1.6,1.1,3.6,1.4,5.5,0.8l17.7-5.8
					c2.7-0.9,4.4-3.4,4.3-6.2l-0.3-6.8c-0.1-2-1.1-3.7-2.7-4.9c-1.6-1.1-3.6-1.4-5.5-0.8l-17.7,5.8c-2.7,0.9-4.4,3.4-4.3,6.2
					L47.8,210.2z"/>
				<path class="st7" d="M52.8,319.4l23.6-13.6l-23.8,7.6l-3.6-78.8l25.9-8.5c2-0.6,4.7-2.2,8.2-4.7c3.5-2.5,5.3-7,5.4-13.5
					l-2.2-48.8l-62.5,20.5l7,153.3l22.4-7.3L52.8,319.4z M46.9,189.8l17.7-5.8l0.3,6.8l-17.7,5.8L46.9,189.8z M47.8,210.2l17.7-5.8
					l0.3,6.8l-17.7,5.8L47.8,210.2z"/>
				<path class="st6" d="M128.2,214.1l-1.9-5.9l-71.9,23.5c-2.7,0.9-4.4,3.4-4.3,6.2l2.8,61c0.1,2,1.1,3.7,2.7,4.9s3.6,1.4,5.5,0.8
					l18.1-5.9l0.5,10.8c0.1,2,1.1,3.7,2.7,4.9c1.6,1.1,3.6,1.4,5.5,0.8l20.1-6.6c2.7-0.9,4.4-3.4,4.3-6.2l-0.6-14.2l8.5-2.8
					c3.2-1.1,6-2.9,9.5-5.5l0.4-0.4c2.5-2.3,4.1-5.2,5.2-8.4c1-3.2,1.5-6.8,1.5-10.7l0-0.4l-2.1-46.1c-0.1-2-1.1-3.7-2.7-4.9
					c-1.6-1.1-3.6-1.4-5.5-0.8L128.2,214.1l-6.2,0.3l2.1,46.1l6.2-0.3l-6.3-0.1c0,3-0.4,5.4-0.9,7c-0.5,1.7-1.2,2.6-1.8,3.1l4.2,4.6
					l-3.8-4.9c-2.8,2.2-4.9,3.3-5.7,3.5l-13,4.2c-2.7,0.9-4.4,3.4-4.3,6.2l0.6,14.2l-7.7,2.5L91.2,290c-0.1-2-1.1-3.7-2.7-4.9
					c-1.6-1.1-3.6-1.4-5.5-0.8l-18.1,5.9l-2.2-48.1l67.4-22.1L128.2,214.1l-6.2,0.3L128.2,214.1z M84.2,274l-1.9-5.9l-7.1,2.3
					l1.9,5.9l6.2-0.3l0-0.7l2.6-0.8l-1.9-5.9l-6.2,0.3l0.2,5.4L84.2,274l-1.9-5.9L84.2,274l6.2-0.3l-0.2-5.4c-0.1-2-1.1-3.7-2.7-4.9
					c-1.6-1.1-3.6-1.4-5.5-0.8l-7.1,2.3c-2.7,0.9-4.4,3.4-4.3,6.2l0.2,5.4c0.1,2,1.1,3.7,2.7,4.9c1.6,1.1,3.6,1.4,5.5,0.8l7.1-2.3
					c2.7-0.9,4.4-3.4,4.3-6.2L84.2,274z M83.2,250.9l-1.9-5.9l-7.1,2.3l1.9,5.9l6.2-0.3l0-0.7l2.6-0.8l-1.9-5.9l-6.2,0.3l0.2,5.4
					L83.2,250.9l-1.9-5.9L83.2,250.9l6.2-0.3l-0.2-5.4c-0.1-2-1.1-3.7-2.7-4.9c-1.6-1.1-3.6-1.4-5.5-0.8l-7.1,2.3
					c-2.7,0.9-4.4,3.4-4.3,6.2l0.2,5.4c0.1,2,1.1,3.7,2.7,4.9c1.6,1.1,3.6,1.4,5.5,0.8l7.1-2.3c2.7-0.9,4.4-3.4,4.3-6.2L83.2,250.9z
					 M112.5,264.7l-1.9-5.9l-8.3,2.7l1.9,5.9l6.2-0.3l0-0.7l3.7-1.2l-1.9-5.9l-6.2,0.3l0.2,5.4L112.5,264.7l-1.9-5.9L112.5,264.7
					l6.2-0.3l-0.2-5.4c-0.1-2-1.1-3.7-2.7-4.9c-1.6-1.1-3.6-1.4-5.5-0.8l-8.3,2.7c-2.7,0.9-4.4,3.4-4.3,6.2l0.2,5.4
					c0.1,2,1.1,3.7,2.7,4.9c1.6,1.1,3.6,1.4,5.5,0.8l8.3-2.7c2.7-0.9,4.4-3.4,4.3-6.2L112.5,264.7z M111.5,241.6l-1.9-5.9l-8.3,2.7
					l1.9,5.9l6.2-0.3l0-0.7l3.7-1.2l-1.9-5.9l-6.2,0.3l0.2,5.4L111.5,241.6l-1.9-5.9L111.5,241.6l6.2-0.3l-0.2-5.4
					c-0.1-2-1.1-3.7-2.7-4.9c-1.6-1.1-3.6-1.4-5.5-0.8L101,233c-2.7,0.9-4.4,3.4-4.3,6.2l0.2,5.4c0.1,2,1.1,3.7,2.7,4.9
					c1.6,1.1,3.6,1.4,5.5,0.8l8.3-2.7c2.7-0.9,4.4-3.4,4.3-6.2L111.5,241.6z"/>
				<path class="st7" d="M128.2,214.1l-71.9,23.5l2.8,61l25.9-8.5l0.9,19l20.1-6.6l-0.9-19l13-4.2c2-0.6,4.5-2.2,7.6-4.5
					c3.1-2.8,4.6-7.7,4.7-14.6L128.2,214.1z M84.2,274l-7.1,2.3l-0.2-5.4l7.1-2.3L84.2,274z M83.2,250.9l-7.1,2.3l-0.2-5.4l7.1-2.3
					L83.2,250.9z M112.5,264.7l-8.3,2.7L104,262l8.3-2.7L112.5,264.7z M111.5,241.6l-8.3,2.7l-0.2-5.4l8.3-2.7L111.5,241.6z"/>
				<path class="st6" d="M155.5,288.5l3.9,4.9c2.3-1.8,4.1-4.2,5.4-6.8c1.3-2.6,2.2-5.5,2.7-8.7l-6.2-1.1l3.1,5.4l12.2-7
					c2.8-1.6,3.9-5,2.6-7.9c-1.3-2.9-4.6-4.4-7.6-3.4l-11.8,3.8l1.9,6l6.2,0.6c0-0.5,0.1-1.1,0.2-1.9l0-0.6l-1.3-29.2l20.4-11.8
					c2.8-1.6,3.9-5,2.6-7.9s-4.6-4.4-7.6-3.4l-16.2,5.2l-0.3-6.1l8.7-5c2.8-1.6,3.9-5,2.6-7.9c-1.3-2.9-4.6-4.4-7.6-3.4l-4.4,1.4
					l-0.6-12.3l20.2-11.6c2.8-1.6,3.9-5,2.6-7.9c-1.3-2.9-4.6-4.4-7.6-3.4l-23.8,7.6l1.9,6l6.2-0.3l0-0.5l6.9-4
					c2.8-1.6,3.9-5,2.6-7.9c-1.3-2.9-4.6-4.4-7.6-3.4l-2.5,0.8l-0.2-4.5l12.7-7.3c2.8-1.6,3.9-5,2.6-7.9c-1.3-2.9-4.6-4.4-7.6-3.4
					l-8.4,2.7l0-0.3l18.7-10.8c2.8-1.6,3.9-5,2.6-7.9c-1.3-2.9-4.6-4.4-7.6-3.4l-22.2,7.1l1.9,6l6.2-0.3l0-0.4
					c-0.1-2-1.1-3.7-2.7-4.9s-3.6-1.4-5.5-0.8l-63.7,20.8c-2.7,0.9-4.4,3.4-4.3,6.2l2.8,62.4c0.1,2,1.1,3.7,2.7,4.9
					c1.6,1.1,3.6,1.4,5.5,0.8l33.5-11l2.4,53.5l-4.9,1.6c-2.7,0.9-4.4,3.4-4.3,6.2l1.1,23.1c0.1,2,1.1,3.7,2.7,4.9
					c1.6,1.1,3.6,1.4,5.5,0.8l15.3-5c1.6-0.5,3.1-1.3,4.9-2.2c1.8-1,3.7-2.2,5.9-3.6l0.5-0.4L155.5,288.5l-3.4-5.2
					c-2,1.3-3.8,2.4-5.1,3.1c-1.4,0.7-2.4,1.2-2.7,1.3l-7.5,2.5l-0.5-10.1l4.9-1.6c2.7-0.9,4.4-3.4,4.3-6.2l-3-66.5
					c-0.1-2-1.1-3.7-2.7-4.9c-1.6-1.1-3.6-1.4-5.5-0.8l-33.5,11l-2.3-49.4l59.2-19.4l-1.9-5.9l-6.2,0.3l0,0.4
					c0.1,1.9,1.1,3.7,2.7,4.8c1.6,1.1,3.6,1.4,5.5,0.8l22.2-7.1l-1.9-6l-3.1-5.4l-22,12.7c-2,1.2-3.2,3.4-3.1,5.7l0.6,12.3
					c0.1,1.9,1.1,3.7,2.7,4.8c1.6,1.1,3.6,1.4,5.5,0.8l16.2-5.2l-1.9-6l-3.1-5.4l-16,9.2c-2,1.2-3.2,3.4-3.1,5.7l0.7,16.4
					c0.1,1.9,1.1,3.7,2.7,4.8c1.6,1.1,3.6,1.4,5.5,0.8l10.3-3.3l-1.9-6l-3.1-5.4l-10.2,5.9c-2,1.2-3.2,3.4-3.1,5.7l0.2,4.3
					c0.1,1.9,1.1,3.7,2.7,4.8c1.6,1.1,3.6,1.4,5.5,0.8l23.8-7.6l-1.9-6l-3.1-5.4L155,182.3c-2,1.2-3.2,3.4-3.1,5.7l1.1,24.2
					c0.1,1.9,1.1,3.7,2.7,4.8c1.6,1.1,3.6,1.4,5.5,0.8l12.1-3.9l-1.9-6l-3.1-5.4l-12,6.9c-2,1.2-3.2,3.4-3.1,5.7l0.8,18.1
					c0.1,1.9,1.1,3.7,2.7,4.8c1.6,1.1,3.6,1.4,5.5,0.8l24-7.7l-1.9-6l-3.1-5.4l-23.7,13.7c-2,1.2-3.2,3.4-3.1,5.7l1.5,33l6.2-0.3
					l-6.2-0.3c0,0.4-0.1,0.8-0.1,1.4c-0.2,2.1,0.7,4.1,2.3,5.4c1.6,1.3,3.8,1.7,5.8,1.1l11.8-3.8l-1.9-6l-3.1-5.4l-12.2,7
					c-1.6,0.9-2.7,2.5-3,4.4c-0.4,2.2-0.9,3.9-1.6,5.2c-0.6,1.3-1.3,2.1-2,2.7L155.5,288.5l-3.4-5.2L155.5,288.5z M116.4,167
					l1.9,5.9l17.7-5.8l-1.9-5.9l-6.2,0.3l0.1,2l-13.2,4.3l1.9,5.9l6.2-0.3l-0.3-6.8L116.4,167l1.9,5.9L116.4,167l-6.2,0.3l0.3,6.8
					c0.1,2,1.1,3.7,2.7,4.9c1.6,1.1,3.6,1.4,5.5,0.8l17.7-5.8c2.7-0.9,4.4-3.4,4.3-6.2l-0.3-6.8c-0.1-2-1.1-3.7-2.7-4.9
					c-1.6-1.1-3.6-1.4-5.5-0.8l-17.7,5.8c-2.7,0.9-4.4,3.4-4.3,6.2L116.4,167z M117.4,187.4l1.9,5.9l17.7-5.8l-1.9-5.9l-6.2,0.3
					l0.1,2l-13.2,4.3l1.9,5.9l6.2-0.3l-0.3-6.8L117.4,187.4l1.9,5.9L117.4,187.4l-6.2,0.3l0.3,6.8c0.1,2,1.1,3.7,2.7,4.9
					c1.6,1.1,3.6,1.4,5.5,0.8l17.7-5.8c2.7-0.9,4.4-3.4,4.3-6.2l-0.3-6.8c-0.1-2-1.1-3.7-2.7-4.9c-1.6-1.1-3.6-1.4-5.5-0.8
					l-17.7,5.8c-2.7,0.9-4.4,3.4-4.3,6.2L117.4,187.4z"/>
				<path class="st7" d="M155.5,288.5c3-2.4,4.9-6.3,5.9-11.7l12.2-7l-11.8,3.8c0-0.6,0.1-1.1,0.1-1.7l-1.5-33l23.7-13.7l-24,7.7
					l-0.8-18.1l12-6.9l-12.1,3.9l-1.1-24.2l23.5-13.5l-23.8,7.6l-0.2-4.3l10.2-5.9l-10.3,3.3l-0.7-16.4l16-9.2l-16.2,5.2l-0.6-12.3
					l22-12.7l-22.2,7.1l0-0.4L92,157.1l2.8,62.4l41.3-13.5l3,66.5l-9.4,3.1l1.1,23.1l15.3-5C148.1,293,151.2,291.3,155.5,288.5z
					 M116.4,167l17.7-5.8l0.3,6.8l-17.7,5.8L116.4,167z M117.4,187.4l17.7-5.8l0.3,6.8l-17.7,5.8L117.4,187.4z"/>
				<polygon class="st6" points="402.7,197.3 410.9,194.6 402.7,199.3 403.2,212.5 366.2,225.6 365.9,215.7 365,191.2 364.8,186.2 
					401.8,173.1 402.1,179.4 416.1,174.9 402.2,182.9 				"/>
				<polygon class="st6" points="398.6,80.7 399.9,117.5 413.9,113 400,121 400.5,135.4 408.7,132.8 400.6,137.5 401.5,164.5 
					364.5,177.6 363.8,157.1 362.8,129.9 361.7,95.9 360.8,71.4 360.6,65.7 397.6,52.6 397.9,60 415.3,54.4 398,64.3 398.5,77.9 
					410.1,74.1 				"/>
				<path class="st6" d="M402.7,197.3l1.9,6l8.2-2.6l-1.9-6l-3.1-5.4l-11.4,6.5l0.4,12.4l-24.7,8.7l0-1.4l0,0l-0.9-24.5l0,0l0-0.4
					l32.7-11.6l-2.1-5.9l-6.2,0.2l0.5,14.5l21.9-7l-1.9-6l-3.1-5.4l-17.2,9.9l0.9,26.4l7.9-2.5L402.7,197.3l6.2-0.2l-0.4-10.6
					l35.9-20.7c3.3-1.9,1.1-6.8-2.5-5.7l-41.8,13.4l1.9,6l6.2-0.2l-0.5-14.8l-49.4,17.5l0.3,9.6l0.9,24.5l0,0l0.6,18.5l49.4-17.5
					l-0.5-14l30.3-17.4c3.3-1.9,1.1-6.9-2.5-5.7l-36.2,11.6L402.7,197.3l6.2-0.2L402.7,197.3z"/>
				<path class="st6" d="M398.6,80.7l-6.2,0.2l1.6,45.1l21.9-7l-1.9-6l-3.1-5.4l-17.1,9.9l0.9,26.4l16-5.2l-1.9-6l-3.1-5.4
					l-11.3,6.5l0.9,26.2l-24.7,8.7l-0.4-11.9v0l-0.9-27.3l-1.2-34l-0.9-24.4l0-1.2l32.7-11.6l-2.1-5.9l-6.2,0.2l0.6,15.6l25.3-8.1
					l-1.9-6l-3.1-5.4l-20.6,11.9l0.9,25.5l19.5-6.3l-1.9-6l-3.1-5.4l-14.8,8.5l0.1,3.8L398.6,80.7l3.1,5.4l47-27
					c2-1.2,0.7-4.2-1.6-3.5l-42.7,13.7l-0.1-1.5l49.1-28.3c2-1.2,0.6-4.2-1.6-3.5l-56,18l1.9,6l6.2-0.2l-0.6-15.9l-49.4,17.5
					l0.4,10.3l0.9,24.4l1.2,34l1,27.9l1,28.4l49.4-17.5l-1-27.9l40.4-23.2c2-1.2,0.7-4.2-1.6-3.5L406.5,127l-0.1-2.4l45.8-26.4
					c2-1.2,0.6-4.2-1.6-3.5l-44.7,14.4l-1-28.5L398.6,80.7l3.1,5.4L398.6,80.7z"/>
				<polygon class="st6" points="402.7,197.3 410.9,194.6 402.7,199.3 403.2,212.5 366.2,225.6 365.9,215.7 365,191.2 364.8,186.2 
					401.8,173.1 402.1,179.4 416.1,174.9 402.2,182.9 				"/>
				<polygon class="st7" points="402.7,197.3 410.9,194.6 402.7,199.3 403.2,212.5 366.2,225.6 365.9,215.7 365,191.2 364.8,186.2 
					401.8,173.1 402.1,179.4 416.1,174.9 402.2,182.9 				"/>
				<polygon class="st6" points="398.6,80.7 399.9,117.5 413.9,113 400,121 400.5,135.4 408.7,132.8 400.6,137.5 401.5,164.5 
					364.5,177.6 363.8,157.1 362.8,129.9 361.7,95.9 360.8,71.4 360.6,65.7 397.6,52.6 397.9,60 415.3,54.4 398,64.3 398.5,77.9 
					410.1,74.1 				"/>
				<polygon class="st7" points="398.6,80.7 399.9,117.5 413.9,113 400,121 400.5,135.4 408.7,132.8 400.6,137.5 401.5,164.5 
					364.5,177.6 363.8,157.1 362.8,129.9 361.7,95.9 360.8,71.4 360.6,65.7 397.6,52.6 397.9,60 415.3,54.4 398,64.3 398.5,77.9 
					410.1,74.1 				"/>
			</g>
		</g>
		<path class="st0" d="M220.4,304.9c-8.8,1.3-13.1,2.9-21.6,6.2c0.5,3.3,0.7,4.9,1.1,8.1c8.5-3.4,12.8-5,21.6-6.2
			C221.1,309.8,220.9,308.2,220.4,304.9z"/>
		<path class="st0" d="M242.6,310.3l3-1c-0.4,1.6-1.5,2.8-3.2,3.7c-2.8,1-4.5-0.5-4.9-4.4c-0.3-4.2,0.8-6.8,3.3-7.7
			c1.9-0.6,3.1-0.1,3.7,1.5l6.5-2.2c-1.5-4.9-5.1-6.4-10.6-4.7c-6.7,2.6-10,7.8-9.6,15.4c0.9,7,4.5,9.5,11,7.6c2.8-1,4.8-2.5,6-4.6
			l0.4,2.1l4.4-1.5l-1.1-12l-9.3,3.2L242.6,310.3z"/>
		<path class="st0" d="M270.9,305.7l-0.7-7.3c-0.2-2.6-0.8-4.2-1.9-4.6c-1.2-0.6-3.3-0.5-6.2,0.5c-5.5,1.9-8.1,4.6-7.7,8.1l5.7-1.9
			c0-1.1,0.6-1.8,1.9-2.2c1.3-0.5,2.1-0.3,2.1,0.6c-0.1,1.1-1.3,2-3.4,2.8c-4,1.1-6.2,3.7-6.7,7.8c0.4,2.9,2.4,3.8,5.8,2.8
			c2.5-0.8,4.3-2,5.5-3.8l0.4,1.6l6.1-2.1l0-0.4C271.3,307.2,271,306.6,270.9,305.7z M262.3,307.9c-1.2,0.3-1.9,0.1-2-0.8
			c-0.2-1,0.6-1.9,2.3-2.7c1-0.5,1.6-0.9,2.1-1.3C264.9,305.6,264.1,307.2,262.3,307.9z"/>
		<path class="st0" d="M278.8,283.9l-5.9,2l0.5,5l-2.1,0.7l0.3,3.7l2.1-0.7l0.6,6.6c0.2,2.9,0.8,4.4,1.9,4.5
			c0.8,0.3,3.2-0.3,7.3-1.9l-0.4-4.5l-1,0.3c-1.3,0.6-2,0.1-2-1.4l-0.5-5.7l2.8-1l-0.3-3.7l-2.8,1L278.8,283.9z"/>
		<path class="st0" d="M292.2,284c-5.3,2.1-7.9,6-7.7,11.4c0.7,5.1,3.8,6.9,9.2,5.2c4.6-1.7,7.2-4.3,7.8-7.8l-5.6,1.9
			c-0.4,1-1.1,1.7-2.1,2.1c-1.9,0.5-3-0.2-3.3-2.1l11.4-3.9C301.2,284.6,297.9,282.3,292.2,284z M290.2,291.5
			c-0.1-1.8,0.8-3.1,2.5-3.7c1.7-0.4,2.6,0.2,2.9,1.8L290.2,291.5z"/>
		<path class="st0" d="M266.1,330c-2,0.3-3.1,0.2-3.1-0.4c-0.1-0.8,0.4-1.4,1.6-1.8c0.4-0.2,0.9-0.1,1.3,0.1
			c0.4,0.1,0.6,0.4,0.7,0.9l5.5-1.9c-0.6-3.2-3.3-4-7.9-2.4c-4.6,1.7-6.8,4.3-6.5,7.6c1,3,3.1,4,6.5,3c2.1-0.3,3.2-0.1,3.3,0.6
			c0.1,0.9-0.5,1.6-1.8,2.1c-0.6,0.1-1.1,0.1-1.5,0c-0.5-0.2-0.7-0.6-0.8-1.3l-5.7,1.9c0.6,3.3,3.3,4.2,8.1,2.6
			c5.3-1.9,7.8-4.6,7.5-8.1C272,330,269.7,329,266.1,330z"/>
		<path class="st0" d="M284.1,317.6c-1.9,0.6-3.3,2-4.2,4l-0.7-7.9l-6,2.1l2,21.8l6-2.1l-0.8-8.1c-0.3-2.3,0.4-3.6,1.9-4.1
			c1.4-0.5,2.2,0.3,2.4,2.2l0.8,8.4l5.9-2l-0.9-9.5C290.2,317.9,288,316.3,284.1,317.6z"/>
		<path class="st0" d="M303.2,319.4c0.3,2.7-0.4,4.2-1.9,4.7c-1.5,0.6-2.3-0.2-2.4-2.2l-0.8-8.5l-6,2.1l0.9,9.7
			c0.5,4.2,2.4,5.7,6,4.6c1.3-0.5,2.4-1,3.2-1.6c0.7-0.6,1.4-1.6,2-2.9l0.2,2.4l5.5-1.9l-1.5-15.9l-5.9,2L303.2,319.4z"/>
		<path class="st0" d="M317.2,301.7l-5.9,2l0.5,5l-2.1,0.7l0.3,3.7l2.1-0.7l0.6,6.6c0.2,2.9,0.8,4.4,1.9,4.5
			c0.8,0.3,3.2-0.3,7.3-1.9l-0.4-4.5l-1,0.3c-1.3,0.6-2,0.1-2-1.4l-0.5-5.7l2.8-1l-0.3-3.7l-2.8,1L317.2,301.7z"/>
		<path class="st0" d="M156,326.2c0.5,3.3,0.7,4.9,1.1,8.1c8.8-1.3,13.1-2.9,21.6-6.2c-0.5-3.3-0.7-4.9-1.1-8.1
			C169,323.3,164.8,324.9,156,326.2z"/>
		<path class="st0" d="M200,319.3c-8.5,3.4-12.7,5.5-21.2,8.8c0.5,3.3,0.7,4.9,1.1,8.1c8.5-3.4,12.7-5.5,21.2-8.8
			C200.6,324.2,200.4,322.5,200,319.3z"/>
		<path class="st0" d="M158.2,342.5c0.5,3.3,0.7,4.9,1.1,8.1c8.8-1.3,13.1-2.9,21.6-6.2c-0.5-3.3-0.7-4.9-1.1-8.1
			C171.3,339.6,167,341.2,158.2,342.5z"/>
		<path class="st0" d="M202.2,335.6c-8.5,3.4-12.7,5.5-21.2,8.8c0.5,3.3,0.7,4.9,1.1,8.1c8.5-3.4,12.7-5.5,21.2-8.8
			C202.9,340.4,202.7,338.8,202.2,335.6z"/>
		<path class="st0" d="M223.8,329.3c-0.5-3.3-0.7-4.9-1.1-8.1c-8.8,1.3-13.1,2.9-21.6,6.2c0.5,3.3,0.7,4.9,1.1,8.1
			C210.8,332.2,215,330.6,223.8,329.3z"/>
		<path class="st0" d="M160.5,358.8c0.5,3.3,0.7,4.9,1.1,8.1c8.8-1.3,13.1-2.9,21.6-6.2c-0.5-3.3-0.7-4.9-1.1-8.1
			C173.6,355.9,169.3,357.5,160.5,358.8z"/>
		<path class="st0" d="M184.4,368.8c8.5-3.4,12.7-5.5,21.2-8.8c-0.5-3.3-0.7-4.9-1.1-8.1c-8.5,3.4-12.7,5.5-21.2,8.8
			C183.7,363.9,183.9,365.5,184.4,368.8z"/>
		<path class="st0" d="M225,337.5c-8.8,1.3-13.1,2.9-21.6,6.2c0.5,3.3,0.7,4.9,1.1,8.1c8.5-3.4,12.8-5,21.6-6.2
			C225.7,342.4,225.4,340.7,225,337.5z"/>
		<g>
			<path class="st0" d="M331.4,313.5c-0.1-1.2,0-2.2,0.3-3.1c0.3-0.9,0.7-1.7,1.2-2.3c0.6-0.7,1.2-1.2,2-1.6c0.8-0.4,1.6-0.8,2.6-1
				c0.9-0.2,1.7-0.3,2.5-0.3c0.8,0,1.5,0.2,2.2,0.6c0.6,0.3,1.2,0.9,1.6,1.6c0.4,0.7,0.7,1.7,0.8,2.8c0.1,1.1,0,2.1-0.3,3
				c-0.3,0.9-0.7,1.7-1.3,2.3c-0.6,0.7-1.2,1.2-2,1.7c-0.8,0.4-1.6,0.8-2.5,1c-0.9,0.2-1.8,0.3-2.6,0.3c-0.8,0-1.6-0.2-2.2-0.6
				c-0.6-0.4-1.2-0.9-1.6-1.6C331.7,315.5,331.5,314.6,331.4,313.5z M341.5,297.8l-9.1,2.3l-5.1-36.2l13-3.3L341.5,297.8z"/>
		</g>
	</g>
</g>
</svg>
