<?xml version="1.0" encoding="utf-8"?>
<!-- Generator: Adobe Illustrator 27.1.1, SVG Export Plug-In . SVG Version: 6.00 Build 0)  -->
<svg version="1.1" id="Layer_1" xmlns="http://www.w3.org/2000/svg" xmlns:xlink="http://www.w3.org/1999/xlink" x="0px" y="0px"
	 viewBox="0 0 861.3 407.9" style="enable-background:new 0 0 861.3 407.9;" xml:space="preserve">
<style type="text/css">
	.st0{fill:#FFFFFF;}
	.st1{fill:#FCCA03;}
	.st2{fill:#1E1E1C;}
	.st3{fill:#FFCE05;}
	.st4{fill:#161413;}
	.st5{fill:#FFCC03;}
	.st6{fill:#020203;}
	.st7{fill:#FECA05;}
</style>
<g>
	<path class="st0" d="M48.7,335.4L31.9,338l-3.1,7.8l-12.4,1.9l25-63.7l29.2-4.5L48.7,335.4z M49,294.3l-12.4,31.4l4.2-0.6
		l12.4-31.4L49,294.3z M57.4,324.6l47.3-7.3l-13.1,33.5l-13.4,2.1l1-2.5L58,353.6l-1.1,2.8l-12.7,2L57.4,324.6z M115.7,301.1
		l-4.5,11.4l-55.6,8.6l4.5-11.4L71,308c0.8-1.3,1.6-2.6,2.3-3.8c0.7-1.3,1.5-2.6,2.2-4l-9.3,1.4l4.4-11.1l11.2-1.7l2.7-5L70.1,286
		l4.4-11.1l52.2-8l-4.4,11.1l-24,3.7l-2.8,5l7.5-1.2l2.4-0.8l9.7-1c-1.3,3.3-2.7,6.5-4.2,9.7c-1.5,3.2-2.9,6.2-4.4,9.2L115.7,301.1z
		 M65.7,334l-3.2,8.2l21.3-3.3l3.2-8.2L65.7,334z M89.2,298c-0.8,1.4-1.5,2.7-2.3,4c-0.7,1.3-1.5,2.6-2.2,3.8l8.5-1.3
		c0.6-1.2,1.2-2.5,1.8-3.9c0.6-1.3,1.2-2.6,1.7-3.9L89.2,298z"/>
	<path class="st0" d="M121.9,306.2l85.5-13.2l-4,10.2l-36.4,5.6c-0.5,0.6-0.9,1.2-1.3,1.8c-0.4,0.6-0.8,1.1-1.3,1.7l32.9-5.1
		l-6.9,17.6c-1,2.6-2.1,4.7-3.3,6.3c-1.2,1.6-2.8,3-4.8,4.1c-2,1.1-4.1,1.9-6.3,2.4c-2.1,0.5-4.5,0.9-7,1.3c0.4-1.6,0.6-3.4,0.6-5.3
		c0-1.9-0.1-3.5-0.3-4.9c1.1-0.1,2.2-0.3,3.5-0.4c1.3-0.2,2.1-0.3,2.6-0.4c0.9-0.1,1.5-0.6,1.8-1.3l2.8-7.2l-7.9,1.2l-7.3,18.5
		l-12.4,1.9l7.3-18.5l-7.6,1.2l-7.3,18.5l-12.4,1.9l7.3-18.5l-7.2,1.1l-7.4,18.8l-13,2l11.4-29.1l27.6-4.3c0.3-0.6,0.7-1.1,1-1.7
		c0.3-0.5,0.6-1.1,0.9-1.7l-35.1,5.4L121.9,306.2z M219.1,263.4l-7.3,18.6l-12.7,2l3.9-9.8l-23.8,3.7l-7.3,18.7l-13.2,2l7.3-18.7
		l-23.7,3.7l-3.9,9.8l-12.1,1.9l7.3-18.6l35.9-5.5l0.9-2.2l-28.8,4.4l3.9-9.9l71-10.9l-3.9,9.9l-28.9,4.5l-0.9,2.2L219.1,263.4z
		 M138.2,294.6l21-3.2l-3,7.5l-21,3.2L138.2,294.6z M159.9,289.6l-18.9,2.9l3-7.5l18.9-2.9L159.9,289.6z M177.2,288.6l21-3.2l-3,7.6
		l-21,3.2L177.2,288.6z M199.8,276.3l-3,7.5l-18.9,2.9l3-7.5L199.8,276.3z"/>
	<path class="st0" d="M280,296.8c-3.6,4.2-7.3,7.9-11.1,11.1c3.7,0.5,7.2,1,10.5,1.6c3.3,0.5,6.2,1.1,8.7,1.7l-12.5,12.1
		c-2.9-0.8-6.2-1.6-10.1-2.5c-3.8-0.8-8-1.6-12.4-2.4c-6.2,3.3-13.1,6.1-20.7,8.5c-7.6,2.4-16.1,4.6-25.5,6.8
		c0.3-1.9,0.4-3.8,0.3-5.8c-0.1-2-0.4-3.6-1-4.8c5.6-1,10.9-2.1,15.7-3.3c4.8-1.1,9.4-2.4,13.5-3.8l-4.1-0.4l-0.7,0.7l-11.9-1.8
		c2.9-2.8,6.3-6,10.1-9.8l-18.4,2.8l4.2-10.7l25.6-3.9c0.8-0.9,1.6-1.7,2.4-2.5c0.8-0.8,1.6-1.6,2.3-2.4l-22.9,3.5l10.7-27.1
		l20.3-3.1l1.4-3.7l-24.5,3.8l4.5-11.5l83.8-12.9l-4.5,11.5l-25.1,3.9l-1.4,3.7l22.7-3.5l-10.7,27.1l-38.7,6l-4.6,4.9l46.3-7.1
		L298,294L280,296.8z M239,279.2l7.4-1.1l2.5-6.4l-7.4,1.1L239,279.2z M242,305c2.3,0.2,4.6,0.4,7,0.6c2.3,0.2,4.6,0.5,6.9,0.8
		c3.1-2.1,6-4.5,8.7-7.1l-19.8,3.1L242,305z M267.6,274.8l2.5-6.4l-8.2,1.3l-2.5,6.4L267.6,274.8z M266,259.2l8.2-1.3l1.4-3.7
		l-8.2,1.3L266,259.2z M283.1,266.3l-2.5,6.4l8.9-1.4l2.5-6.4L283.1,266.3z"/>
	<path class="st0" d="M335.7,296.6c-6.1,2.6-12.3,5.2-18.6,7.9c-6.3,2.6-12.1,5.1-17.4,7.3l2.3-13.1c1.7-0.6,3.6-1.3,5.6-2.1
		c2-0.8,4.2-1.6,6.4-2.5l7.7-19.7l-8.9,1.4l4.8-12.2l8.9-1.4l5.5-14.1l-9.8,1.5l4.8-12.3l32.5-5l-4.8,12.3l-9.7,1.5l-5.5,14.1l8-1.2
		l-4.8,12.2l-8,1.2l-6.2,15.9c1.6-0.7,3.3-1.4,4.9-2.1c1.6-0.7,3.2-1.3,4.8-1.9L335.7,296.6z M390.7,291.1l-4.7,12l-61.1,9.4l4.7-12
		l24.8-3.8l2.6-6.6l-18.5,2.9l4.7-11.9l18.5-2.9l2.5-6.3l-18.2,2.8l17.3-43.9l50.6-7.8l-17.3,43.9l-18.2,2.8l-2.5,6.2l19.1-2.9
		l-4.7,11.9l-19.1,2.9l-2.6,6.6L390.7,291.1z M362.7,261.6l7.1-1.1l2.2-5.6l-7.1,1.1L362.7,261.6z M369,245.6l7.1-1.1l2.2-5.5
		l-7.1,1.1L369,245.6z M390,252.1l-6.5,1l-2.2,5.6l6.5-1L390,252.1z M396.2,236.2l-6.5,1l-2.2,5.5l6.5-1L396.2,236.2z"/>
	<path class="st1" d="M112.3,218.7c-0.1-1.9-0.3-4.1-0.6-6.4c-0.3-2.4-0.7-4.7-1.1-7.1l-20,51l-20,3.1l17.1-43.4
		c-3.6,4.6-7.2,8.9-10.8,13c-3.6,4.1-7.1,7.8-10.6,11.1c0.2-2.8,0.1-6-0.3-9.5c-0.4-3.5-0.9-6.4-1.5-8.7c5.5-4.9,11.1-10.7,17-17.4
		c5.9-6.7,11.2-13.3,16-19.8l-17.8,2.8l7.5-19l20.6-3.2l5.1-13.1c-2.6,0.7-5.1,1.5-7.6,2.2c-2.5,0.7-4.9,1.3-7.3,1.9
		c0.5-2.2,0.8-4.7,0.9-7.6c0.1-2.9,0-5.3-0.2-7.3c8.8-2.5,17.8-5.4,27-8.8c9.2-3.4,17.4-6.7,24.7-10.1l4.9,14.9
		c-3.3,1.4-6.7,2.8-10.2,4.1c-3.5,1.4-7.1,2.7-10.7,4l-6.6,16.7l17-2.6l-7.5,19l-17,2.6l-0.6,1.5l0.2-0.2c0.6,0.7,1.5,1.9,2.5,3.6
		c1.1,1.7,2.2,3.5,3.4,5.5c1.2,2,2.3,3.8,3.2,5.5c1,1.7,1.6,2.9,2,3.7L112.3,218.7z M195.9,218.3l-7.4,18.8l-86.3,13.3l7.4-18.8
		l12.9-2l40.8-103.9l61.5-9.5L184,220.1L195.9,218.3z M142.8,226.5l19.9-3.1l6.5-16.6l-19.9,3.1L142.8,226.5z M182.8,172.3
		l-19.9,3.1l-6.4,16.3l19.9-3.1L182.8,172.3z M176.3,141.4l-6.2,15.7L190,154l6.2-15.7L176.3,141.4z"/>
	<path class="st1" d="M339.3,201l-57,8.8l-7,17.8l-21.9,3.4l7-17.8l-55,8.5l7.2-18.4l55-8.5l2.1-5.3l-40.9,6.3l22.7-57.9l40.9-6.3
		l1.9-4.8l-51.9,8l7.2-18.4l51.9-8l4.3-10.8l21.9-3.4l-4.3,10.8l52.9-8.2l-7.2,18.4l-52.9,8.2l-1.9,4.8l41.8-6.4l-22.7,57.9
		l-41.8,6.4l-2.1,5.3l57-8.8L339.3,201z M276,173.2l2.1-5.3l-20.6,3.2l-2.1,5.3L276,173.2z M263.4,156l20.6-3.2l2-5.2l-20.6,3.2
		L263.4,156z M320.5,161.4l-20.4,3.2l-2.1,5.3l20.4-3.2L320.5,161.4z M308,144.3l-2,5.2l20.4-3.2l2-5.2L308,144.3z"/>
	<path class="st0" d="M48.7,335.4L31.9,338l-3.1,7.8l-12.4,1.9l25-63.7l29.2-4.5L48.7,335.4z M49,294.3l-12.4,31.4l4.2-0.6
		l12.4-31.4L49,294.3z M57.4,324.6l47.3-7.3l-13.1,33.5l-13.4,2.1l1-2.5L58,353.6l-1.1,2.8l-12.7,2L57.4,324.6z M115.7,301.1
		l-4.5,11.4l-55.6,8.6l4.5-11.4L71,308c0.8-1.3,1.6-2.6,2.3-3.8c0.7-1.3,1.5-2.6,2.2-4l-9.3,1.4l4.4-11.1l11.2-1.7l2.7-5L70.1,286
		l4.4-11.1l52.2-8l-4.4,11.1l-24,3.7l-2.8,5l7.5-1.2l2.4-0.8l9.7-1c-1.3,3.3-2.7,6.5-4.2,9.7c-1.5,3.2-2.9,6.2-4.4,9.2L115.7,301.1z
		 M65.7,334l-3.2,8.2l21.3-3.3l3.2-8.2L65.7,334z M89.2,298c-0.8,1.4-1.5,2.7-2.3,4c-0.7,1.3-1.5,2.6-2.2,3.8l8.5-1.3
		c0.6-1.2,1.2-2.5,1.8-3.9c0.6-1.3,1.2-2.6,1.7-3.9L89.2,298z"/>
	<path class="st0" d="M121.9,306.2l85.5-13.2l-4,10.2l-36.4,5.6c-0.5,0.6-0.9,1.2-1.3,1.8c-0.4,0.6-0.8,1.1-1.3,1.7l32.9-5.1
		l-6.9,17.6c-1,2.6-2.1,4.7-3.3,6.3c-1.2,1.6-2.8,3-4.8,4.1c-2,1.1-4.1,1.9-6.3,2.4c-2.1,0.5-4.5,0.9-7,1.3c0.4-1.6,0.6-3.4,0.6-5.3
		c0-1.9-0.1-3.5-0.3-4.9c1.1-0.1,2.2-0.3,3.5-0.4c1.3-0.2,2.1-0.3,2.6-0.4c0.9-0.1,1.5-0.6,1.8-1.3l2.8-7.2l-7.9,1.2l-7.3,18.5
		l-12.4,1.9l7.3-18.5l-7.6,1.2l-7.3,18.5l-12.4,1.9l7.3-18.5l-7.2,1.1l-7.4,18.8l-13,2l11.4-29.1l27.6-4.3c0.3-0.6,0.7-1.1,1-1.7
		c0.3-0.5,0.6-1.1,0.9-1.7l-35.1,5.4L121.9,306.2z M219.1,263.4l-7.3,18.6l-12.7,2l3.9-9.8l-23.8,3.7l-7.3,18.7l-13.2,2l7.3-18.7
		l-23.7,3.7l-3.9,9.8l-12.1,1.9l7.3-18.6l35.9-5.5l0.9-2.2l-28.8,4.4l3.9-9.9l71-10.9l-3.9,9.9l-28.9,4.5l-0.9,2.2L219.1,263.4z
		 M138.2,294.6l21-3.2l-3,7.5l-21,3.2L138.2,294.6z M159.9,289.6l-18.9,2.9l3-7.5l18.9-2.9L159.9,289.6z M177.2,288.6l21-3.2l-3,7.6
		l-21,3.2L177.2,288.6z M199.8,276.3l-3,7.5l-18.9,2.9l3-7.5L199.8,276.3z"/>
	<path class="st0" d="M280,296.8c-3.6,4.2-7.3,7.9-11.1,11.1c3.7,0.5,7.2,1,10.5,1.6c3.3,0.5,6.2,1.1,8.7,1.7l-12.5,12.1
		c-2.9-0.8-6.2-1.6-10.1-2.5c-3.8-0.8-8-1.6-12.4-2.4c-6.2,3.3-13.1,6.1-20.7,8.5c-7.6,2.4-16.1,4.6-25.5,6.8
		c0.3-1.9,0.4-3.8,0.3-5.8c-0.1-2-0.4-3.6-1-4.8c5.6-1,10.9-2.1,15.7-3.3c4.8-1.1,9.4-2.4,13.5-3.8l-4.1-0.4l-0.7,0.7l-11.9-1.8
		c2.9-2.8,6.3-6,10.1-9.8l-18.4,2.8l4.2-10.7l25.6-3.9c0.8-0.9,1.6-1.7,2.4-2.5c0.8-0.8,1.6-1.6,2.3-2.4l-22.9,3.5l10.7-27.1
		l20.3-3.1l1.4-3.7l-24.5,3.8l4.5-11.5l83.8-12.9l-4.5,11.5l-25.1,3.9l-1.4,3.7l22.7-3.5l-10.7,27.1l-38.7,6l-4.6,4.9l46.3-7.1
		L298,294L280,296.8z M239,279.2l7.4-1.1l2.5-6.4l-7.4,1.1L239,279.2z M242,305c2.3,0.2,4.6,0.4,7,0.6c2.3,0.2,4.6,0.5,6.9,0.8
		c3.1-2.1,6-4.5,8.7-7.1l-19.8,3.1L242,305z M267.6,274.8l2.5-6.4l-8.2,1.3l-2.5,6.4L267.6,274.8z M266,259.2l8.2-1.3l1.4-3.7
		l-8.2,1.3L266,259.2z M283.1,266.3l-2.5,6.4l8.9-1.4l2.5-6.4L283.1,266.3z"/>
	<path class="st0" d="M335.7,296.6c-6.1,2.6-12.3,5.2-18.6,7.9c-6.3,2.6-12.1,5.1-17.4,7.3l2.3-13.1c1.7-0.6,3.6-1.3,5.6-2.1
		c2-0.8,4.2-1.6,6.4-2.5l7.7-19.7l-8.9,1.4l4.8-12.2l8.9-1.4l5.5-14.1l-9.8,1.5l4.8-12.3l32.5-5l-4.8,12.3l-9.7,1.5l-5.5,14.1l8-1.2
		l-4.8,12.2l-8,1.2l-6.2,15.9c1.6-0.7,3.3-1.4,4.9-2.1c1.6-0.7,3.2-1.3,4.8-1.9L335.7,296.6z M390.7,291.1l-4.7,12l-61.1,9.4l4.7-12
		l24.8-3.8l2.6-6.6l-18.5,2.9l4.7-11.9l18.5-2.9l2.5-6.3l-18.2,2.8l17.3-43.9l50.6-7.8l-17.3,43.9l-18.2,2.8l-2.5,6.2l19.1-2.9
		l-4.7,11.9l-19.1,2.9l-2.6,6.6L390.7,291.1z M362.7,261.6l7.1-1.1l2.2-5.6l-7.1,1.1L362.7,261.6z M369,245.6l7.1-1.1l2.2-5.5
		l-7.1,1.1L369,245.6z M390,252.1l-6.5,1l-2.2,5.6l6.5-1L390,252.1z M396.2,236.2l-6.5,1l-2.2,5.5l6.5-1L396.2,236.2z"/>
	<path class="st1" d="M427.3,146.1c-1.5,0.2-2.6-0.1-3.2-1c-0.7-0.9-0.7-2.1-0.2-3.6l18.5-48.9c0.6-1.5,1.6-2.8,3.1-4.1
		c1.5-1.2,3-2,4.4-2.2l21.2-3.4c1.5-0.2,2.6,0.1,3.3,1c0.6,0.9,0.7,2.1,0.1,3.6l-0.6,1.5c-0.6,1.5-1.6,2.8-3,4.1
		c-1.5,1.2-2.9,2-4.5,2.2l-12.5,2c-0.4,0.1-0.7,0.3-0.9,0.7l-15.6,41.4c-0.6,1.5-1.6,2.8-3.1,4.1c-1.5,1.2-3,2-4.4,2.2L427.3,146.1z
		"/>
	<path class="st1" d="M493.3,229.9c-22,35.1-35.9,54.7-57.4,80.8l-20.9-21.4c3.6-3.2,5.7-5.2,9.2-9.3c15.4-17.2,29-36.2,47.3-65.8
		L493.3,229.9z M485.1,153.1c14.1,7.1,20.5,11.1,32.4,21.5l-31.2,32.5c-11.4-11.4-18.2-16.4-31.7-24L485.1,153.1z M513.6,148
		c-10.7-12.2-16-16.5-29.9-25.2l31.7-29.1c13.9,7.6,19.4,11.4,31.2,22.4l-7.9,7.5c6.9-0.4,11.7-1,21.5-2.5l33.9-5.4l5.1-13.4
		c3.8-10.1,5.8-16.5,7.2-23l37.8-6c-3.9,7.3-6.8,13.9-11,25.2l-4.4,11.8L662,105c9.7-1.5,16.3-2.8,24.6-5
		c-4.2,8.9-7.3,16.3-11.4,27.2l-45.5,120.4c-5.1,13.4-7.6,21.4-10.9,32.3l-35.9,5.7l4-10.6l-77.2,12.2l-3.9,10.4l-35.5,5.6
		c4.4-9.4,7.7-17.5,12.1-29.2l47.4-125.4c4-10.6,6.4-17.5,8.2-24.1L513.6,148z M535.8,218l-13.9,36.7l20.9-3.3l13.9-36.7L535.8,218z
		 M561,151.3l-13.2,34.8l20.9-3.3l13.2-34.8L561,151.3z M599.2,242.4l13.9-36.7l-21.8,3.4l-13.9,36.7L599.2,242.4z M625,173.9
		l13.2-34.8l-21.8,3.4l-13.2,34.8L625,173.9z"/>
	<path class="st1" d="M690.2,253.2c1.5-0.2,2.5,0.1,3.2,1c0.7,0.9,0.7,2.1,0.2,3.6l-18.4,48.8c-0.6,1.5-1.6,2.9-3.1,4.1
		c-1.5,1.2-2.9,1.9-4.4,2.2l-21.2,3.4c-1.5,0.2-2.6-0.1-3.3-0.9c-0.7-0.9-0.7-2.1-0.1-3.6l0.5-1.4c0.6-1.5,1.6-2.8,3-4.1
		c1.5-1.2,2.9-2,4.5-2.2l12.5-2c0.4-0.1,0.7-0.3,0.9-0.7l15.6-41.4c0.6-1.5,1.6-2.8,3.1-4.1c1.5-1.2,3-2,4.4-2.2L690.2,253.2z"/>
	<path class="st2" d="M427.3,146.1l-1.4-8.9l0.5,3.4v-3.4c-0.3,0-0.4,0-0.5,0l0.5,3.4v-3.4v5.2l1-5.1c-0.4-0.1-0.7-0.1-1-0.1v5.2
		l1-5.1l-1.2,6.1l3.3-5.3c-0.7-0.4-1.5-0.7-2.1-0.8l-1.2,6.1l3.3-5.3l-3.4,5.4l5.1-3.8c-0.4-0.6-1.1-1.2-1.8-1.6l-3.4,5.4l5.1-3.8
		l0,0l-5,3.7l6-1.9c-0.2-0.7-0.6-1.3-0.9-1.8l-5,3.7l6-1.9l-5.6,1.8l5.9,0c0-0.5-0.1-1.1-0.3-1.8l-5.6,1.8l5.9,0h-3.8l3.6,1.3
		c0-0.1,0.2-0.5,0.2-1.3h-3.8l3.6,1.3l0,0l18.5-48.9l-0.8-0.3l0.8,0.4l0.1-0.1l-0.8-0.3l0.8,0.4l-0.2-0.1l0.2,0.1l0,0l-0.2-0.1
		l0.2,0.1c0,0,0,0,0.1-0.1c0.1-0.1,0.2-0.2,0.4-0.4l0,0c0.3-0.2,0.4-0.3,0.5-0.3l-0.1-0.3l0.1,0.3l0,0l-0.1-0.3l0.1,0.3l-0.6-1.5
		l0.3,1.6c0.2,0,0.3-0.1,0.4-0.1l-0.6-1.5l0.3,1.6l21.2-3.4l-0.5-3.1v3.1c0.3,0,0.4,0,0.5,0l-0.5-3.1v3.1v-5.1l-1,5
		c0.4,0.1,0.7,0.1,1,0.1v-5.1l-1,5l1.2-6.2l-3.3,5.3c0.7,0.5,1.5,0.7,2.1,0.8l1.2-6.2l-3.3,5.3l3.5-5.6l-5.3,3.8
		c0.4,0.6,1.1,1.3,1.9,1.8l3.5-5.6l-5.3,3.8l0,0l5.1-3.6l-5.9,1.8c0.2,0.6,0.5,1.3,0.9,1.8l5.1-3.6l-5.9,1.8l5.6-1.7h-5.8
		c0,0.5,0.1,1.1,0.3,1.7l5.6-1.7h-5.8h3.7l-3.5-1.3c0,0.1-0.2,0.5-0.2,1.3h3.7l-3.5-1.3l-0.6,1.5l0.6,0.2l-0.6-0.3l0,0.1l0.6,0.2
		l-0.6-0.3l0.1,0l-0.1-0.1l0,0l0.1,0l-0.1-0.1c0,0-0.1,0.2-0.5,0.5l0,0c-0.2,0.2-0.4,0.3-0.4,0.3l0.3,0.5l-0.2-0.6l-0.1,0l0.3,0.5
		l-0.2-0.6l0.4,1.4l-0.2-1.4c-0.1,0-0.2,0-0.2,0.1l0.4,1.4l-0.2-1.4l0,0l-12.5,2c-0.8,0.1-1.6,0.4-2.5,0.7c-1.3,0.5-2.5,1.4-3.5,2.5
		c-0.9,1-1.6,2.2-1.9,3.2l-15.6,41.4l0.8,0.3l-0.8-0.4l-0.1,0.1l0.8,0.3l-0.8-0.4l0.2,0.1l-0.2-0.1l0,0l0.2,0.1l-0.2-0.1
		c0,0,0,0-0.1,0.1c-0.1,0.1-0.2,0.2-0.4,0.4c-0.3,0.2-0.5,0.3-0.5,0.3l0.1,0.3l-0.1-0.3l0,0l0.1,0.3l-0.1-0.3l0.6,1.5l-0.3-1.6
		c-0.2,0-0.3,0.1-0.4,0.1l0.6,1.5l-0.3-1.6l-2.7,0.4L427.3,146.1l1.4,8.9l2.7-0.4c1.7-0.3,3.4-0.8,4.8-1.6c1.5-0.7,2.8-1.6,4-2.6
		c1.2-1,2.3-2.1,3.3-3.4c1-1.3,1.8-2.8,2.4-4.3l15.6-41.4l-7.1-2.7l6.3,4.2c0.4-0.6,0.6-1.1,0.8-1.6l-7.1-2.7l6.3,4.2l-6.6-4.4
		l4.2,6.7c1-0.6,1.9-1.5,2.4-2.3l-6.6-4.4l4.2,6.7l-4.1-6.6l1.2,7.7c0.8-0.1,1.9-0.5,2.9-1.1l-4.1-6.6l1.2,7.7l12.5-2l0,0
		c1.7-0.3,3.4-0.8,4.8-1.6c1.5-0.7,2.8-1.7,4-2.7l0,0c1.2-1,2.3-2.1,3.2-3.4c1-1.3,1.8-2.7,2.4-4.3l0.6-1.5c0.5-1.4,1-3.1,1-5
		c0-1.1-0.2-2.3-0.5-3.5c-0.4-1.2-0.9-2.4-1.6-3.4l0,0c-0.6-0.8-1.2-1.5-2-2.2c-1.2-1-2.6-1.7-3.9-2.1c-1.3-0.4-2.6-0.6-3.8-0.6
		c-0.8,0-1.6,0.1-2.3,0.2l-21.2,3.4c-1.7,0.3-3.4,0.8-4.8,1.6c-1.5,0.7-2.8,1.6-4,2.6l0,0c-1.2,1-2.3,2.1-3.3,3.4
		c-1,1.3-1.8,2.8-2.4,4.3l-18.5,48.9l0,0c-0.5,1.4-0.9,3.1-1,5c0,1.2,0.2,2.4,0.6,3.7c0.4,1.2,1,2.4,1.8,3.5l0,0
		c0.6,0.7,1.2,1.5,2,2.1c1.1,0.9,2.5,1.6,3.8,2c1.3,0.4,2.6,0.6,3.8,0.6c0.8,0,1.6-0.1,2.3-0.2L427.3,146.1z"/>
	<path class="st2" d="M493.3,229.9l-7.6-4.8c-10.9,17.5-19.8,31-28.6,43.4c-8.8,12.4-17.5,23.6-28.1,36.6l6.9,5.7l6.4-6.3L421.5,283
		l-6.4,6.3l5.9,6.7c1.9-1.7,3.5-3.1,5.1-4.7c1.6-1.6,3.1-3.3,5-5.4l-6.8-5.9l6.7,6c7.9-8.8,15.4-18.2,23.2-29
		c7.8-10.8,15.8-23.2,25.1-38l-7.6-4.7l-5.2,7.3l21.8,15.6L493.3,229.9l-7.6-4.8L493.3,229.9l5.2-7.3L476.8,207c-2-1.5-4.5-2-7-1.5
		c-2.4,0.5-4.6,1.9-5.9,4.1c-9.1,14.7-17,26.7-24.4,37.1c-7.4,10.4-14.5,19.2-21.9,27.5l-0.1,0.1c-1.7,1.9-2.9,3.3-4.1,4.5
		c-1.2,1.2-2.5,2.4-4.2,3.9c-1.8,1.6-2.9,3.9-3,6.4c-0.1,2.5,0.8,4.8,2.5,6.6l20.9,21.4c1.8,1.8,4.2,2.8,6.8,2.7
		c2.6-0.1,4.9-1.3,6.5-3.3c10.8-13.2,19.8-24.8,28.9-37.5c9-12.7,18.1-26.6,29.2-44.2c2.5-4,1.5-9.3-2.4-12L493.3,229.9z
		 M485.1,153.1l-4,8c3.5,1.7,6.4,3.3,9,4.7c3.9,2.2,7.1,4.2,10.4,6.5c3.3,2.4,6.8,5.2,11.1,9l5.9-6.7l-6.5-6.2l-31.2,32.5l6.5,6.2
		l6.4-6.3c-2.9-2.9-5.6-5.5-8.2-7.9c-3.9-3.5-7.7-6.5-11.8-9.3c-4.1-2.8-8.4-5.4-13.6-8.4l-4.4,7.8l6.3,6.4l30.5-30L485.1,153.1
		l-4,8L485.1,153.1l-6.3-6.4l-30.5,30c-2,2-3,4.8-2.6,7.6c0.4,2.8,2,5.2,4.5,6.6c3.3,1.9,6.1,3.5,8.7,5.1c3.8,2.4,7,4.7,10.3,7.4
		c3.3,2.7,6.7,5.9,10.8,10c1.7,1.7,4,2.7,6.4,2.6c2.4,0,4.7-1,6.4-2.8l31.2-32.5c1.7-1.8,2.6-4.1,2.5-6.6c-0.1-2.5-1.2-4.7-3.1-6.4
		c-3.1-2.7-5.8-5-8.5-7.1c-4-3.1-7.8-5.7-11.9-8.2c-4.1-2.5-8.5-4.8-13.9-7.5c-3.4-1.7-7.6-1.1-10.3,1.6L485.1,153.1z M513.6,148
		l6.8-5.9c-2.7-3.1-5.2-5.8-7.6-8.2c-3.6-3.6-7-6.7-10.9-9.6c-3.9-2.9-8.2-5.7-13.5-9l-4.7,7.6l6.1,6.6l31.7-29.1l-6.1-6.6l-4.3,7.9
		c3.4,1.9,6.3,3.4,8.8,4.9c3.7,2.3,6.7,4.3,9.8,6.7c3.1,2.5,6.5,5.4,10.8,9.4l6.1-6.6l-6.2-6.5l-7.9,7.5c-2.7,2.6-3.5,6.6-2,10.1
		c1.5,3.4,5,5.6,8.8,5.3c3.6-0.2,6.7-0.5,10.1-0.9c3.5-0.4,7.2-0.9,12.1-1.7l33.9-5.4c3.2-0.5,5.8-2.7,7-5.7l5.1-13.4
		c2-5.2,3.5-9.5,4.7-13.4c1.2-3.9,2.1-7.4,2.9-11l-8.8-1.8l1.4,8.9l37.8-6l-1.4-8.9l-7.9-4.2c-2,3.8-3.8,7.5-5.6,11.7
		c-1.8,4.2-3.7,8.8-5.9,14.5l-4.4,11.8c-1.1,3-0.6,6.3,1.4,8.8s5.2,3.7,8.4,3.2l33.4-5.3c4.9-0.8,9.1-1.5,13.2-2.3
		c4.1-0.8,8-1.7,12.2-2.8l-2.3-8.7l-8.1-3.9c-2.2,4.6-4.1,8.8-5.9,13.3c-1.9,4.5-3.7,9.1-5.7,14.6l-45.5,120.4
		c-5.1,13.5-7.8,21.9-11.1,32.9l8.6,2.6l-1.4-8.9l-35.9,5.7l1.4,8.9l8.4,3.2l4-10.6c1.1-3,0.6-6.3-1.4-8.8s-5.2-3.7-8.4-3.2
		l-77.2,12.2c-3.2,0.5-5.8,2.7-7,5.7l-2.1,5.5l-30.3,4.8l1.4,8.9l8.1,3.8c2.3-4.8,4.3-9.3,6.2-14.1c2-4.8,3.9-9.8,6.2-15.8
		l47.4-125.4c2-5.4,3.7-9.8,5-13.8c1.4-4,2.5-7.5,3.5-11c1.1-3.9-0.6-8-4.1-10.1c-3.5-2.1-7.9-1.5-10.8,1.3l-24.4,23.6L513.6,148
		l6.8-5.9L513.6,148l6.2,6.4l24.4-23.6l-6.2-6.4l-8.6-2.4c-0.9,3.1-1.9,6.3-3.1,10c-1.3,3.7-2.8,8-4.8,13.3L474,270.7
		c-2.2,5.8-4.1,10.7-6,15.3c-1.9,4.5-3.7,8.8-5.9,13.3c-1.4,3-1.1,6.6,0.9,9.2c2,2.7,5.3,4,8.6,3.5l35.5-5.6c3.2-0.5,5.8-2.7,7-5.7
		l2.1-5.5l72.1-11.4l-1.4-8.9l-8.4-3.2l-4,10.6c-1.1,3-0.6,6.3,1.4,8.8c2,2.5,5.2,3.7,8.4,3.2l35.9-5.7c3.4-0.5,6.2-3,7.2-6.3
		c3.2-10.8,5.7-18.5,10.7-31.7l45.5-120.4c2-5.4,3.8-9.8,5.5-14c1.7-4.2,3.5-8.1,5.5-12.4c1.5-3.1,1-6.9-1.2-9.6
		c-2.2-2.7-5.8-3.8-9.2-2.9c-4,1-7.5,1.9-11.2,2.6c-3.7,0.7-7.7,1.4-12.5,2.2l-33.4,5.3l1.4,8.9l8.4,3.2l4.4-11.8
		c2.1-5.6,3.8-9.9,5.5-13.6c1.7-3.8,3.2-7,5.1-10.5c1.6-3,1.3-6.6-0.6-9.4c-2-2.8-5.3-4.2-8.7-3.6l-37.8,6c-3.7,0.6-6.6,3.4-7.4,7
		c-0.6,3-1.4,5.9-2.5,9.3c-1.1,3.4-2.5,7.4-4.3,12.4l-3.2,8.5l-28.7,4.5c-4.8,0.8-8.3,1.3-11.4,1.6c-3.1,0.4-5.8,0.6-9.2,0.8
		l0.6,8.9l6.2,6.5l7.9-7.5c1.8-1.7,2.8-4.1,2.8-6.5c0-2.5-1.1-4.8-2.9-6.5c-3-2.8-5.7-5.2-8.2-7.3c-3.8-3.2-7.4-5.9-11.3-8.5
		c-3.9-2.6-8.2-5-13.5-7.9c-3.4-1.8-7.5-1.3-10.3,1.3l-31.7,29.1c-2.1,1.9-3.1,4.6-2.9,7.5c0.3,2.8,1.8,5.3,4.2,6.8
		c3.4,2.1,6.3,3.9,8.7,5.6c3.7,2.5,6.5,4.8,9.4,7.5c2.9,2.7,5.9,5.9,9.8,10.4c1.6,1.9,3.9,3,6.4,3.1c2.5,0.1,4.8-0.8,6.6-2.5
		L513.6,148z M535.8,218l-8.4-3.2l-13.9,36.7c-1.1,3-0.6,6.3,1.4,8.8c2,2.5,5.2,3.7,8.4,3.2l20.9-3.3c3.2-0.5,5.8-2.7,7-5.7
		l13.9-36.7c1.1-3,0.6-6.3-1.4-8.8c-2-2.5-5.2-3.7-8.4-3.2l-20.9,3.3c-3.2,0.5-5.8,2.7-7,5.7L535.8,218l1.4,8.9l5.6-0.9l-6.6,17.3
		l-0.5,0.1l8.4-22.2L535.8,218l1.4,8.9L535.8,218z M561,151.3l-8.4-3.2L539.4,183c-1.1,3-0.6,6.3,1.4,8.8c2,2.5,5.2,3.7,8.4,3.2
		l20.9-3.3c3.2-0.5,5.8-2.7,7-5.7l13.2-34.8c1.1-3,0.6-6.3-1.4-8.8c-2-2.5-5.2-3.7-8.4-3.2l-20.9,3.3c-3.2,0.5-5.8,2.7-7,5.7
		L561,151.3l1.4,8.9l5.6-0.9l-5.9,15.5l-0.5,0.1l7.7-20.4L561,151.3l1.4,8.9L561,151.3z M599.2,242.4l8.4,3.2l13.9-36.7
		c1.1-3,0.6-6.3-1.4-8.8c-2-2.5-5.2-3.7-8.4-3.2l-21.8,3.4c-3.2,0.5-5.8,2.7-7,5.7L569,242.7c-1.1,3-0.6,6.3,1.4,8.8
		s5.2,3.7,8.4,3.2l21.8-3.4c3.2-0.5,5.8-2.7,7-5.7L599.2,242.4l-1.4-8.9l-6.5,1l6.6-17.3l1.4-0.2l-8.4,22.2L599.2,242.4l-1.4-8.9
		L599.2,242.4z M625,173.9l8.4,3.2l13.2-34.8c1.1-3,0.6-6.3-1.4-8.8c-2-2.5-5.2-3.7-8.4-3.2l-21.8,3.4c-3.2,0.5-5.8,2.7-7,5.7
		l-13.2,34.8c-1.1,3-0.6,6.3,1.4,8.8c2,2.5,5.2,3.7,8.4,3.2l21.8-3.4c3.2-0.5,5.8-2.7,7-5.7L625,173.9l-1.4-8.9l-6.6,1l5.9-15.5
		l1.4-0.2l-7.7,20.4L625,173.9l-1.4-8.9L625,173.9z"/>
	<path class="st2" d="M690.2,253.2l1.4,8.9l-0.5-3.4v3.5c0.3,0,0.4,0,0.5,0l-0.5-3.4v3.5v-5.2l-1,5.1c0.4,0.1,0.7,0.1,1,0.1v-5.2
		l-1,5.1l1.2-6.1l-3.3,5.3c0.7,0.4,1.5,0.7,2.1,0.8l1.2-6.1l-3.3,5.3l3.4-5.4l-5.1,3.8c0.4,0.6,1.1,1.2,1.8,1.6l3.4-5.4l-5.1,3.8
		l0,0l5-3.7l-5.9,1.9c0.2,0.7,0.5,1.3,0.9,1.8l5-3.7l-5.9,1.9l5.6-1.8H685c0,0.5,0.1,1.1,0.3,1.8l5.6-1.8H685h3.8l-3.6-1.4
		c0,0.1-0.2,0.5-0.2,1.4h3.8l-3.6-1.4l0,0l-18.4,48.8l0,0l0.4,0.1l-0.3-0.2l0,0.1l0.4,0.1l-0.3-0.2l0,0l0,0l0,0l0,0l0,0
		c0,0-0.1,0.1-0.4,0.4l0,0c-0.3,0.2-0.4,0.3-0.5,0.3l0.5,1.2l-0.2-1.3c-0.2,0-0.3,0.1-0.3,0.1l0.5,1.2l-0.2-1.3l-21.2,3.4l0.5,2.9
		v-2.9c-0.3,0-0.4,0-0.5,0l0.5,2.9v-2.9v5.6l2.2-5.1c-1-0.4-1.8-0.5-2.2-0.5v5.6l2.2-5.1l-2.6,6l4.1-5.1c-0.5-0.4-1-0.7-1.4-0.9
		l-2.6,6l4.1-5.1l-4.1,5.1l5.2-3.9c-0.3-0.4-0.7-0.8-1.2-1.2l-4.1,5.1l5.2-3.9l0,0l-5.2,3.8l6.1-1.9c-0.2-0.7-0.6-1.4-1-1.9
		l-5.2,3.8l6.1-1.9l-5.7,1.8h5.9c0-0.5-0.1-1.1-0.3-1.8l-5.7,1.8h5.9h-3.4l3.3,1.2c0,0,0.2-0.4,0.2-1.2h-3.4l3.3,1.2l0,0l0.5-1.4
		l0,0l-0.6-0.2l0.6,0.3l0-0.1l-0.6-0.2l0.6,0.3l-0.1-0.1l0.1,0.1l0,0l-0.1-0.1l0.1,0.1c0,0,0.1-0.2,0.5-0.5l0,0
		c0.2-0.2,0.4-0.3,0.4-0.3l-0.3-0.6l0.2,0.6l0.1,0l-0.3-0.6l0.2,0.6l-0.4-1.4l0.2,1.4c0.1,0,0.2,0,0.2-0.1l-0.4-1.4l0.2,1.4l12.5-2
		l0,0c0.8-0.1,1.6-0.4,2.5-0.7c1.3-0.5,2.5-1.4,3.4-2.5c0.9-1,1.6-2.2,2-3.2l15.6-41.4l-0.8-0.3l0.8,0.4l0.1-0.1l-0.8-0.3l0.8,0.4
		l-0.2-0.1l0.2,0.1l0,0l-0.2-0.1l0.2,0.1c0,0,0,0,0.1-0.1c0.1-0.1,0.2-0.2,0.4-0.4l0,0c0.3-0.2,0.5-0.3,0.5-0.3l-0.1-0.3l0.1,0.3
		l0,0l-0.1-0.3l0.1,0.3l-0.6-1.5l0.2,1.6c0.2,0,0.3-0.1,0.4-0.1l-0.6-1.5l0.2,1.6l2.7-0.4l0,0L690.2,253.2l-1.4-8.9l-2.7,0.4
		c-1.7,0.3-3.4,0.8-4.8,1.6c-1.5,0.7-2.8,1.6-4,2.6l0,0c-1.2,1-2.3,2.1-3.3,3.4c-1,1.3-1.8,2.8-2.4,4.3L656,298.1l7.1,2.7l-6.3-4.3
		c-0.4,0.6-0.6,1.1-0.8,1.6l7.1,2.7l-6.3-4.3l6.6,4.5l-4.2-6.7c-1,0.6-1.8,1.5-2.4,2.3l6.6,4.5l-4.2-6.7l4.1,6.6l-1.2-7.7
		c-0.8,0.1-1.9,0.5-2.9,1.1l4.1,6.6l-1.2-7.7l0,0l-12.5,2c-1.7,0.3-3.4,0.8-4.9,1.6c-1.5,0.7-2.8,1.7-4,2.7l0,0
		c-1.2,1-2.3,2.1-3.2,3.4c-1,1.3-1.8,2.7-2.4,4.3l0,0l-0.5,1.4l0,0c-0.5,1.5-1,3.1-1,5.1c0,1.1,0.2,2.3,0.5,3.6
		c0.4,1.2,1,2.4,1.8,3.5l0,0c0.6,0.8,1.3,1.5,2,2.1c1.2,0.9,2.5,1.6,3.8,2c1.3,0.4,2.5,0.5,3.7,0.5c0.8,0,1.6-0.1,2.3-0.2l21.2-3.4
		c1.7-0.3,3.3-0.8,4.8-1.5c1.5-0.7,2.8-1.6,4-2.6l0,0c1.2-1,2.4-2.2,3.3-3.5c1-1.3,1.8-2.8,2.4-4.4l0,0l18.4-48.8l0,0
		c0.5-1.4,1-3.1,1-5c0-1.2-0.2-2.4-0.6-3.7c-0.4-1.2-1-2.4-1.8-3.4l0,0c-0.6-0.7-1.2-1.4-2-2.1c-1.1-0.9-2.5-1.6-3.8-2
		c-1.3-0.4-2.6-0.6-3.8-0.6c-0.8,0-1.6,0.1-2.3,0.2l0,0L690.2,253.2z"/>
	<path class="st1" d="M427.3,146.1c-1.5,0.2-2.6-0.1-3.2-1c-0.7-0.9-0.7-2.1-0.2-3.6l18.5-48.9c0.6-1.5,1.6-2.8,3.1-4.1
		c1.5-1.2,3-2,4.4-2.2l21.2-3.4c1.5-0.2,2.6,0.1,3.3,1c0.6,0.9,0.7,2.1,0.1,3.6l-0.6,1.5c-0.6,1.5-1.6,2.8-3,4.1
		c-1.5,1.2-2.9,2-4.5,2.2l-12.5,2c-0.4,0.1-0.7,0.3-0.9,0.7l-15.6,41.4c-0.6,1.5-1.6,2.8-3.1,4.1c-1.5,1.2-3,2-4.4,2.2L427.3,146.1z
		"/>
	<path class="st1" d="M493.3,229.9c-22,35.1-35.9,54.7-57.4,80.8l-20.9-21.4c3.6-3.2,5.7-5.2,9.2-9.3c15.4-17.2,29-36.2,47.3-65.8
		L493.3,229.9z M485.1,153.1c14.1,7.1,20.5,11.1,32.4,21.5l-31.2,32.5c-11.4-11.4-18.2-16.4-31.7-24L485.1,153.1z M513.6,148
		c-10.7-12.2-16-16.5-29.9-25.2l31.7-29.1c13.9,7.6,19.4,11.4,31.2,22.4l-7.9,7.5c6.9-0.4,11.7-1,21.5-2.5l33.9-5.4l5.1-13.4
		c3.8-10.1,5.8-16.5,7.2-23l37.8-6c-3.9,7.3-6.8,13.9-11,25.2l-4.4,11.8L662,105c9.7-1.5,16.3-2.8,24.6-5
		c-4.2,8.9-7.3,16.3-11.4,27.2l-45.5,120.4c-5.1,13.4-7.6,21.4-10.9,32.3l-35.9,5.7l4-10.6l-77.2,12.2l-3.9,10.4l-35.5,5.6
		c4.4-9.4,7.7-17.5,12.1-29.2l47.4-125.4c4-10.6,6.4-17.5,8.2-24.1L513.6,148z M535.8,218l-13.9,36.7l20.9-3.3l13.9-36.7L535.8,218z
		 M561,151.3l-13.2,34.8l20.9-3.3l13.2-34.8L561,151.3z M599.2,242.4l13.9-36.7l-21.8,3.4l-13.9,36.7L599.2,242.4z M625,173.9
		l13.2-34.8l-21.8,3.4l-13.2,34.8L625,173.9z"/>
	<path class="st1" d="M690.2,253.2c1.5-0.2,2.5,0.1,3.2,1c0.7,0.9,0.7,2.1,0.2,3.6l-18.4,48.8c-0.6,1.5-1.6,2.9-3.1,4.1
		c-1.5,1.2-2.9,1.9-4.4,2.2l-21.2,3.4c-1.5,0.2-2.6-0.1-3.3-0.9c-0.7-0.9-0.7-2.1-0.1-3.6l0.5-1.4c0.6-1.5,1.6-2.8,3-4.1
		c1.5-1.2,2.9-2,4.5-2.2l12.5-2c0.4-0.1,0.7-0.3,0.9-0.7l15.6-41.4c0.6-1.5,1.6-2.8,3.1-4.1c1.5-1.2,3-2,4.4-2.2L690.2,253.2z"/>
	<g>
		<path class="st0" d="M718,259.7l14-38.6l51.8-8.1l-14,38.6L718,259.7z M780.8,196.3l-32.8,5.2l40.9-143.2l56-8.8L780.8,196.3z"/>
	</g>
</g>
</svg>
