<svg id="グループ_152" data-name="グループ 152" xmlns="http://www.w3.org/2000/svg" xmlns:xlink="http://www.w3.org/1999/xlink" width="178.243" height="53.851" viewBox="0 0 178.243 53.851">
  <defs>
    <style>
      .cls-1, .cls-7 {
        fill: none;
      }

      .cls-2 {
        clip-path: url(#clip-path);
      }

      .cls-3 {
        fill: #bb002a;
      }

      .cls-4 {
        fill: #161615;
      }

      .cls-5 {
        fill: #bb0018;
      }

      .cls-6 {
        fill: #fff;
      }

      .cls-7 {
        stroke: #fff;
        stroke-miterlimit: 1;
        stroke-width: 0.228px;
      }

      .cls-8 {
        fill: #b00029;
      }

      .cls-9 {
        fill: #10100a;
      }
    </style>
    <clipPath id="clip-path">
      <rect id="長方形_82" data-name="長方形 82" class="cls-1" width="178.243" height="53.85"/>
    </clipPath>
  </defs>
  <g id="グループ_151" data-name="グループ 151" class="cls-2">
    <path id="パス_543" data-name="パス 543" class="cls-3" d="M409.777,3.167c.049-.043,0-.212-.25-.383-.174-.087-.324-.088-.189.083a1.579,1.579,0,0,0,.439.3" transform="translate(-261.021 -1.739)"/>
    <path id="パス_544" data-name="パス 544" class="cls-4" d="M8.087,70.864A2.908,2.908,0,0,0,5.06,68.294c-2.508,0-3.754,2.281-3.754,4.565s1.245,4.56,3.754,4.56a3.188,3.188,0,0,0,3.11-3.049H9.476c-.352,2.572-2.032,4.147-4.417,4.147C1.784,78.516,0,75.925,0,72.858s1.784-5.663,5.06-5.663a4,4,0,0,1,4.333,3.669Z" transform="translate(0 -42.854)"/>
    <path id="パス_545" data-name="パス 545" class="cls-4" d="M35.873,74.059a3.442,3.442,0,0,1-3.733,3.36A2.229,2.229,0,0,1,29.756,75.3c0-2.093,2.758-2.072,4.977-2.468.352-.061.932-.164,1.1-.476h.042Zm-5.661-3.275c.041-1.742,1.243-2.489,2.861-2.489,1.534,0,2.8.435,2.8,2.2,0,1.183-.6,1.328-1.68,1.452-2.82.333-5.744.435-5.744,3.443,0,2.156,1.618,3.129,3.588,3.129a4.079,4.079,0,0,0,3.9-2.176h.041c0,1.119.208,1.866,1.535,1.866a3.59,3.59,0,0,0,.85-.083v-1.1a1.217,1.217,0,0,1-.414.082.7.7,0,0,1-.767-.786V70.637c0-2.861-2.053-3.442-3.94-3.442-2.447,0-4.21,1.078-4.334,3.588Z" transform="translate(-18.143 -42.854)"/>
    <path id="パス_546" data-name="パス 546" class="cls-4" d="M58.616,67.794h1.2V70.3h.041A3.951,3.951,0,0,1,63.9,67.647v1.305a3.688,3.688,0,0,0-3.983,3.836v5.7H58.616Z" transform="translate(-37.382 -43.139)"/>
    <path id="パス_547" data-name="パス 547" class="cls-4" d="M75.56,60.829h1.307v10.7H75.56Zm0-4.108h1.307v2.094H75.56Z" transform="translate(-48.188 -36.174)"/>
    <path id="パス_548" data-name="パス 548" class="cls-4" d="M84.89,67.508H86.2v1.843h.042a3.628,3.628,0,0,1,3.422-2.156c3.006,0,3.918,1.577,3.918,4.126v6.885H92.272V71.529c0-1.844-.6-3.235-2.716-3.235-2.074,0-3.317,1.576-3.359,3.671v6.242H84.89Z" transform="translate(-54.138 -42.854)"/>
    <path id="パス_549" data-name="パス 549" class="cls-4" d="M117.885,76.983c-2.405,0-3.526-2.095-3.526-4.25,0-2.221,1.037-4.44,3.526-4.44,2.467,0,3.442,2.343,3.442,4.44,0,2.174-1.182,4.25-3.442,4.25m4.748-9.475h-1.306v1.843h-.042a3.766,3.766,0,0,0-3.4-2.156c-3.09,0-4.832,2.447-4.832,5.392,0,3.046,1.41,5.494,4.832,5.494a3.708,3.708,0,0,0,3.4-2.2h.042v1.45c0,2.613-1.038,4.044-3.442,4.044-1.452,0-2.841-.561-3.131-2.136h-1.306c.185,2.284,2.3,3.235,4.437,3.235,3.5,0,4.727-1.949,4.748-5.142Z" transform="translate(-72.099 -42.854)"/>
    <path id="パス_550" data-name="パス 550" class="cls-4" d="M151.148,71.273a1.658,1.658,0,0,0-1.721-1.556c-1.97,0-2.282,1.68-2.282,3.174,0,1.387.6,2.82,2.1,2.82a1.889,1.889,0,0,0,2.011-1.847h3.423c-.312,2.884-2.552,4.541-5.413,4.541a5.356,5.356,0,0,1-5.641-5.514c0-3.423,2.177-5.87,5.641-5.87,2.674,0,5.06,1.412,5.307,4.252Z" transform="translate(-91.594 -42.743)"/>
    <path id="パス_551" data-name="パス 551" class="cls-4" d="M178.227,72.725c0-1.368.5-3.006,2.136-3.006s2.157,1.638,2.157,3.006-.519,2.987-2.157,2.987-2.136-1.618-2.136-2.987m-3.525,0a5.671,5.671,0,1,0,5.662-5.7,5.484,5.484,0,0,0-5.662,5.7" transform="translate(-111.416 -42.743)"/>
    <path id="パス_552" data-name="パス 552" class="cls-4" d="M208.247,67.333h3.42v1.472h.042a3.59,3.59,0,0,1,3.09-1.784,3.108,3.108,0,0,1,3.131,1.743,3.944,3.944,0,0,1,3.358-1.743c3.422,0,3.8,2.592,3.8,4.646V78.1h-3.525V71.772c0-1.163-.56-1.847-1.472-1.847-1.515,0-1.659,1.161-1.659,2.9V78.1H214.9V71.978c0-1.265-.372-2.053-1.327-2.053-1.264,0-1.8.725-1.8,2.923V78.1h-3.525Z" transform="translate(-132.809 -42.743)"/>
    <path id="パス_553" data-name="パス 553" class="cls-4" d="M263.948,69.718c1.556,0,2.1,1.513,2.1,2.883,0,1.472-.54,3.11-2.117,3.11-1.6,0-2.136-1.224-2.136-3.11,0-2.219,1.2-2.883,2.157-2.883M258.392,81.7h3.524v-4.77h.041a3.61,3.61,0,0,0,3.07,1.471c3.048,0,4.541-2.655,4.541-5.452,0-3.028-1.43-5.932-4.81-5.932a3.444,3.444,0,0,0-2.966,1.557h-.039V67.333h-3.36Z" transform="translate(-164.789 -42.743)"/>
    <path id="パス_554" data-name="パス 554" class="cls-4" d="M293.514,75.005c0-.849.663-1.181,1.452-1.367a10.079,10.079,0,0,0,2.175-.582c.084,2.221-.476,3.174-2.155,3.174-.789,0-1.472-.352-1.472-1.225m.207-4.355a1.576,1.576,0,0,1,1.763-1.346c.726,0,1.7.31,1.7,1.119,0,.663-.332.87-.934,1-2.445.5-6.261.23-6.261,3.732,0,2.219,1.616,3.256,3.671,3.256A4.857,4.857,0,0,0,297.2,77.08a4.211,4.211,0,0,0,.208,1.017h3.545a6.278,6.278,0,0,1-.414-2.759V70.631c0-3.048-2.468-3.609-5.018-3.609a7.092,7.092,0,0,0-3.421.748,3.309,3.309,0,0,0-1.681,2.881Z" transform="translate(-184.94 -42.743)"/>
    <path id="パス_555" data-name="パス 555" class="cls-4" d="M322.673,67.333h3.42v1.472h.041a4.073,4.073,0,0,1,3.381-1.784c3.588,0,3.878,2.614,3.878,4.169V78.1h-3.524v-5.2c0-1.474.166-2.966-1.763-2.966-1.327,0-1.909,1.121-1.909,2.3V78.1h-3.525Z" transform="translate(-205.784 -42.743)"/>
    <path id="パス_556" data-name="パス 556" class="cls-4" d="M359.4,79.6c-.849,2.367-2.114,2.656-4.5,2.656h-1.658V79.391h1.222a1.25,1.25,0,0,0,1.411-1.2,14.706,14.706,0,0,0-.892-2.82l-2.778-7.486h3.733l2.032,7.009h.042l2.031-7.009h3.61Z" transform="translate(-224.62 -43.293)"/>
    <path id="パス_557" data-name="パス 557" class="cls-5" d="M262.889,14.708a1.607,1.607,0,0,0,.331-.267c.154-.206.1-.311.03-.338-.051-.178.253-.555.6-.935.311-.452-.28-.3.034-.745a5.662,5.662,0,0,1,.982-.732c.457-.174.281.259.738.083l.706.455c.065.029.281-.112.395-.239.572-1.043-1.014-.412-.838-1.214-.619.086-.141-1.056-1.558-.043-.141.058-.242.072-.232-.041a1.263,1.263,0,0,1,.487-.513c.987-1.136-.714-.344-.67-.832a.971.971,0,0,1,.339-.381c.682-.393.68.017.867.176.661-.167.546.332,1.131.249l.161.458a.525.525,0,0,0,.5-.255c.277-.447.277-.816.123-.979a1.037,1.037,0,0,1,.447-.434c.252-.145.568-.263.627-.162-.136.353.206.341.439.385.268.033.13.424.588.249a1.558,1.558,0,0,0,.3-.377c.006-.406-.618-.282-.466-.822-.151-.2.663-.575.9-.9.316-.49-.314-.255-.475-.381-.561.189-.643.721-1.109,1.006-.5.258-.108-.318-.345-.322a1.047,1.047,0,0,1-1.136-.544c-.033-.034.118-.2.226-.253.983-.359.89.282,1.54.227l.25-.146a.486.486,0,0,0,.237-.365c-.708-.05-.6-.806-1.46-.723-.688.1.615-.789.356-.937.537-.668-.309-.329-.425-.533-.3-.031-1.082.337-.907-.094a2.013,2.013,0,0,0-1.272-.564c-.027-.442-.564-.477-1.181-.426.1-.385-.615.048-.919.054-.487.105.3-.709-.334-.433-.483.066-1.09.78-1.541.881-.2-.01.17-.357.252-.518.381-.459-.141-.314-.2-.455a4.69,4.69,0,0,0-1.216.691c-.6.271.185-.545-.231-.45.489-.881-.866-.175-1.487-.05.172-.393-.282-.256-.367-.432-.226-.114-.84.267-1.262.437-.154-.164.732-.583.756-.846-.059-.1-.189-.158-.47-.046-.377.054-.794.52-1.161.83-.385.129.237-.366.109-.46a2.487,2.487,0,0,1-.587-.251c-.175-.307-1.162.459-1.762.728-.132-.054-.075-.322.264-.667.3-.339.176-.471-.1-.43-.485.1-.749.771-1.278.993-.354.159-.914.348-.711-.012a4.641,4.641,0,0,0,.8-.594c.443-.765-1.4.494-.814-.368-.052-.176-.475-.006-.784.036-.943.318-.521.889-1.374,1.3-.6.232-.635-.095-.824-.254.237-.367.987-.767.94-1.019-.2-.047-.592.192-.944.317-.2-.047-.288-.182-.673-.054-.5.217-.739.658-1.137.936a.458.458,0,0,1-.447.064c-.084-.211.525-.557.756-.849.353-.9-1.585.26-1.849-.184-.24.033.092-.272.172-.395.512-.774-.523-.223-.746-.378A2.327,2.327,0,0,1,243.5.535C242.24.562,231.4.364,229.182.394c-1.334,0-2.695-.045-4-.092-.324-.133-1.2.3-1.393,0-2.426.088-4.767-.069-7.445.2a18,18,0,0,0-3.879-.1c-.471.117-.375-.206-.97,0-3.042-.214-6.911.275-9.6-.246l-3.644.27.17-.211-1.38.12.135-.17L194.968.31l.1-.128-4.356.292.3-.38-1.379.118L189.8,0,187.9.241c-2.906.288-14.37.345-16.973.25-.9-.081-1.457.109-2.267-.019-1.586.648-1.993-.184-3.358.051-.38.079-5.3-.135-8.656.093a19.4,19.4,0,0,0-5.116.344c-1.974.028-5.321,2.745-6.05,3.6-.485.476.736,1.6.347,1.756-1.433.321-.171,2.305-1.456,3.045-.389.152.017,2.267-.013,2.507-.2.728-1.337,1.348.237,3.54-.193.647,1.173,1.116,1.242,1.7-.014.358-1.084.961-.619,1.118a5.927,5.927,0,0,0,1.575-.565l.557.107c.3.094-.012.555.457.436l-1.883.28c-.536.2-.126.29-.477.6-.2.252.53.23.51.389.9-.116-.578.913.611.5.963-.2.208.614.944.63.12.186.681.02,1.127-.136.46-.038.1.348.137.5a6.232,6.232,0,0,0,2.112-.772,61.326,61.326,0,0,0,6.819.231,36.341,36.341,0,0,0,5.468-.516c.3.093-.139.446.105.544.933.039,1.449.467,2.731.2.4-.231.917-.749,1.274-.661.168.261-.354.583-.68.926-.021.158-.106.4.305.288a2.246,2.246,0,0,0,1.247-.9c.792-.658,1.059-.05,1.821-.47.354-.108.723-.1.784.091.785.092-.395.9.151,1.093a1.267,1.267,0,0,0,.838-.112c.408-.311.278-.416.4-.7.319-.264.527-.124.791-.185.383.124-.068.559-.371.939.2.416,1.341-.273,1.93-.2.736.016.409.833,1.271.76a2.833,2.833,0,0,0,1.308-.7c.9-.117,1.276-1.134,2.118-1.048.89.161-.878.9-.639,1.278a2.681,2.681,0,0,0,1.662-.341c.58-.325,0-.474.581-.8a2.819,2.819,0,0,1,1.318-.309c.38.125-.4.507-.583.8-.072.363.627.224,1.086.184.48-.2.646.064,1.112-.252a1.483,1.483,0,0,0,.71-.693l.44.121c-.111.206-.565.443-.529.6.288-.022-.029.242.134.308a7.133,7.133,0,0,0,2.408.07,8.654,8.654,0,0,0,2.889.07c1.007.151,2.749-.155,3.428.339l3.437-.214-.2.255,1.632-.1-.135.17,3.816-.287-.033.043,6.86-.546-.235.3,2.527-.216-.2.253,1.575-.1,9.024.173a6.346,6.346,0,0,1,2.368-.293c.31-.043-.21.436-.082.531.715-.4.89-.088,1.6-.446.123.129.52-.112.876-.309.147.239.81.034,1.41-.2l-.383.461.557-.151c.629-.2,1.274-1.327,1.69-1.051.3.069-.533.63-.727.916-.2.324.18.233.459.158-.083.53,1.065-.149,1.536-.1a6.442,6.442,0,0,1,1.247-.656c.351-.123.221.191.134.391a1.231,1.231,0,0,0,.932-.168c.579-.416,3.191-1.521,2.656-.854-.392.575.538.035.807.071-.184.544.477.342.959.275.535-.3.831-.191,1.371-.526.785-.444.384.244.725.231.137.351,1.1-.561,1.591-.7.068.36.7.161,1.247.084.364.1,1.269-.512,1.376-.193.124.13.627-.2.993-.473.319-.154.009.259.145.277a.951.951,0,0,0,.826-.153,1.259,1.259,0,0,0,.38-.459c.524-.519.379-.053.7-.209a19.944,19.944,0,0,0,3.636-.436,7.341,7.341,0,0,0,2,.017c.155.163.409.35,1.012.043a3.608,3.608,0,0,0,.627-.9.991.991,0,0,1,.575-.34c-.031.338.49.192.828.218a3.328,3.328,0,0,0,1.607.588l.247-.109c.685-.8-.484-.264-.19-.86a1.383,1.383,0,0,1,.48-.439c.439.012.876.063,1.019.338.388.2,1.035.189,1.313.482l.211-.064a1.221,1.221,0,0,0,.309-.416c-.372-.021-.046-.621-.565-.512-.072-.694-1.1-.588-1.762-.753a13.646,13.646,0,0,0-2.111-.669c-.184-.2-1.145.309-1.145-.062-.267-.035-.423-.2-.768-.151-.367-.059-.364-.469-1.062-.257-.271,0-.721.1-.478-.343a.937.937,0,0,1,.324-.192c.855-.083,1.3.187,2.162.1.017.184.793-.57.959-.518.612-.012.827.638.961,1.028.78,0,1.811-.143,2.146.253.164.051.588-.118.423.2a13.062,13.062,0,0,1,2.455.62c.164.052.033.364.491.192.195.081.133.387.51.333m-10.756,1.245.957.367a.87.87,0,0,1-.372.51c-.611.259-.379-.292-.842-.242-.265.087-.138-.168-.278-.209a.85.85,0,0,1,.534-.426m4.884-1.995c.066.21.7.118.015.757-.53.3-.463-.078-.763-.075.013-.17.49-.848.748-.682m-6.553.287c-.03.464.576.457.924.621a1.4,1.4,0,0,1-.545.6c-.59.3-.594-.036-.856-.072-.137-.167-.786.008-.268-.588a2.536,2.536,0,0,1,.745-.556m.56-7.375c-.056-.251.545-.469.746-.556.2.04.278.206.041.547-.479.215-.391-.121-.787.008m2.833.809c-1.466.774-1.12-.324-1.681-.485a4.61,4.61,0,0,0,.843-.346c.378.164.829.286.942.663Zm.544.92c-.7.261-.425-.331-.246-.8-.121,0-.343.047-.238-.123,1.077-.434.685.5,1.35.489-.086.212-.009.38-.358.678-.612.387-.317-.166-.508-.247m-2.2,1.037c-.051-.042.005-.252.262-.424a1.46,1.46,0,0,1,.6-.006.833.833,0,0,1-.413.551c-.316.171-.436.047-.452-.121m3.9.416c.456-.593-.164-.419.026-.8.183-.129.358-.215.368-.131-.3.468.369.081.292.376a1.031,1.031,0,0,1-.418.677c-.316.175-.272,0-.269-.123m3,2.525c-.661.222-.488-.329-.714-.5-.3-.248-.246-.8-.88-.79-.272,0-.621-.624.494-.975.094.337.608.329.578.794.446-.09.274.334.483.455.619-.175.753.119.4.67a.972.972,0,0,1-.359.34" transform="translate(-91.691)"/>
    <path id="パス_558" data-name="パス 558" class="cls-6" d="M266.6,12.116h9.648v1.842H266.6ZM266,11.6v6.485a19.56,19.56,0,0,1-.115,2.366,11.9,11.9,0,0,1-.459,2.019,17.609,17.609,0,0,1-.864,2.226l.6.238A15.784,15.784,0,0,0,266.6,19.4V14.478h10.253V11.6Zm6.921,10.929-3.091.852V19.806H272.3a9.981,9.981,0,0,0,2.654,3.426,9.4,9.4,0,0,0,3.132,1.787,1.785,1.785,0,0,0,.351-.535,9.3,9.3,0,0,1-3.342-1.979.3.3,0,0,1,.061-.058l.054-.043,1.782-1.786-.537-.333a24.336,24.336,0,0,1-1.8,1.786h-.047a9.869,9.869,0,0,1-1.64-2.266h5.1v-.518h-3.665V17.243h2.868l-.014-.518h-2.854V15.109h-.6v1.616h-3.081V15.109h-.6v1.616h-2.366v.518h2.366v2.045h-2.943v.518h2.049v3.767c-.167.036-.51.133-1.024.288a7.2,7.2,0,0,1-1.231.278l.221.621,5.731-1.637Zm-2.2-5.284H273.8v2.045h-3.081Z" transform="translate(-168.723 -7.397)"/>
    <path id="パス_559" data-name="パス 559" class="cls-7" d="M266.6,12.116h9.648v1.842H266.6ZM266,11.6v6.485a19.56,19.56,0,0,1-.115,2.366,11.9,11.9,0,0,1-.459,2.019,17.609,17.609,0,0,1-.864,2.226l.6.238A15.784,15.784,0,0,0,266.6,19.4V14.478h10.253V11.6Zm6.921,10.929-3.091.852V19.806H272.3a9.981,9.981,0,0,0,2.654,3.426,9.4,9.4,0,0,0,3.132,1.787,1.785,1.785,0,0,0,.351-.535,9.3,9.3,0,0,1-3.342-1.979.3.3,0,0,1,.061-.058l.054-.043,1.782-1.786-.537-.333a24.336,24.336,0,0,1-1.8,1.786h-.047a9.869,9.869,0,0,1-1.64-2.266h5.1v-.518h-3.665V17.243h2.868l-.014-.518h-2.854V15.109h-.6v1.616h-3.081V15.109h-.6v1.616h-2.366v.518h2.366v2.045h-2.943v.518h2.049v3.767c-.167.036-.51.133-1.024.288a7.2,7.2,0,0,1-1.231.278l.221.621,5.731-1.637Zm-2.2-5.284H273.8v2.045h-3.081Z" transform="translate(-168.723 -7.397)"/>
    <path id="パス_560" data-name="パス 560" class="cls-6" d="M307.352,11.48h4v1.21h-4Zm-.6-.518V24.844h.6V14.908h4.607V10.962Zm.6,2.246h4v1.18h-4Zm6.249,1.7h4.694v8.851c0,.283-.185.423-.558.423l-.979-.03.313.556a3.781,3.781,0,0,1,.559-.038q1.269-.016,1.271-.7V10.962h-5.3Zm.6-3.428h4.089v1.21h-4.089Zm0,1.728h4.089v1.18h-4.089Zm1.085,4.41.016.031a20.509,20.509,0,0,1-1.868,2.021l.138.429.644-.131,2.928-.42a3.871,3.871,0,0,1,.253.6,3.391,3.391,0,0,0,.551-.224,9.226,9.226,0,0,0-1.033-1.9l-.52.16a3.82,3.82,0,0,0,.237.4,3.717,3.717,0,0,1,.252.439q-.765.151-2.318.329l-.038-.03a11.484,11.484,0,0,0,2.388-3.159l-.536-.283a6.93,6.93,0,0,1-.643,1.063q-1.009.183-1.582.237a10.072,10.072,0,0,0,1.255-1.93A3.37,3.37,0,0,0,314.9,15a12.453,12.453,0,0,1-1.759,2.6l.145.42a14.745,14.745,0,0,1,2-.406m-5.722-.345-.031-.03a7.935,7.935,0,0,0,1.63-1.866c-.045-.02-.124-.067-.234-.133a1.39,1.39,0,0,0-.249-.134,11.561,11.561,0,0,1-2.241,2.433,3.829,3.829,0,0,0,.2.5,12.9,12.9,0,0,1,2.226-.436,14.628,14.628,0,0,1-2.272,1.987l.191.507a36.284,36.284,0,0,1,3.588-.659l.167.672c.007.006.195-.043.566-.145a8.11,8.11,0,0,0-.8-2.035,3.974,3.974,0,0,0-.475.161,5.216,5.216,0,0,1,.315.811l-2.3.375-.031-.03a11.1,11.1,0,0,0,2.722-2.945l-.435-.36a7.2,7.2,0,0,1-.7,1.018Zm0,4.631V20.482h-.6v1.942h2.556a2.751,2.751,0,0,1-2.361,1.72l.455.47a3.451,3.451,0,0,0,1.874-.915q.873-.786.76-3.339l-.606-.038v1.584Zm4.205-1.546v4.225h.6V22.424h2.679V20.482h-.6v1.424h-2.075V20.36Z" transform="translate(-195.627 -6.991)"/>
    <path id="パス_561" data-name="パス 561" class="cls-7" d="M307.352,11.48h4v1.21h-4Zm-.6-.518V24.844h.6V14.908h4.607V10.962Zm.6,2.246h4v1.18h-4Zm6.249,1.7h4.694v8.851c0,.283-.185.423-.558.423l-.979-.03.313.556a3.781,3.781,0,0,1,.559-.038q1.269-.016,1.271-.7V10.962h-5.3Zm.6-3.428h4.089v1.21h-4.089Zm0,1.728h4.089v1.18h-4.089Zm1.085,4.41.016.031a20.509,20.509,0,0,1-1.868,2.021l.138.429.644-.131,2.928-.42a3.871,3.871,0,0,1,.253.6,3.391,3.391,0,0,0,.551-.224,9.226,9.226,0,0,0-1.033-1.9l-.52.16a3.82,3.82,0,0,0,.237.4,3.717,3.717,0,0,1,.252.439q-.765.151-2.318.329l-.038-.03a11.484,11.484,0,0,0,2.388-3.159l-.536-.283a6.93,6.93,0,0,1-.643,1.063q-1.009.183-1.582.237a10.072,10.072,0,0,0,1.255-1.93A3.37,3.37,0,0,0,314.9,15a12.453,12.453,0,0,1-1.759,2.6l.145.42A14.745,14.745,0,0,1,315.29,17.619Zm-5.722-.345-.031-.03a7.935,7.935,0,0,0,1.63-1.866c-.045-.02-.124-.067-.234-.133a1.39,1.39,0,0,0-.249-.134,11.561,11.561,0,0,1-2.241,2.433,3.829,3.829,0,0,0,.2.5,12.9,12.9,0,0,1,2.226-.436,14.628,14.628,0,0,1-2.272,1.987l.191.507a36.284,36.284,0,0,1,3.588-.659l.167.672c.007.006.195-.043.566-.145a8.11,8.11,0,0,0-.8-2.035,3.974,3.974,0,0,0-.475.161,5.216,5.216,0,0,1,.315.811l-2.3.375-.031-.03a11.1,11.1,0,0,0,2.722-2.945l-.435-.36a7.2,7.2,0,0,1-.7,1.018Zm0,4.631V20.482h-.6v1.942h2.556a2.751,2.751,0,0,1-2.361,1.72l.455.47a3.451,3.451,0,0,0,1.874-.915q.873-.786.76-3.339l-.606-.038v1.584Zm4.205-1.546v4.225h.6V22.424h2.679V20.482h-.6v1.424h-2.075V20.36Z" transform="translate(-195.627 -6.991)"/>
    <path id="パス_562" data-name="パス 562" class="cls-6" d="M350.781,14.029h1.786v1.642h-1.786Zm1.4-2.168.329-.452q-1.752-1.168-1.912-1.223l-.344.375a22.565,22.565,0,0,1,1.928,1.3m-7.331,12.767h.606V10.407h-.606Zm2.144-12.211h9.839V11.9h-9.839Zm.822,3.774h7.862V13.512h-7.862Zm.6-2.161h1.756v1.642H348.42Zm4.751,0h1.9v1.642h-1.9Zm-6.759-.408-.436.229a21.8,21.8,0,0,1,.75,2.34l.513-.2a17.3,17.3,0,0,0-.827-2.364m-3.84,3.679.519.252a19.7,19.7,0,0,0,1.064-3.419l-.467-.184a23.382,23.382,0,0,1-1.116,3.35m8.815-.72v2.556l.6-.014V16.58Zm1.634.872a2.9,2.9,0,0,1,.237.522,17.458,17.458,0,0,0,2.785-.828l-.2-.474a20.182,20.182,0,0,1-2.824.78m-2.8.551c.071-.2.127-.373.168-.527a25.641,25.641,0,0,0-2.707-.742l-.192.491a27.9,27.9,0,0,1,2.731.778m.56.706-.014-.544-3.74,1.063.167.566q.2-.124,3.587-1.085m5.246.986.176-.513a19.869,19.869,0,0,0-3.38-.957l-.145.484a23.563,23.563,0,0,1,3.35.986m-6.282,3.671v-2.21L351,20.323a11.573,11.573,0,0,0,2.387,2.589,11.844,11.844,0,0,0,3.09,1.579l.284-.5a9.832,9.832,0,0,1-3.474-1.905,24.412,24.412,0,0,0,2.173-1.73l-.36-.357a19.768,19.768,0,0,1-2.226,1.728,8.348,8.348,0,0,1-1.376-1.759l.359-.3-.406-.346a22.668,22.668,0,0,1-5.3,3.024l.316.473q.755-.328,2.677-1.316v2.143a3.869,3.869,0,0,1-.459.158,3.871,3.871,0,0,0-.467.155,1.741,1.741,0,0,0,.222.6l3.554-1.485.015-.565Z" transform="translate(-218.475 -6.496)"/>
    <path id="パス_563" data-name="パス 563" class="cls-7" d="M350.781,14.029h1.786v1.642h-1.786Zm1.4-2.168.329-.452q-1.752-1.168-1.912-1.223l-.344.375A22.565,22.565,0,0,1,352.18,11.861Zm-7.331,12.767h.606V10.407h-.606Zm2.144-12.211h9.839V11.9h-9.839Zm.822,3.774h7.862V13.512h-7.862Zm.6-2.161h1.756v1.642H348.42Zm4.751,0h1.9v1.642h-1.9Zm-6.759-.408-.436.229a21.8,21.8,0,0,1,.75,2.34l.513-.2A17.3,17.3,0,0,0,346.412,13.622Zm-3.84,3.679.519.252a19.7,19.7,0,0,0,1.064-3.419l-.467-.184A23.382,23.382,0,0,1,342.572,17.3Zm8.815-.72v2.556l.6-.014V16.58Zm1.634.872a2.9,2.9,0,0,1,.237.522,17.458,17.458,0,0,0,2.785-.828l-.2-.474A20.182,20.182,0,0,1,353.021,17.453Zm-2.8.551c.071-.2.127-.373.168-.527a25.641,25.641,0,0,0-2.707-.742l-.192.491A27.9,27.9,0,0,1,350.221,18Zm.56.706-.014-.544-3.74,1.063.167.566Q347.394,19.67,350.781,18.709Zm5.246.986.176-.513a19.869,19.869,0,0,0-3.38-.957l-.145.484A23.563,23.563,0,0,1,356.027,19.7Zm-6.282,3.671v-2.21L351,20.323a11.573,11.573,0,0,0,2.387,2.589,11.844,11.844,0,0,0,3.09,1.579l.284-.5a9.832,9.832,0,0,1-3.474-1.905,24.412,24.412,0,0,0,2.173-1.73l-.36-.357a19.768,19.768,0,0,1-2.226,1.728,8.348,8.348,0,0,1-1.376-1.759l.359-.3-.406-.346a22.668,22.668,0,0,1-5.3,3.024l.316.473q.755-.328,2.677-1.316v2.143a3.869,3.869,0,0,1-.459.158,3.871,3.871,0,0,0-.467.155,1.741,1.741,0,0,0,.222.6l3.554-1.485.015-.565Z" transform="translate(-218.475 -6.496)"/>
    <path id="パス_564" data-name="パス 564" class="cls-6" d="M195.636,12.78h-2.286l-.4-.89h3.009a2.992,2.992,0,0,1-.325.89m-4.681-.89a8.84,8.84,0,0,1,.369.876H188.7V22.04h1.946V16.5h.029a6.586,6.586,0,0,1,.593.968.811.811,0,0,0,.209-.1.765.765,0,0,1,.218-.105v3.957l1.866-.014v-.549h1.989V21.2l1.866.014v-.39h.029a3.383,3.383,0,0,1,.272.709,2.514,2.514,0,0,0,.155.492,5.128,5.128,0,0,0,1.834-.322q.7-.292.7-.785V12.78h-2.771l.39-.9H201V10.117l-5.316.015-.536-1.44-2.105.413a9,9,0,0,1,.477,1.027H187.99V11.89Zm3.769,4.667a1.119,1.119,0,0,0,.716.253h2.221a.792.792,0,0,0,.8-.652l.029.029-.014,3.516q0,.311-.846.311a1.582,1.582,0,0,1-.217-.014V17l-5.353.014-.029-.029a3.2,3.2,0,0,0,1.975-2.431h.514v1.4a.831.831,0,0,0,.2.6m-4.08-.767v-1.23h1.446a2.512,2.512,0,0,1-1.446,1.23m5.7-.723v-.507h.89c0,.362-.1.584-.311.665h-.413a.157.157,0,0,1-.166-.159m1.3-.507h.831v.412a1.944,1.944,0,0,1-.831-.412m-4.088,4.03h1.99V19.1h-1.99Z" transform="translate(-119.89 -5.543)"/>
    <path id="パス_565" data-name="パス 565" class="cls-6" d="M234.644,11.134h2.247v.48h-2.247Zm-.414,11.124h2.035V18.15a8.766,8.766,0,0,0,2.894,1.236,4.965,4.965,0,0,1,1.083-1.774,7.59,7.59,0,0,1-4.362-2.2l.014-.015h2.923V9.243H228.333v6.151h2.93a6.735,6.735,0,0,1-4.391,1.92,4.686,4.686,0,0,1,1.222,1.832,7.843,7.843,0,0,0,2.654-1,.832.832,0,0,1,.014.16,2.164,2.164,0,0,1-.68,1.37,3.675,3.675,0,0,1-2.585.84,5.316,5.316,0,0,1,1.295,1.737,5.922,5.922,0,0,0,2.035-.632,3.448,3.448,0,0,0,1.337-1.149,3.189,3.189,0,0,0,.505-1.269c.057-.4.1-1.154.143-2.25l-.313-.088a9.465,9.465,0,0,0,1.133-1.236L234.7,16.8l-.472.014Zm-3.809-11.124h2.261v.48h-2.261Zm0,1.919h2.261v.509h-2.261Zm4.18,0h2.29v.509H234.6Z" transform="translate(-144.687 -5.895)"/>
    <path id="パス_566" data-name="パス 566" class="cls-4" d="M.651,116.671l2.233-4.33,2.177,4.321-.367.11-.884-1.75h-1.9l-.9,1.75ZM2.1,114.664H3.637l-.771-1.534Z" transform="translate(-0.415 -71.645)"/>
    <path id="パス_567" data-name="パス 567" class="cls-4" d="M13.108,118.929,11.753,115.8l.354-.125,1.026,2.416,1.135-2.416,1.132,2.4,1.077-2.4.322.106-1.4,3.148-1.15-2.488Z" transform="translate(-7.495 -73.771)"/>
    <path id="パス_568" data-name="パス 568" class="cls-4" d="M27.777,118.542a1.132,1.132,0,0,1-.377.289,1.074,1.074,0,0,1-.456.1,1.1,1.1,0,0,1-.808-.332,1.133,1.133,0,0,1,0-1.607,1.1,1.1,0,0,1,.807-.333,1.14,1.14,0,0,1,.453.093,1.121,1.121,0,0,1,.38.27v-.393a.635.635,0,0,0-.163-.48.713.713,0,0,0-.5-.155,1.824,1.824,0,0,0-.436.058,3.617,3.617,0,0,0-.537.187l.137-.405a2.969,2.969,0,0,1,.448-.118,2.408,2.408,0,0,1,.423-.039,1.012,1.012,0,0,1,.745.238,1.032,1.032,0,0,1,.236.751v2.194l-.348.072Zm-1.617-.749a.765.765,0,0,0,.233.57.81.81,0,0,0,.59.228.772.772,0,0,0,.575-.221.872.872,0,0,0,0-1.153.761.761,0,0,0-.569-.222.821.821,0,0,0-.6.226.765.765,0,0,0-.233.572" transform="translate(-16.455 -73.771)"/>
    <path id="パス_569" data-name="パス 569" class="cls-4" d="M33.962,118.862V115.72l.348-.041v.672a1.434,1.434,0,0,1,.461-.55,1.1,1.1,0,0,1,.631-.184h.085l-.143.348a.973.973,0,0,0-.782.462,2.376,2.376,0,0,0-.252,1.224v1.169Z" transform="translate(-21.659 -73.735)"/>
    <path id="パス_570" data-name="パス 570" class="cls-4" d="M41.159,116.113a1.706,1.706,0,0,1-.572.512,1.473,1.473,0,0,1-.711.177,1.6,1.6,0,0,1-1.172-.467,1.643,1.643,0,0,1,0-2.3,1.607,1.607,0,0,1,1.173-.462,1.509,1.509,0,0,1,.728.176,1.567,1.567,0,0,1,.555.514v-1.878l.337-.041v4.39l-.337.041Zm-2.569-.933a1.22,1.22,0,0,0,.378.9,1.292,1.292,0,0,0,1.816,0,1.271,1.271,0,0,0,0-1.8,1.292,1.292,0,0,0-1.816,0,1.221,1.221,0,0,0-.378.9" transform="translate(-24.382 -71.645)"/>
    <path id="パス_571" data-name="パス 571" class="cls-4" d="M51.445,118.524a2.365,2.365,0,0,1-.607.334,1.842,1.842,0,0,1-.623.107,1.6,1.6,0,0,1-1.175-.465,1.566,1.566,0,0,1-.468-1.156,1.546,1.546,0,0,1,.471-1.152,1.61,1.61,0,0,1,1.172-.46,1.532,1.532,0,0,1,.776.191,1.3,1.3,0,0,1,.518.55L49.077,117.9a1.286,1.286,0,0,0,.471.519,1.25,1.25,0,0,0,.668.183,1.462,1.462,0,0,0,.582-.124,2.939,2.939,0,0,0,.647-.408Zm-2.493-.916L51,116.393a.816.816,0,0,0-.329-.242,1.19,1.19,0,0,0-.454-.082,1.237,1.237,0,0,0-.9.367,1.217,1.217,0,0,0-.371.9c0,.057,0,.105,0,.147s.005.083.009.126" transform="translate(-30.977 -73.807)"/>
    <path id="パス_572" data-name="パス 572" class="cls-4" d="M60.33,116.113a1.706,1.706,0,0,1-.572.512,1.473,1.473,0,0,1-.711.177,1.6,1.6,0,0,1-1.172-.467,1.643,1.643,0,0,1,0-2.3,1.607,1.607,0,0,1,1.173-.462,1.505,1.505,0,0,1,.728.176,1.565,1.565,0,0,1,.555.514v-1.878l.338-.041v4.39l-.338.041Zm-2.569-.933a1.22,1.22,0,0,0,.378.9,1.292,1.292,0,0,0,1.816,0,1.271,1.271,0,0,0,0-1.8,1.292,1.292,0,0,0-1.816,0,1.221,1.221,0,0,0-.378.9" transform="translate(-36.609 -71.645)"/>
    <path id="パス_573" data-name="パス 573" class="cls-4" d="M72.643,115.133v-2.751l.348-.041v1.913a1.672,1.672,0,0,1,.569-.51,1.5,1.5,0,0,1,.715-.175,1.607,1.607,0,0,1,1.172.462,1.644,1.644,0,0,1,0,2.3,1.6,1.6,0,0,1-1.17.467,1.579,1.579,0,0,1-1.175-.464,1.643,1.643,0,0,1-.458-1.206m.348.048a1.222,1.222,0,0,0,.373.907,1.3,1.3,0,0,0,1.82-.006,1.268,1.268,0,0,0,0-1.8,1.291,1.291,0,0,0-1.817,0,1.224,1.224,0,0,0-.376.9" transform="translate(-46.328 -71.645)"/>
    <path id="パス_574" data-name="パス 574" class="cls-4" d="M82.6,120.029l-.343-.094.786-1.571-1.411-2.536.343-.1L83.224,118l1.12-2.267.334.091Z" transform="translate(-52.058 -73.807)"/>
    <path id="パス_575" data-name="パス 575" class="cls-4" d="M95.316,117v-3.95H94.139l.092-.368H96.78v.368H95.695v3.9Z" transform="translate(-60.037 -71.862)"/>
    <path id="パス_576" data-name="パス 576" class="cls-4" d="M102.483,116.772v-4.39l.348-.041v1.78a1.369,1.369,0,0,1,.45-.43,1.126,1.126,0,0,1,.565-.143,1.023,1.023,0,0,1,.8.314,1.277,1.277,0,0,1,.284.887v1.982l-.338.041v-1.849a1.308,1.308,0,0,0-.209-.808.739.739,0,0,0-.622-.269.89.89,0,0,0-.652.279.92.92,0,0,0-.277.674v1.933Z" transform="translate(-65.358 -71.645)"/>
    <path id="パス_577" data-name="パス 577" class="cls-4" d="M113.4,118.524a2.365,2.365,0,0,1-.607.334,1.842,1.842,0,0,1-.623.107,1.6,1.6,0,0,1-1.175-.465,1.566,1.566,0,0,1-.468-1.156,1.546,1.546,0,0,1,.471-1.152,1.61,1.61,0,0,1,1.172-.46,1.532,1.532,0,0,1,.776.191,1.3,1.3,0,0,1,.518.55l-2.432,1.433a1.286,1.286,0,0,0,.471.519,1.25,1.25,0,0,0,.668.183,1.465,1.465,0,0,0,.583-.124,2.947,2.947,0,0,0,.647-.408Zm-2.493-.916,2.046-1.215a.816.816,0,0,0-.329-.242,1.19,1.19,0,0,0-.454-.082,1.236,1.236,0,0,0-.9.367,1.217,1.217,0,0,0-.371.9c0,.057,0,.105,0,.147s.005.083.009.126" transform="translate(-70.487 -73.807)"/>
    <path id="パス_578" data-name="パス 578" class="cls-4" d="M124.479,116.908V112.59l.379-.051v1.955h2.436v-1.9l.379-.051v4.319l-.379.051v-2.057h-2.436v2.006Z" transform="translate(-79.387 -71.771)"/>
    <path id="パス_579" data-name="パス 579" class="cls-4" d="M134.711,117.343a1.545,1.545,0,0,1,.471-1.15,1.717,1.717,0,0,1,2.344,0,1.65,1.65,0,0,1,0,2.306,1.7,1.7,0,0,1-2.342,0,1.557,1.557,0,0,1-.473-1.154m.358,0a1.22,1.22,0,0,0,.378.9,1.292,1.292,0,0,0,1.816,0,1.27,1.27,0,0,0,0-1.8,1.292,1.292,0,0,0-1.816,0,1.221,1.221,0,0,0-.378.9" transform="translate(-85.912 -73.807)"/>
    <path id="パス_580" data-name="パス 580" class="cls-4" d="M145.086,118.9v-3.142l.348-.041v.532a1.373,1.373,0,0,1,.45-.43,1.128,1.128,0,0,1,.565-.143,1.022,1.022,0,0,1,.8.314,1.277,1.277,0,0,1,.284.887v1.982l-.338.041v-1.849a1.308,1.308,0,0,0-.209-.808.74.74,0,0,0-.623-.269.889.889,0,0,0-.652.279.921.921,0,0,0-.277.674v1.933Z" transform="translate(-92.528 -73.771)"/>
    <path id="パス_581" data-name="パス 581" class="cls-4" d="M154.737,117.586a1.253,1.253,0,0,1,.534.43,1.106,1.106,0,0,1-.213,1.474,1.5,1.5,0,0,1-1.01.343,1.621,1.621,0,0,1-.795-.2,1.726,1.726,0,0,1-.606-.571l.316-.2a1.4,1.4,0,0,0,.475.465,1.212,1.212,0,0,0,.612.159,1.154,1.154,0,0,0,.746-.247.749.749,0,0,0,.308-.6.808.808,0,0,0-.309-.638,1.117,1.117,0,0,0-.749-.263,1.6,1.6,0,0,0-.377.048,2.468,2.468,0,0,0-.417.146l.15-.39a1.178,1.178,0,0,1-.43-.4,1.009,1.009,0,0,1-.15-.538,1,1,0,0,1,.366-.785,1.329,1.329,0,0,1,.9-.318c.053,0,.111,0,.176.007s.133.009.2.018l.049,0h.076a2.366,2.366,0,0,0,.377-.034q.21-.035.574-.126l-.079.239a.268.268,0,0,1-.081.134.23.23,0,0,1-.135.034q-.052,0-.276-.033l-.072-.009a1.041,1.041,0,0,1,.386.366.957.957,0,0,1,.132.5,1,1,0,0,1-.178.581,1.219,1.219,0,0,1-.506.408m-1.558-.989a.735.735,0,0,0,.271.577,1.085,1.085,0,0,0,1.345,0,.736.736,0,0,0,.267-.578.692.692,0,0,0-.272-.548,1.009,1.009,0,0,0-.667-.227,1.023,1.023,0,0,0-.67.226.687.687,0,0,0-.275.55" transform="translate(-97.35 -73.573)"/>
    <path id="パス_582" data-name="パス 582" class="cls-4" d="M166.687,116.873v-4.319l.379-.072v4.339Zm.372-2.339,1.8-2.052.359.135-1.674,1.91,1.818,2.157-.317.209Z" transform="translate(-106.304 -71.735)"/>
    <path id="パス_583" data-name="パス 583" class="cls-4" d="M174,117.343a1.545,1.545,0,0,1,.472-1.15,1.716,1.716,0,0,1,2.343,0,1.65,1.65,0,0,1,0,2.306,1.7,1.7,0,0,1-2.342,0,1.556,1.556,0,0,1-.473-1.154m.358,0a1.22,1.22,0,0,0,.378.9,1.292,1.292,0,0,0,1.816,0,1.271,1.271,0,0,0,0-1.8,1.292,1.292,0,0,0-1.816,0,1.221,1.221,0,0,0-.378.9" transform="translate(-110.97 -73.807)"/>
    <path id="パス_584" data-name="パス 584" class="cls-4" d="M184.378,118.9v-3.142l.348-.041v.532a1.369,1.369,0,0,1,.45-.43,1.127,1.127,0,0,1,.565-.143,1.023,1.023,0,0,1,.8.314,1.279,1.279,0,0,1,.284.887v1.982l-.338.041v-1.849a1.305,1.305,0,0,0-.209-.808.739.739,0,0,0-.622-.269.888.888,0,0,0-.652.279.921.921,0,0,0-.277.674v1.933Z" transform="translate(-117.587 -73.771)"/>
    <path id="パス_585" data-name="パス 585" class="cls-4" d="M194.029,117.586a1.255,1.255,0,0,1,.534.43,1.105,1.105,0,0,1-.213,1.474,1.5,1.5,0,0,1-1.01.343,1.619,1.619,0,0,1-.795-.2,1.72,1.72,0,0,1-.606-.571l.315-.2a1.4,1.4,0,0,0,.475.465,1.212,1.212,0,0,0,.612.159,1.154,1.154,0,0,0,.746-.247.749.749,0,0,0,.308-.6.807.807,0,0,0-.309-.638,1.117,1.117,0,0,0-.749-.263,1.606,1.606,0,0,0-.377.048,2.465,2.465,0,0,0-.417.146l.15-.39a1.176,1.176,0,0,1-.43-.4,1.03,1.03,0,0,1,.216-1.323,1.33,1.33,0,0,1,.9-.318c.053,0,.111,0,.176.007s.133.009.2.018l.049,0h.076a2.362,2.362,0,0,0,.377-.034q.21-.035.574-.126l-.079.239a.265.265,0,0,1-.081.134.229.229,0,0,1-.135.034q-.052,0-.276-.033l-.072-.009a1.041,1.041,0,0,1,.386.366.96.96,0,0,1,.132.5,1,1,0,0,1-.178.581,1.218,1.218,0,0,1-.505.408m-1.558-.989a.735.735,0,0,0,.271.577,1.085,1.085,0,0,0,1.345,0,.736.736,0,0,0,.267-.578.692.692,0,0,0-.272-.548,1.007,1.007,0,0,0-.666-.227,1.023,1.023,0,0,0-.67.226.685.685,0,0,0-.275.55" transform="translate(-122.409 -73.573)"/>
    <path id="パス_586" data-name="パス 586" class="cls-4" d="M208.485,116.709a2.18,2.18,0,0,1-.414.128,2.133,2.133,0,0,1-.417.041,2.312,2.312,0,0,1-.745-.117,2.085,2.085,0,0,1-.636-.345,2.247,2.247,0,0,1,0-3.528,2.168,2.168,0,0,1,.644-.346,2.339,2.339,0,0,1,.744-.115,2.18,2.18,0,0,1,.4.038,2.515,2.515,0,0,1,.4.113l.082.474a1.53,1.53,0,0,0-.422-.2,1.683,1.683,0,0,0-.479-.067,1.782,1.782,0,0,0-1.312.534,1.933,1.933,0,0,0,0,2.665,1.773,1.773,0,0,0,1.309.536,1.627,1.627,0,0,0,.447-.063,2.364,2.364,0,0,0,.465-.193Z" transform="translate(-131.002 -71.7)"/>
    <path id="パス_587" data-name="パス 587" class="cls-4" d="M215.121,117.343a1.547,1.547,0,0,1,.471-1.15,1.717,1.717,0,0,1,2.344,0,1.651,1.651,0,0,1,0,2.306,1.7,1.7,0,0,1-2.342,0,1.556,1.556,0,0,1-.473-1.154m.358,0a1.22,1.22,0,0,0,.378.9,1.292,1.292,0,0,0,1.816,0,1.271,1.271,0,0,0,0-1.8,1.292,1.292,0,0,0-1.816,0,1.221,1.221,0,0,0-.378.9" transform="translate(-137.193 -73.807)"/>
    <path id="パス_588" data-name="パス 588" class="cls-4" d="M227.578,118.44a1.341,1.341,0,0,1-.448.429,1.14,1.14,0,0,1-.566.142,1.037,1.037,0,0,1-.806-.315,1.263,1.263,0,0,1-.288-.884v-1.984l.348-.041v1.852a1.312,1.312,0,0,0,.206.808.729.729,0,0,0,.617.267.9.9,0,0,0,.657-.278.915.915,0,0,0,.28-.673v-1.935l.348-.041v3.142l-.348.041Z" transform="translate(-143.793 -73.843)"/>
    <path id="パス_589" data-name="パス 589" class="cls-4" d="M233.934,118.9v-3.142l.348-.041v.532a1.373,1.373,0,0,1,.45-.43,1.128,1.128,0,0,1,.565-.143,1.025,1.025,0,0,1,.8.314,1.279,1.279,0,0,1,.284.887v1.982l-.338.041v-1.849a1.308,1.308,0,0,0-.208-.808.74.74,0,0,0-.623-.269.889.889,0,0,0-.651.279.921.921,0,0,0-.277.674v1.933Z" transform="translate(-149.191 -73.771)"/>
    <path id="パス_590" data-name="パス 590" class="cls-4" d="M244.778,118.58a2.154,2.154,0,0,1-.561.285,1.885,1.885,0,0,1-.6.1,1.6,1.6,0,0,1-1.171-.467,1.646,1.646,0,0,1,0-2.306,1.611,1.611,0,0,1,1.173-.461,2.027,2.027,0,0,1,.606.086,1.893,1.893,0,0,1,.533.27l-.231.279a1.849,1.849,0,0,0-.448-.226,1.466,1.466,0,0,0-.46-.071,1.245,1.245,0,0,0-.909.374,1.261,1.261,0,0,0,0,1.8,1.247,1.247,0,0,0,.909.374,1.425,1.425,0,0,0,.463-.082,1.923,1.923,0,0,0,.463-.236Z" transform="translate(-154.32 -73.807)"/>
    <path id="パス_591" data-name="パス 591" class="cls-4" d="M250.958,112.659l.266-.318.266.285-.266.318Zm.092,4.123V113.63l.358-.041v3.142Z" transform="translate(-160.048 -71.645)"/>
    <path id="パス_592" data-name="パス 592" class="cls-4" d="M254.214,116.764v-4.4l.358-.051v4.4Z" transform="translate(-162.125 -71.627)"/>
    <path id="パス_593" data-name="パス 593" class="cls-4" d="M261.239,117.343a1.546,1.546,0,0,1,.471-1.15,1.717,1.717,0,0,1,2.344,0,1.65,1.65,0,0,1,0,2.306,1.7,1.7,0,0,1-2.342,0,1.556,1.556,0,0,1-.473-1.154m.358,0a1.22,1.22,0,0,0,.378.9,1.292,1.292,0,0,0,1.816,0,1.271,1.271,0,0,0,0-1.8,1.292,1.292,0,0,0-1.816,0,1.221,1.221,0,0,0-.378.9" transform="translate(-166.605 -73.807)"/>
    <path id="パス_594" data-name="パス 594" class="cls-4" d="M271.359,116.7v-2.8h-.45l.1-.338h.348c0-.016,0-.041-.005-.075s-.005-.058-.005-.073a1.3,1.3,0,0,1,.262-.9,1.067,1.067,0,0,1,.822-.284h.106l.1.313-.065,0-.059,0a.842.842,0,0,0-.628.2.941.941,0,0,0-.188.66c0,.042,0,.075,0,.1a.508.508,0,0,0,.008.068h.809v.338h-.809v2.763Z" transform="translate(-172.772 -71.573)"/>
    <path id="パス_595" data-name="パス 595" class="cls-4" d="M280.505,115.913a1.371,1.371,0,0,0,.448.46,1.1,1.1,0,0,0,.579.154.993.993,0,0,0,.682-.237.763.763,0,0,0,.269-.6q0-.6-1.022-.909-.106-.03-.161-.049a1.637,1.637,0,0,1-.764-.43,1.009,1.009,0,0,1-.243-.7,1.069,1.069,0,0,1,.363-.817,1.294,1.294,0,0,1,.913-.334,1.509,1.509,0,0,1,.607.117,1.87,1.87,0,0,1,.543.383l-.247.288a1.765,1.765,0,0,0-.461-.331,1.1,1.1,0,0,0-.467-.1.865.865,0,0,0-.61.233.741.741,0,0,0-.251.564.67.67,0,0,0,.1.362.765.765,0,0,0,.3.262,2.924,2.924,0,0,0,.535.195q.213.061.326.1a1.554,1.554,0,0,1,.709.444,1.03,1.03,0,0,1,.237.685,1.159,1.159,0,0,1-.382.885,1.371,1.371,0,0,1-.972.356,1.49,1.49,0,0,1-.752-.2,1.654,1.654,0,0,1-.576-.561Z" transform="translate(-178.698 -71.717)"/>
    <path id="パス_596" data-name="パス 596" class="cls-4" d="M288.622,117.343a1.545,1.545,0,0,1,.471-1.15,1.717,1.717,0,0,1,2.344,0,1.65,1.65,0,0,1,0,2.306,1.7,1.7,0,0,1-2.342,0,1.557,1.557,0,0,1-.473-1.154m.358,0a1.22,1.22,0,0,0,.378.9,1.292,1.292,0,0,0,1.816,0,1.27,1.27,0,0,0,0-1.8,1.292,1.292,0,0,0-1.816,0,1.221,1.221,0,0,0-.378.9" transform="translate(-184.068 -73.807)"/>
    <path id="パス_597" data-name="パス 597" class="cls-4" d="M301.4,118.58a2.154,2.154,0,0,1-.561.285,1.885,1.885,0,0,1-.6.1,1.6,1.6,0,0,1-1.171-.467,1.645,1.645,0,0,1,0-2.306,1.611,1.611,0,0,1,1.173-.461,2.027,2.027,0,0,1,.606.086,1.893,1.893,0,0,1,.533.27l-.231.279a1.85,1.85,0,0,0-.448-.226,1.464,1.464,0,0,0-.46-.071,1.246,1.246,0,0,0-.909.374,1.26,1.26,0,0,0,0,1.8,1.248,1.248,0,0,0,.909.374,1.424,1.424,0,0,0,.463-.082,1.923,1.923,0,0,0,.463-.236Z" transform="translate(-190.432 -73.807)"/>
    <path id="パス_598" data-name="パス 598" class="cls-4" d="M307.585,112.659l.266-.318.266.285-.266.318Zm.092,4.123V113.63l.358-.041v3.142Z" transform="translate(-196.162 -71.645)"/>
    <path id="パス_599" data-name="パス 599" class="cls-4" d="M312.165,118.542a1.128,1.128,0,0,1-.377.289,1.073,1.073,0,0,1-.456.1,1.1,1.1,0,0,1-.808-.332,1.138,1.138,0,0,1,.808-1.94,1.143,1.143,0,0,1,.454.093,1.123,1.123,0,0,1,.38.27v-.393a.635.635,0,0,0-.163-.48.712.712,0,0,0-.5-.155,1.822,1.822,0,0,0-.436.058,3.589,3.589,0,0,0-.537.187l.137-.405a2.981,2.981,0,0,1,.448-.118,2.41,2.41,0,0,1,.423-.039,1.011,1.011,0,0,1,.744.238,1.03,1.03,0,0,1,.236.751v2.194l-.348.072Zm-1.617-.749a.765.765,0,0,0,.233.57.81.81,0,0,0,.59.228.771.771,0,0,0,.575-.221.872.872,0,0,0,0-1.153.761.761,0,0,0-.568-.222.821.821,0,0,0-.6.226.765.765,0,0,0-.233.572" transform="translate(-197.823 -73.771)"/>
    <path id="パス_600" data-name="パス 600" class="cls-4" d="M318.464,116.764v-4.4l.358-.051v4.4Z" transform="translate(-203.1 -71.627)"/>
    <path id="パス_601" data-name="パス 601" class="cls-4" d="M325.877,115.913a1.365,1.365,0,0,0,.448.46,1.1,1.1,0,0,0,.579.154.992.992,0,0,0,.682-.237.763.763,0,0,0,.27-.6q0-.6-1.023-.909c-.071-.02-.125-.037-.161-.049a1.635,1.635,0,0,1-.764-.43,1.008,1.008,0,0,1-.243-.7,1.069,1.069,0,0,1,.363-.817,1.293,1.293,0,0,1,.912-.334,1.509,1.509,0,0,1,.607.117,1.872,1.872,0,0,1,.543.383l-.247.288a1.766,1.766,0,0,0-.461-.331,1.1,1.1,0,0,0-.467-.1.865.865,0,0,0-.61.233.741.741,0,0,0-.251.564.664.664,0,0,0,.1.362.763.763,0,0,0,.295.262,2.958,2.958,0,0,0,.536.195q.213.061.325.1a1.556,1.556,0,0,1,.709.444,1.03,1.03,0,0,1,.237.685,1.161,1.161,0,0,1-.383.885,1.37,1.37,0,0,1-.972.356,1.492,1.492,0,0,1-.752-.2,1.652,1.652,0,0,1-.575-.561Z" transform="translate(-207.634 -71.717)"/>
    <path id="パス_602" data-name="パス 602" class="cls-4" d="M336.865,118.524a2.363,2.363,0,0,1-.607.334,1.844,1.844,0,0,1-.623.107,1.6,1.6,0,0,1-1.175-.465,1.566,1.566,0,0,1-.468-1.156,1.547,1.547,0,0,1,.471-1.152,1.611,1.611,0,0,1,1.172-.46,1.534,1.534,0,0,1,.776.191,1.3,1.3,0,0,1,.518.55L334.5,117.9a1.281,1.281,0,0,0,.471.519,1.249,1.249,0,0,0,.668.183,1.461,1.461,0,0,0,.582-.124,2.923,2.923,0,0,0,.647-.408Zm-2.493-.916,2.047-1.215a.818.818,0,0,0-.329-.242,1.192,1.192,0,0,0-.454-.082,1.237,1.237,0,0,0-.9.367,1.217,1.217,0,0,0-.371.9c0,.057,0,.105,0,.147s.005.083.009.126" transform="translate(-213.003 -73.807)"/>
    <path id="パス_603" data-name="パス 603" class="cls-4" d="M343.276,118.862V115.72l.348-.041v.672a1.434,1.434,0,0,1,.461-.55,1.1,1.1,0,0,1,.631-.184h.085l-.143.348a.973.973,0,0,0-.782.462,2.376,2.376,0,0,0-.252,1.224v1.169Z" transform="translate(-218.924 -73.735)"/>
    <path id="パス_604" data-name="パス 604" class="cls-4" d="M348.817,118.965l-1.491-3.131.35-.1,1.141,2.44,1.144-2.44.343.091Z" transform="translate(-221.507 -73.807)"/>
    <path id="パス_605" data-name="パス 605" class="cls-4" d="M355.992,112.659l.266-.318.266.285-.266.318Zm.092,4.123V113.63l.358-.041v3.142Z" transform="translate(-227.033 -71.645)"/>
    <path id="パス_606" data-name="パス 606" class="cls-4" d="M361.485,118.58a2.154,2.154,0,0,1-.561.285,1.885,1.885,0,0,1-.6.1,1.6,1.6,0,0,1-1.171-.467,1.645,1.645,0,0,1,0-2.306,1.611,1.611,0,0,1,1.173-.461,2.027,2.027,0,0,1,.606.086,1.893,1.893,0,0,1,.533.27l-.231.279a1.848,1.848,0,0,0-.448-.226,1.466,1.466,0,0,0-.46-.071,1.246,1.246,0,0,0-.909.374,1.26,1.26,0,0,0,0,1.8,1.248,1.248,0,0,0,.909.374,1.425,1.425,0,0,0,.463-.082,1.923,1.923,0,0,0,.463-.236Z" transform="translate(-228.75 -73.807)"/>
    <path id="パス_607" data-name="パス 607" class="cls-4" d="M370.228,118.524a2.361,2.361,0,0,1-.608.334,1.84,1.84,0,0,1-.622.107,1.6,1.6,0,0,1-1.175-.465,1.565,1.565,0,0,1-.468-1.156,1.546,1.546,0,0,1,.471-1.152,1.609,1.609,0,0,1,1.172-.46,1.533,1.533,0,0,1,.776.191,1.307,1.307,0,0,1,.518.55L367.86,117.9a1.283,1.283,0,0,0,.471.519,1.248,1.248,0,0,0,.668.183,1.465,1.465,0,0,0,.583-.124,2.948,2.948,0,0,0,.647-.408Zm-2.493-.916,2.046-1.215a.816.816,0,0,0-.329-.242,1.189,1.189,0,0,0-.454-.082,1.236,1.236,0,0,0-.9.367,1.217,1.217,0,0,0-.371.9c0,.057,0,.105,0,.147s.005.083.009.126" transform="translate(-234.28 -73.807)"/>
    <path id="パス_608" data-name="パス 608" class="cls-4" d="M181.239,134.281v-1.364h-3.1v-.227h3.1v-.966l.256.057v.91h3.126v.227H181.5v1.364Zm-.483-.938.17.171a8.171,8.171,0,0,1-2.728,1.25l-.057-.227a7.773,7.773,0,0,0,2.615-1.194m2.756-2.33.058.227a12.236,12.236,0,0,1-2.1.284,22.537,22.537,0,0,1-2.5.029l-.057-.256a17.677,17.677,0,0,0,4.6-.284m-4.007,3.638h3.723v2.672h-3.723Zm3.467.228h-3.24V135.9h3.24Zm0,1.25h-3.24v.966h3.24Zm-1.137-2.643.171-.2a8.908,8.908,0,0,0,2.615,1.421l-.085.228a8.723,8.723,0,0,1-2.7-1.45" transform="translate(-113.609 -83.553)"/>
    <path id="パス_609" data-name="パス 609" class="cls-4" d="M197.585,133.259l.085-.2a7.639,7.639,0,0,1,.966.484l-.114.2q-.483-.256-.938-.484m.284,3.666-.227-.113a8.28,8.28,0,0,0,1.052-2.387l.227.085a8.953,8.953,0,0,1-1.052,2.415m.966-5.513-.171.171a9.3,9.3,0,0,0-.739-.625l.142-.2q.342.284.768.654m.54,3.467-.142-.227a6.7,6.7,0,0,0,1.791-1.364l.17.17a8.369,8.369,0,0,1-1.819,1.421m.171-3.154V131.5h1.25v-1.023l.228.085v.938h1.535v-1.023l.256.085v.938h1.251v.228h-1.251v1.222h1.507v.228H199.29v-.228H200.8v-1.222Zm.881,4.576v-1.876H203.1v1.307h-2.416v.568a.352.352,0,0,0,.4.4h2.16q.511.141.71-.881l.227.028q-.2,1.222-.938,1.079h-2.16q-.654-.027-.654-.625m2.444-1.648h-2.188v.853h2.188Zm-1.847-1.705h1.535v-1.222h-1.535Zm1.364.512.2-.17a10.98,10.98,0,0,0,1.79,1.392l-.2.171a12.268,12.268,0,0,1-1.79-1.393" transform="translate(-126.01 -83.21)"/>
    <path id="パス_610" data-name="パス 610" class="cls-4" d="M218.953,134l.228.057a13.432,13.432,0,0,1-.711,2.586l-.228-.085a12.733,12.733,0,0,0,.711-2.559m.768-.91h-1.364v-.227h2.927v.227h-1.307v4.122h-.256Zm-1.137-1.79h2.444v.256h-2.444Zm1.847,2.757.256-.057a11.549,11.549,0,0,0,.4,1.99l-.227.085q-.255-.966-.426-2.018m1.25-.739v-.228h1.336v-2.075l.227.057v2.018H224.5v.228h-1.251v3.24h1.535v.17h-3.553v-.17h1.791v-3.24Z" transform="translate(-139.184 -83.552)"/>
    <path id="パス_611" data-name="パス 611" class="cls-4" d="M244.873,131.761l-.086.227a9.042,9.042,0,0,1-3.069-1.25.385.385,0,0,0-.483,0,9.727,9.727,0,0,1-2.785,1.449l-.113-.227a9.649,9.649,0,0,0,2.842-1.507.455.455,0,0,1,.568,0,9.128,9.128,0,0,0,3.127,1.308m-.569,2.586h-5.514v-1.563H244.3Zm-5.258-.227h2.33v-1.108h-2.33Zm4.661,2.785h-4.377v-1.961h4.377Zm-4.121-1.08h3.865v-.654h-3.865Zm3.866.256h-3.865v.6h3.865Zm-2.928-2.3-.171.17q-.2-.2-.568-.6l.171-.171q.37.4.568.6m-.6-1.819h2.984v.227h-2.984Zm1.677,2.16h2.444v-1.108H241.6Zm1.137-.142-.2-.143c.113-.151.256-.359.426-.625l.2.114q-.313.511-.426.654" transform="translate(-151.998 -83.133)"/>
    <path id="パス_612" data-name="パス 612" class="cls-4" d="M259.251,134.534v-3.212h2.018v5.6q.028.484-.824.484l-.057-.228q.682,0,.654-.256v-5.371h-1.563v3.041a9.273,9.273,0,0,1-.4,2.842l-.256-.085a7.767,7.767,0,0,0,.427-2.813m1.648-1.421-.113.227a10.423,10.423,0,0,0-1.194-.71l.114-.2a10.284,10.284,0,0,1,1.194.682m0,1.506-.113.2a10.474,10.474,0,0,0-1.194-.71l.114-.2a7.957,7.957,0,0,1,1.194.71m3.553-1.933v-1.137h-2.189v6h-.256v-6.225h2.7v1.364q0,.74-.91.653l-.057-.227q.739.086.711-.426m-.085,1.62h-1.706v-.227h1.819c.246,0,.341.133.284.4a8,8,0,0,1-.682,1.819,4.492,4.492,0,0,0,1,.8.309.309,0,0,1,.085.057l-.142.2a7.281,7.281,0,0,1-1.108-.881,4.446,4.446,0,0,1-.853.682c-.1.095-.2.189-.313.284l-.142-.2a8.132,8.132,0,0,0,1.165-.967,6.973,6.973,0,0,1-.682-1.534l.227-.057a6.272,6.272,0,0,0,.6,1.364,5.608,5.608,0,0,0,.6-1.592c.018-.095-.029-.142-.142-.142" transform="translate(-165.065 -83.75)"/>
    <path id="パス_613" data-name="パス 613" class="cls-4" d="M279.517,133.94l.227.057a6.435,6.435,0,0,1-1.023,2.387l-.2-.113a6.089,6.089,0,0,0,.994-2.33m.455-.484h-1.421v-.227h2.87l.114.256-.739.739-.171-.2a3.228,3.228,0,0,0,.6-.568H280.2v3.126q.058.512-.767.483l-.057-.255q.682.056.6-.228Zm-1.194-2.16v-.227h2.188l.114.2q-.483.568-1.051,1.166a1.651,1.651,0,0,0,.2.227c.057.057.095.085.114.085l-.171.171q-.142-.114-.4-.341c-.189-.189-.332-.341-.426-.455l.143-.142c.113.095.237.2.369.312q.739-.8.91-.995Zm2.757,3.752v-.227h1.421v-.256a2.339,2.339,0,0,0,.028-.455l.227.057a1.86,1.86,0,0,1-.029.4v.256h1.563a4.581,4.581,0,0,1-.312,1.876q-.171.4-.909.4l-.057-.227q.654.028.768-.284a3.436,3.436,0,0,0,.256-1.535h-1.336a2.207,2.207,0,0,1-1.847,1.989l-.057-.2a2.073,2.073,0,0,0,1.676-1.79Zm1.023-4.263.2.114a7.535,7.535,0,0,1-1.194,1.648l-.17-.17a7.908,7.908,0,0,0,1.165-1.592m1.62,1.307.227.085a4.014,4.014,0,0,1-.768,1.25,3.43,3.43,0,0,0,1.45.569l-.057.227a4.664,4.664,0,0,1-1.563-.625,3.815,3.815,0,0,1-1.705.625l-.057-.227a3.052,3.052,0,0,0,1.563-.569,3.233,3.233,0,0,1-.852-1.222l.2-.114a3,3,0,0,0,.852,1.194,3.4,3.4,0,0,0,.711-1.194m.739-.256h-2.444v-.227h2.444Z" transform="translate(-177.628 -83.408)"/>
    <path id="パス_614" data-name="パス 614" class="cls-4" d="M298.587,136.244l-.057-.227a15.113,15.113,0,0,0,1.648-.426l.057.227q-1.364.341-1.648.426m.4-.483V131.1h-.4v-.227h2.558v.227h-.54v5.94h-.228v-2.9h-1.136v1.62Zm1.392-4.661h-1.136v1.279h1.136Zm-1.136,2.843h1.136v-1.364h-1.136Zm2.785-3.354.2.114q-.227.312-.739.995a1.242,1.242,0,0,0-.113.171c.095.076.2.151.313.228a.5.5,0,0,0,.227.142q.312-.341.852-.995l.171.142q-.313.4-1.023,1.222-.341.4-.654.768.057,0,1.023-.17l.057.227q-.285.057-.8.142a3.746,3.746,0,0,1-.71.086l-.057-.228c0,.019.047.019.142,0a.593.593,0,0,0,.227-.028l-.114-.114q.341-.4.739-.852-.285-.228-.853-.6l.113-.2a.346.346,0,0,0,.171.085q.114-.142.4-.569.284-.4.427-.568m-.4,3.809v1.393h.824v-1.762l.228.057v1.705q-.058.966-1.25,1.307l-.114-.2a1.365,1.365,0,0,0,1.108-.909h-1.051V134.34c.075.019.16.038.256.057m1.278-.768-.2.114q-.113-.171-.455-.71a.352.352,0,0,1-.085-.142l.2-.114q.37.569.54.852m1.165-3.1.171.142a.657.657,0,0,0-.114.17q-.483.74-.653,1.023.4.342.54.483a4.852,4.852,0,0,0,.37-.455,6.513,6.513,0,0,1,.483-.54l.17.142q-.625.8-1.563,1.876a8.085,8.085,0,0,0,1.052-.17l.057.227q-.455.085-1.194.2a1.256,1.256,0,0,1-.341.057l-.057-.227a3.017,3.017,0,0,1,.369-.057l-.142-.114a2.72,2.72,0,0,0,.2-.227l.455-.511q-.54-.484-.938-.8l.17-.2a.562.562,0,0,0,.2.171q.341-.483.767-1.194m-.54,6.508v-3.012l.227.057v1.762h.91v-1.563l.227.057v1.734h-1.137v.966Zm1.648-3.325-.227.086q-.2-.511-.484-1.08l.228-.114a10.8,10.8,0,0,0,.483,1.108" transform="translate(-190.387 -83.246)"/>
    <path id="パス_615" data-name="パス 615" class="cls-4" d="M325.245,131.761l-.085.227a9.046,9.046,0,0,1-3.07-1.25.384.384,0,0,0-.483,0,9.732,9.732,0,0,1-2.785,1.449l-.114-.227a9.646,9.646,0,0,0,2.842-1.507.456.456,0,0,1,.569,0,9.125,9.125,0,0,0,3.126,1.308m-.569,2.586h-5.514v-1.563h5.514Zm-5.258-.227h2.331v-1.108h-2.331Zm4.661,2.785H319.7v-1.961h4.377Zm-4.121-1.08h3.865v-.654h-3.865Zm3.865.256h-3.865v.6h3.865Zm-2.928-2.3-.171.17q-.2-.2-.568-.6l.17-.171q.369.4.568.6m-.6-1.819h2.984v.227H320.3Zm1.677,2.16h2.444v-1.108h-2.444Zm1.136-.142-.2-.143q.171-.227.427-.625l.2.114q-.313.511-.427.654" transform="translate(-203.256 -83.133)"/>
    <path id="パス_616" data-name="パス 616" class="cls-4" d="M339.485,132.146l.227.085a8.494,8.494,0,0,1-.852,1.762l-.227-.113a7.066,7.066,0,0,0,.852-1.734m.369,2.586h-1.079v-.228h2.5a7.042,7.042,0,0,1-.142,2.331.878.878,0,0,1-.852.625l-.029-.227a.668.668,0,0,0,.655-.455,8.866,8.866,0,0,0,.142-2.046h-.966a2.989,2.989,0,0,1-1.137,2.672l-.17-.171a2.722,2.722,0,0,0,1.079-2.5m.654-3.127h-1.08v-.2h1.307a3.517,3.517,0,0,0,.853,2.444l-.2.142a3.883,3.883,0,0,1-.881-2.387m1.052,5.94-.114-.228q.682-.455,1.136-.8l.143.171q-.6.455-1.165.853m3.41-6h-3.041v-.227h3.041Zm-2.927,1.023h2.814v3.581h-2.814Zm.256,1.109h2.331V132.8H342.3Zm2.331.227H342.3v.881h2.331Zm0,1.108H342.3v.91h2.331Zm-1.336-2.558-.2-.114a4.982,4.982,0,0,0,.313-.6l.228.085a1.4,1.4,0,0,0-.086.142,2.116,2.116,0,0,1-.256.483m.8,4.235.142-.2q.738.455,1.109.739l-.171.2a10.531,10.531,0,0,0-1.079-.739" transform="translate(-215.963 -83.75)"/>
    <path id="パス_617" data-name="パス 617" class="cls-4" d="M361.113,131.154h-1.506v-.227H361.4c.113.019.18.057.2.114.038.057.018.133-.057.227a5.217,5.217,0,0,1-2.956,1.875l-.085-.227a5.32,5.32,0,0,0,2.672-1.592.25.25,0,0,0,.029-.114.338.338,0,0,0-.086-.057m-1.933,3.07h1.564v-.853h-1.421v-.228H361v1.308H359.38q-.058.341-.143.853h1.876q-.171.795-.256,1.079-.255.91-1.421.8l-.056-.227q1.051.112,1.221-.6c.038-.114.095-.331.171-.653.019-.076.038-.142.057-.2h-1.876q.113-.625.227-1.279m.824-2.245-.142.2q-.256-.2-.739-.54l.17-.2q.2.171.4.313c.152.114.256.189.313.228m4.093,3.041h-2.444v-.2h2.785a5.587,5.587,0,0,1-.91,1.592,7.1,7.1,0,0,0,1.507.54l-.057.255a8.118,8.118,0,0,1-1.649-.654,5.514,5.514,0,0,1-1.932.625l-.057-.227a5.254,5.254,0,0,0,1.79-.54q-.483-.511-.966-1.108l.2-.142a6.778,6.778,0,0,0,.966,1.08,5.488,5.488,0,0,0,.768-1.222m-2.331-.654-.17-.17a1.749,1.749,0,0,0,.568-1.535H363.5V133.8a.292.292,0,0,0,.284.284h.569q.284.085.4-.654l.228.057q-.114.91-.626.824h-.569q-.54-.028-.54-.511v-.91h-.824a2,2,0,0,1-.654,1.478m.4-3.354.2-.142a6.165,6.165,0,0,0,2.785,2.047l-.113.2a5.914,5.914,0,0,1-2.871-2.1m1.507-.142.17.142q-.2.256-.455.54l-.2-.17a4.492,4.492,0,0,0,.484-.512m.54,1.279-.171-.17q.256-.285.455-.512l.2.142a.44.44,0,0,1-.085.114,3.2,3.2,0,0,1-.4.426" transform="translate(-228.632 -83.462)"/>
    <path id="パス_618" data-name="パス 618" class="cls-8" d="M415.309,3.359c.05-.045,0-.216-.255-.391-.177-.088-.331-.089-.194.084a1.6,1.6,0,0,0,.449.307" transform="translate(-264.542 -1.855)"/>
    <path id="パス_619" data-name="パス 619" class="cls-9" d="M470.206,47.781a3.242,3.242,0,0,1,1.142-2.487,3.667,3.667,0,0,1,2.44-.933h.109a.546.546,0,0,1,.1.009,3.726,3.726,0,0,1,2.322,1.033,3.137,3.137,0,0,1,1.052,2.426v.113a3.78,3.78,0,0,1-.972,2.54,3.493,3.493,0,0,1-2.544,1.032h-.142a3.259,3.259,0,0,1-2.535-1.07,3.8,3.8,0,0,1-.971-2.653Zm.6,0a3.207,3.207,0,0,0,.82,2.25,2.8,2.8,0,0,0,2.165.895,2.986,2.986,0,0,0,2.165-.791,2.906,2.906,0,0,0,.819-2.194,2.8,2.8,0,0,0-.876-2.193,3.039,3.039,0,0,0-2.108-.791,2.908,2.908,0,0,0-2.109.858,2.689,2.689,0,0,0-.876,1.975Zm3.2-1.942a3.465,3.465,0,0,1,1.222.2q.493.193.493.924a1.035,1.035,0,0,1-.341.843,1.468,1.468,0,0,1-.748.341.783.783,0,0,0-.089.005.8.8,0,0,1-.09,0l1.193,1.782h-.663l-1.127-1.791h-.815v1.791h-.6v-4.1Zm-.966,1.79h1.194a1.06,1.06,0,0,0,.7-.156.628.628,0,0,0,.195-.506c0-.259-.084-.423-.251-.493a1.686,1.686,0,0,0-.639-.1l-1.194-.01Z" transform="translate(-299.873 -28.291)"/>
    <path id="パス_620" data-name="パス 620" class="cls-4" d="M385.568,72.362a5.523,5.523,0,0,0,.426-.373q.277-.261.582-.572c.041-.046.084-.09.128-.134s.086-.088.128-.134q.293-.317.529-.61a2.379,2.379,0,0,0,.317-.473,2.053,2.053,0,0,0,.1-.3,1.018,1.018,0,0,0,.034-.252.6.6,0,0,0-.184-.473.965.965,0,0,0-.4-.218,1.307,1.307,0,0,0-.146-.028,1.1,1.1,0,0,0-.14-.009.734.734,0,0,0-.146.016.954.954,0,0,0-.159.047,1.107,1.107,0,0,0-.4.28.689.689,0,0,0-.181.491l-.442-.006V69.55a1.045,1.045,0,0,1,.41-.861,1.544,1.544,0,0,1,1.78-.109,1.287,1.287,0,0,1,.423.5,1.071,1.071,0,0,1,.062.205.994.994,0,0,1,.019.187,1.361,1.361,0,0,1-.056.336,2.579,2.579,0,0,1-.13.342,3.733,3.733,0,0,1-.454.709q-.28.348-.579.653-.261.261-.51.482t-.423.37l2.2-.006v.392h-2.794Z" transform="translate(-245.895 -43.589)"/>
    <path id="パス_621" data-name="パス 621" class="cls-4" d="M395.032,70.238q0-.149.013-.317a2.957,2.957,0,0,1,.044-.336,2.594,2.594,0,0,1,.4-1.027,1.078,1.078,0,0,1,.965-.467,1.134,1.134,0,0,1,1.073.535,2.9,2.9,0,0,1,.37,1.176c.008.083.014.166.018.249s.006.164.006.243a3.94,3.94,0,0,1-.311,1.7,1.167,1.167,0,0,1-1.157.641,1.085,1.085,0,0,1-1.1-.635,3.92,3.92,0,0,1-.317-1.406c0-.058,0-.117,0-.178s0-.119,0-.177Zm2.4.05a2.776,2.776,0,0,0-.283-1.394.854.854,0,0,0-.544-.4c-.025,0-.05-.007-.075-.009s-.05,0-.075,0a.75.75,0,0,0-.731.439,3.468,3.468,0,0,0-.252,1.322v.165c0,.056,0,.111.006.165a3.741,3.741,0,0,0,.205,1.157.744.744,0,0,0,.772.523.783.783,0,0,0,.747-.482,2.807,2.807,0,0,0,.237-1.235v-.162a.282.282,0,0,0,0-.041.27.27,0,0,1,0-.04Z" transform="translate(-251.931 -43.426)"/>
    <path id="パス_622" data-name="パス 622" class="cls-4" d="M404.495,72.362a5.523,5.523,0,0,0,.426-.373q.277-.261.582-.572c.041-.046.084-.09.128-.134s.086-.088.128-.134q.293-.317.529-.61a2.379,2.379,0,0,0,.317-.473,2.053,2.053,0,0,0,.1-.3,1.018,1.018,0,0,0,.034-.252.6.6,0,0,0-.184-.473.966.966,0,0,0-.4-.218,1.3,1.3,0,0,0-.146-.028,1.1,1.1,0,0,0-.14-.009.734.734,0,0,0-.146.016.954.954,0,0,0-.159.047,1.107,1.107,0,0,0-.4.28.689.689,0,0,0-.181.491l-.442-.006V69.55a1.045,1.045,0,0,1,.41-.861,1.544,1.544,0,0,1,1.78-.109,1.287,1.287,0,0,1,.423.5,1.071,1.071,0,0,1,.062.205,1,1,0,0,1,.019.187,1.361,1.361,0,0,1-.056.336,2.574,2.574,0,0,1-.13.342,3.733,3.733,0,0,1-.454.709q-.28.348-.579.653-.261.261-.51.482t-.423.37l2.2-.006v.392h-2.794Z" transform="translate(-257.966 -43.589)"/>
    <path id="パス_623" data-name="パス 623" class="cls-4" d="M413.959,70.238q0-.149.013-.317a2.964,2.964,0,0,1,.044-.336,2.594,2.594,0,0,1,.4-1.027,1.078,1.078,0,0,1,.965-.467,1.134,1.134,0,0,1,1.073.535,2.9,2.9,0,0,1,.37,1.176c.008.083.014.166.018.249s.006.164.006.243a3.94,3.94,0,0,1-.311,1.7,1.167,1.167,0,0,1-1.157.641,1.085,1.085,0,0,1-1.1-.635,3.92,3.92,0,0,1-.317-1.406c0-.058,0-.117,0-.178s0-.119,0-.177Zm2.4.05a2.776,2.776,0,0,0-.283-1.394.854.854,0,0,0-.544-.4c-.025,0-.05-.007-.075-.009s-.05,0-.075,0a.75.75,0,0,0-.731.439,3.468,3.468,0,0,0-.252,1.322v.165c0,.056,0,.111.006.165a3.741,3.741,0,0,0,.205,1.157.744.744,0,0,0,.772.523.783.783,0,0,0,.747-.482,2.807,2.807,0,0,0,.237-1.235v-.162a.286.286,0,0,0,0-.041.266.266,0,0,1,0-.04Z" transform="translate(-264.002 -43.426)"/>
    <rect id="長方形_81" data-name="長方形 81" class="cls-4" width="1.617" height="0.392" transform="translate(153.143 27.304)"/>
    <path id="パス_624" data-name="パス 624" class="cls-4" d="M428.163,72.362a5.523,5.523,0,0,0,.426-.373q.277-.261.582-.572c.041-.046.084-.09.128-.134s.086-.088.128-.134q.293-.317.529-.61a2.381,2.381,0,0,0,.317-.473,2.057,2.057,0,0,0,.1-.3,1.019,1.019,0,0,0,.034-.252.6.6,0,0,0-.184-.473.965.965,0,0,0-.4-.218,1.3,1.3,0,0,0-.146-.028,1.1,1.1,0,0,0-.14-.009.735.735,0,0,0-.146.016.953.953,0,0,0-.159.047,1.107,1.107,0,0,0-.4.28.689.689,0,0,0-.181.491l-.442-.006V69.55a1.045,1.045,0,0,1,.41-.861,1.544,1.544,0,0,1,1.78-.109,1.286,1.286,0,0,1,.423.5,1.071,1.071,0,0,1,.062.205,1,1,0,0,1,.019.187,1.359,1.359,0,0,1-.056.336,2.57,2.57,0,0,1-.13.342,3.735,3.735,0,0,1-.454.709q-.28.348-.579.653-.261.261-.51.482t-.423.37l2.2-.006v.392h-2.794Z" transform="translate(-273.06 -43.589)"/>
    <path id="パス_625" data-name="パス 625" class="cls-4" d="M437.627,72.362a5.517,5.517,0,0,0,.426-.373q.277-.261.582-.572c.041-.046.084-.09.128-.134s.086-.088.128-.134q.293-.317.529-.61a2.379,2.379,0,0,0,.317-.473,2.053,2.053,0,0,0,.1-.3,1.018,1.018,0,0,0,.034-.252.6.6,0,0,0-.184-.473.966.966,0,0,0-.4-.218,1.307,1.307,0,0,0-.146-.028,1.1,1.1,0,0,0-.14-.009.734.734,0,0,0-.146.016.955.955,0,0,0-.159.047,1.107,1.107,0,0,0-.4.28.689.689,0,0,0-.181.491l-.442-.006V69.55a1.045,1.045,0,0,1,.41-.861,1.544,1.544,0,0,1,1.78-.109,1.287,1.287,0,0,1,.423.5,1.071,1.071,0,0,1,.062.205.994.994,0,0,1,.019.187,1.359,1.359,0,0,1-.056.336,2.579,2.579,0,0,1-.13.342,3.734,3.734,0,0,1-.454.709q-.28.348-.579.653-.261.261-.51.482t-.423.37l2.2-.006v.392h-2.794Z" transform="translate(-279.096 -43.589)"/>
  </g>
</svg>
